<svg xmlns="http://www.w3.org/2000/svg" height="512pt" version="1.1" viewBox="-43 0 512 512" width="512pt">
<g id="surface1">
<path d="M 405.730469 83.699219 C 423.429688 60.601562 423.429688 39.601562 423.429688 15 C 423.429688 6.597656 415.628906 0 407.230469 0 C 384.128906 0.300781 363.730469 0 341.230469 16.5 C 303.429688 6 258.429688 0.902344 213.429688 0.902344 C 168.429688 0.902344 123.429688 6 85.628906 16.5 C 63.429688 0.300781 43.332031 0 19.628906 0 C 10.628906 0 3.429688 6.597656 3.429688 15.300781 C 3.429688 39.601562 3.429688 60.601562 21.128906 83.699219 C -10.667969 225.601562 -3.167969 320.300781 21.128906 428.300781 C 3.429688 451.398438 3.429688 472.398438 3.429688 497 C 3.429688 505.699219 11.832031 512 20.53125 512 C 43.328125 512 63.429688 511.699219 85.628906 495.5 C 123.429688 505.699219 168.429688 510.800781 213.429688 510.800781 C 258.429688 510.800781 303.429688 505.699219 341.230469 495.5 C 363.429688 511.699219 383.527344 512 407.230469 512 C 415.929688 512 423.429688 505.402344 423.429688 496.699219 C 423.429688 472.398438 423.429688 451.398438 405.730469 428.300781 C 430.027344 320.300781 437.527344 225.601562 405.730469 83.699219 Z M 405.730469 83.699219 " style=" stroke:none;fill-rule:nonzero;fill:rgb(49.411765%,36.470588%,25.098039%);fill-opacity:1;" />
<path d="M 405.730469 428.300781 C 423.429688 451.398438 423.429688 472.398438 423.429688 496.699219 C 423.429688 505.402344 415.929688 512 407.230469 512 C 383.53125 512 363.429688 511.699219 341.230469 495.5 C 303.429688 505.699219 258.429688 510.800781 213.429688 510.800781 L 213.429688 0.902344 C 258.429688 0.902344 303.429688 6 341.230469 16.5 C 363.730469 0 384.128906 0.300781 407.230469 0 C 415.628906 0 423.429688 6.597656 423.429688 15 C 423.429688 39.601562 423.429688 60.601562 405.730469 83.699219 C 437.527344 225.601562 430.027344 320.300781 405.730469 428.300781 Z M 405.730469 428.300781 " style=" stroke:none;fill-rule:nonzero;fill:rgb(40.784314%,30.196078%,20.392157%);fill-opacity:1;" />
<path d="M 198.429688 345 C 157.007812 345 123.429688 311.421875 123.429688 270 C 123.429688 261.714844 130.144531 255 138.429688 255 C 179.851562 255 213.429688 288.578125 213.429688 330 C 213.429688 338.285156 206.714844 345 198.429688 345 Z M 198.429688 345 " style=" stroke:none;fill-rule:nonzero;fill:rgb(65.882353%,82.745098%,16.470588%);fill-opacity:1;" />
<path d="M 198.429688 225 C 157.007812 225 123.429688 191.421875 123.429688 150 C 123.429688 141.714844 130.144531 135 138.429688 135 C 179.851562 135 213.429688 168.578125 213.429688 210 C 213.429688 218.285156 206.714844 225 198.429688 225 Z M 198.429688 225 " style=" stroke:none;fill-rule:nonzero;fill:rgb(65.882353%,82.745098%,16.470588%);fill-opacity:1;" />
<path d="M 228.429688 345 C 269.851562 345 303.429688 311.421875 303.429688 270 C 303.429688 261.714844 296.714844 255 288.429688 255 C 247.007812 255 213.429688 288.578125 213.429688 330 C 213.429688 338.285156 220.144531 345 228.429688 345 Z M 228.429688 345 " style=" stroke:none;fill-rule:nonzero;fill:rgb(57.647059%,74.901961%,0%);fill-opacity:1;" />
<path d="M 228.429688 225 C 269.851562 225 303.429688 191.421875 303.429688 150 C 303.429688 141.714844 296.714844 135 288.429688 135 C 247.007812 135 213.429688 168.578125 213.429688 210 C 213.429688 218.285156 220.144531 225 228.429688 225 Z M 228.429688 225 " style=" stroke:none;fill-rule:nonzero;fill:rgb(57.647059%,74.901961%,0%);fill-opacity:1;" />
<path d="M 228.429688 135 L 228.429688 407 C 228.429688 415.398438 221.832031 422 213.429688 422 C 205.027344 422 198.429688 415.398438 198.429688 407 L 198.429688 135 C 198.429688 126.597656 205.027344 120 213.429688 120 C 221.832031 120 228.429688 126.597656 228.429688 135 Z M 228.429688 135 " style=" stroke:none;fill-rule:nonzero;fill:rgb(72.54902%,86.666667%,22.352941%);fill-opacity:1;" />
<path d="M 228.429688 407 L 228.429688 135 C 228.429688 126.597656 221.832031 120 213.429688 120 L 213.429688 422 C 221.832031 422 228.429688 415.398438 228.429688 407 Z M 228.429688 407 " style=" stroke:none;fill-rule:nonzero;fill:rgb(65.882353%,82.745098%,16.470588%);fill-opacity:1;" />
</g>
</svg>