<svg id="icons" enable-background="new 0 0 64 64" height="512" viewBox="0 0 64 64" width="512" xmlns="http://www.w3.org/2000/svg"><path d="m48.001 3.994c-.553 0-1 .447-1 1s.447 1 1 1h13v-2z" fill="#ccd1d9"/><path d="m46 2.994h-12c-.553 0-1-.447-1-1s.447-1 1-1h12c.553 0 1 .447 1 1s-.447 1-1 1z" fill="#ccd1d9"/><path d="m43.998 5.994h-9.998c-.553 0-1-.447-1-1s.447-1 1-1h9.998c.553 0 1 .447 1 1s-.447 1-1 1z" fill="#ccd1d9"/><path d="m46 8.994h-11.979c-.553 0-1-.447-1-1s.447-1 1-1h11.979c.553 0 1 .447 1 1s-.447 1-1 1z" fill="#ccd1d9"/><path d="m46.001.996h-2.001c-.553 0-1 .447-1 1v5.998c0 .553.447 1 1 1h2c1.653 0 2.999-1.345 2.999-2.998v-1.992c0-.004.002-.006.002-.01 0-1.653-1.346-2.998-3-2.998z" fill="#e6e9ed"/><path d="m40.487 25.014h-4-4-28.5v3h.99l2.449 29.99c.15 2.75 2.53 4.99 5.28 4.99h26.55c2.75 0 5.12-2.24 5.28-4.99l2.44-29.99h1.01v-3z" fill="#da4453"/><g fill="#ffce54"><path d="m33.499 12.993c-.23 0-.462-.079-.65-.24-.419-.359-.469-.99-.109-1.41.348-.406.348-1.119 0-1.525l-1.003-1.175c-.989-1.156-.989-2.969.001-4.126l1.001-1.173c.36-.42.99-.467 1.41-.111.42.358.47.99.111 1.41l-1.002 1.174c-.349.407-.349 1.12-.001 1.526l1.003 1.175c.989 1.156.989 2.969-.001 4.126-.197.23-.479.349-.76.349z"/><path d="m33.499 20.993c-.23 0-.462-.079-.65-.24-.419-.359-.469-.99-.109-1.41.348-.406.348-1.119 0-1.525l-1.003-1.175c-.989-1.156-.989-2.969.001-4.126l1.001-1.173c.36-.42.99-.467 1.41-.111.42.358.47.99.111 1.41l-1.002 1.174c-.349.407-.349 1.12-.001 1.526l1.003 1.175c.989 1.156.989 2.969-.001 4.126-.197.23-.479.349-.76.349z"/><path d="m32.497 24.993c-.281 0-.563-.119-.76-.35-.99-1.157-.99-2.97 0-4.127l1.001-1.173c.36-.42.99-.467 1.41-.111.42.358.47.99.111 1.41l-1.002 1.174c-.349.407-.349 1.12-.001 1.526.359.42.31 1.051-.109 1.41-.188.162-.419.241-.65.241z"/><path d="m37.499 12.993c-.23 0-.462-.079-.65-.24-.419-.359-.469-.99-.109-1.41.348-.406.348-1.119 0-1.525l-1.003-1.175c-.989-1.156-.989-2.969.001-4.126l1.001-1.173c.36-.42.991-.467 1.41-.111.42.358.47.99.111 1.41l-1.002 1.174c-.349.407-.349 1.12-.001 1.526l1.003 1.175c.989 1.156.989 2.969-.001 4.126-.197.23-.479.349-.76.349z"/><path d="m37.499 20.993c-.23 0-.462-.079-.65-.24-.419-.359-.469-.99-.109-1.41.348-.406.348-1.119 0-1.525l-1.003-1.175c-.989-1.156-.989-2.969.001-4.126l1.001-1.173c.36-.42.991-.467 1.41-.111.42.358.47.99.111 1.41l-1.002 1.174c-.349.407-.349 1.12-.001 1.526l1.003 1.175c.989 1.156.989 2.969-.001 4.126-.197.23-.479.349-.76.349z"/><path d="m36.497 24.993c-.281 0-.563-.119-.76-.35-.99-1.157-.99-2.97 0-4.127l1.001-1.173c.36-.42.991-.467 1.41-.111.42.358.47.99.111 1.41l-1.002 1.174c-.349.407-.349 1.12-.001 1.526.359.42.31 1.051-.109 1.41-.188.162-.419.241-.65.241z"/><path d="m41.499 12.993c-.23 0-.462-.079-.65-.24-.419-.359-.469-.99-.109-1.41.348-.406.348-1.119 0-1.525l-1.003-1.175c-.989-1.156-.989-2.969.001-4.126l1.001-1.173c.36-.42.99-.467 1.41-.111.42.358.47.99.111 1.41l-1.002 1.174c-.349.407-.349 1.12-.001 1.526l1.003 1.175c.989 1.156.989 2.969-.001 4.126-.197.23-.479.349-.76.349z"/><path d="m41.499 20.993c-.23 0-.462-.079-.65-.24-.419-.359-.469-.99-.109-1.41.348-.406.348-1.119 0-1.525l-1.003-1.175c-.989-1.156-.989-2.969.001-4.126l1.001-1.173c.36-.42.99-.467 1.41-.111.42.358.47.99.111 1.41l-1.002 1.174c-.349.407-.349 1.12-.001 1.526l1.003 1.175c.989 1.156.989 2.969-.001 4.126-.197.23-.479.349-.76.349z"/><path d="m40.497 24.993c-.281 0-.563-.119-.76-.35-.99-1.157-.99-2.97 0-4.127l1.001-1.173c.36-.42.99-.467 1.41-.111.42.358.47.99.111 1.41l-1.002 1.174c-.349.407-.349 1.12-.001 1.526.359.42.31 1.051-.109 1.41-.188.162-.419.241-.65.241z"/></g><path d="m39.263 63.994h-26.551c-3.279 0-6.094-2.663-6.275-5.937l-2.448-29.976c-.045-.55.365-1.033.916-1.078.543-.041 1.032.365 1.078.916l2.448 30.002c.125 2.258 2.045 4.073 4.28 4.073h26.551c2.235 0 4.155-1.815 4.279-4.048l2.449-30.027c.045-.551.527-.958 1.078-.916.551.045.961.528.916 1.078l-2.448 30.002c-.18 3.248-2.994 5.911-6.273 5.911z" fill="#da4453"/><path d="m3.999 26.006c-.553 0-1-.447-1-1s.447-1 1-1c12.683 0 23-10.317 23-23 0-.553.447-1 1-1s1 .447 1 1c0 13.785-11.215 25-25 25z" fill="#ffce54"/><path d="m47.995 24.006h-43.996c-.553 0-1 .447-1 1v3c0 .553.447 1 1 1h43.996c.553 0 1-.447 1-1v-3c0-.553-.447-1-1-1z" fill="#ed5565"/></svg>