<svg height="512pt" viewBox="-78 0 512 512" width="512pt" xmlns="http://www.w3.org/2000/svg"><path d="m355.527344 248.882812v263.117188h-355.527344v-263.125l55.40625-116.445312h244.804688zm0 0" fill="#cae8f9"/><path d="m355.527344 248.882812v263.117188h-177.761719v-379.570312h122.445313zm0 0" fill="#b1dcff"/><path d="m218.847656 92.175781-28.160156-10.355469 30.089844-81.820312h86.003906v30.003906h-65.070312zm0 0" fill="#c8c6cd"/><path d="m355.527344 248.882812h-177.761719l-177.765625-.007812 55.40625-116.445312h244.804688zm0 0" fill="#82d2ff"/><path d="m257.933594 385.101562c0 38.335938-35.964844 69.519532-80.167969 69.519532-44.207031 0-80.171875-31.183594-80.171875-69.519532 0-38.324218 35.964844-69.507812 80.171875-69.507812 44.203125 0 80.167969 31.183594 80.167969 69.507812zm0 0" fill="#08b7fc"/><path d="m257.933594 385.101562c0 38.335938-35.964844 69.519532-80.167969 69.519532v-139.027344c44.203125 0 80.167969 31.183594 80.167969 69.507812zm0 0" fill="#006dff"/><path d="m355.527344 248.882812h-177.761719v-116.453124h122.445313zm0 0" fill="#08b7fc"/><path d="m49.867188 68.007812h255.792968v76.011719h-255.792968zm0 0" fill="#08b7fc"/><path d="m177.765625 68.007812h127.894531v76.011719h-127.894531zm0 0" fill="#006dff"/></svg>