<svg height="512pt" viewBox="0 0 512 512.1064" width="512pt" xmlns="http://www.w3.org/2000/svg"><path d="m384.078125 153.601562v115.285157l-8.53125 234.578125h-307.199219l-8.535156-24.746094v-325.117188zm0 0" fill="#4527a0"/><path d="m360.441406 153.601562v115.285157l-8.53125 234.578125h-283.5625l-8.535156-24.746094v-325.117188zm0 0" fill="#673ab7"/><path d="m401.144531 59.308594c.003907 4.425781-1.757812 8.675781-4.898437 11.800781-3.140625 3.121094-7.394532 4.863281-11.824219 4.835937h-.769531l-17.835938-.765624h-.082031l-152.320313-6.914063 17.066407-25.597656h154.027343c4.414063-.011719 8.652344 1.738281 11.773438 4.863281 3.125 3.121094 4.875 7.359375 4.863281 11.777344zm0 0" fill="#6a1b9a"/><path d="m377.507812 59.308594c-.007812 7.273437-4.742187 13.703125-11.691406 15.871094h-.082031l-152.320313-6.914063 17.066407-25.597656h130.386719c9.1875.011719 16.628906 7.453125 16.640624 16.640625zm0 0" fill="#9d27b0"/><path d="m51.28125 128h341.332031c4.710938 0 8.53125 3.820312 8.53125 8.535156v17.066406c0 4.710938-3.820312 8.53125-8.53125 8.53125h-341.332031c-4.714844 0-8.535156-3.820312-8.535156-8.53125v-17.066406c0-4.714844 3.820312-8.535156 8.535156-8.535156zm0 0" fill="#545c60"/><path d="m51.28125 128h317.695312c4.710938 0 8.53125 3.820312 8.53125 8.535156v17.066406c0 4.710938-3.820312 8.53125-8.53125 8.53125h-317.695312c-4.714844 0-8.535156-3.820312-8.535156-8.53125v-17.066406c0-4.714844 3.820312-8.535156 8.535156-8.535156zm0 0" fill="#7f8e94"/><path d="m145.144531 42.667969h85.335938l-7 69.964843c-.871094 8.722657-8.210938 15.367188-16.980469 15.367188h-37.375c-8.769531 0-16.109375-6.644531-16.980469-15.367188zm0 0" fill="#9d27b0"/><path d="m153.679688 42.667969s8.535156-34.132813 34.132812-34.132813c25.601562 0 34.132812 34.132813 34.132812 34.132813zm0 0" fill="#ffeb3a"/><path d="m59.8125 238.933594h324.265625v187.734375h-324.265625zm0 0" fill="#6a1b9a"/><path d="m59.8125 238.933594h300.628906v187.734375h-300.628906zm0 0" fill="#9d27b0"/><path d="m503.546875 389.546875v96.851563c-.027344 9.414062-7.652344 17.039062-17.066406 17.066406h-119.46875c-9.414063-.027344-17.039063-7.652344-17.066407-17.066406v-96.851563c0-1.878906.085938-3.667969.257813-5.546875.675781-7.371094 2.730469-14.550781 6.058594-21.164062l10.75-21.503907h119.46875l10.75 21.503907c4.164062 8.289062 6.324219 17.4375 6.316406 26.710937zm0 0" fill="#0377bc"/><path d="m479.910156 389.546875v96.851563c-.027344 9.414062-7.652344 17.039062-17.066406 17.066406h-95.832031c-9.414063-.027344-17.039063-7.652344-17.066407-17.066406v-96.851563c0-1.878906.085938-3.667969.257813-5.546875.675781-7.371094 2.730469-14.550781 6.058594-21.164062l10.75-21.503907h95.832031l10.75 21.503907c4.160156 8.289062 6.324219 17.4375 6.316406 26.710937zm0 0" fill="#02a9f4"/><path d="m358.480469 307.199219h136.53125c4.714843 0 8.535156 3.820312 8.535156 8.535156v17.066406c0 4.710938-3.820313 8.53125-8.535156 8.53125h-136.53125c-4.714844 0-8.535157-3.820312-8.535157-8.53125v-17.066406c0-4.714844 3.820313-8.535156 8.535157-8.535156zm0 0" fill="#545c60"/><path d="m358.480469 307.199219h112.894531c4.714844 0 8.535156 3.820312 8.535156 8.535156v17.066406c0 4.710938-3.820312 8.53125-8.535156 8.53125h-112.894531c-4.714844 0-8.535157-3.820312-8.535157-8.53125v-17.066406c0-4.714844 3.820313-8.535156 8.535157-8.535156zm0 0" fill="#7f8e94"/><path d="m469.414062 247.464844v34.136718h-85.335937v-34.136718c-.011719-5.109375 3.257813-9.652344 8.109375-11.261719 10.445312-3.460937 17.496094-13.230469 17.492188-24.234375v-7.167969c-.003907-4.625 1.910156-9.046875 5.289062-12.203125 3.113281-3.140625 7.359375-4.890625 11.777344-4.863281 9.398437.066406 17 7.667969 17.066406 17.066406v7.167969c-.003906 11.003906 7.046875 20.773438 17.492188 24.234375 4.851562 1.609375 8.121093 6.152344 8.109374 11.261719zm0 0" fill="#cfd8dc"/><path d="m445.777344 247.464844v34.136718h-61.699219v-34.136718c-.011719-5.109375 3.257813-9.652344 8.109375-11.261719 10.445312-3.460937 17.496094-13.230469 17.492188-24.234375v-7.167969c-.003907-4.625 1.910156-9.046875 5.289062-12.203125l.171875.171875c3.207031 3.183594 5.019531 7.511719 5.035156 12.03125v7.167969c-.039062 11.015625 7.027344 20.800781 17.492188 24.234375 4.832031 1.640625 8.085937 6.164063 8.109375 11.261719zm0 0" fill="#f5f5f5"/><path d="m298.746094 503.464844s-30.570313 4.453125-68.265625-42.664063c-18.28125-24.597656-46.257813-40.144531-76.800781-42.667969-30.542969 2.523438-58.519532 18.070313-76.800782 42.667969-37.695312 47.117188-68.265625 42.664063-68.265625 42.664063zm0 0" fill="#ffeb3a"/><path d="m486.480469 298.667969v8.53125h-119.46875v-8.53125c-.007813-6.792969 2.6875-13.308594 7.488281-18.113281 4.804688-4.804688 11.320312-7.496094 18.113281-7.488282h68.265625c6.792969-.007812 13.308594 2.683594 18.113282 7.488282 4.800781 4.804687 7.496093 11.320312 7.488281 18.113281zm0 0" fill="#cfd8dc"/><path d="m462.84375 298.667969v8.53125h-95.832031v-8.53125c-.007813-6.792969 2.6875-13.308594 7.488281-18.113281 4.804688-4.804688 11.320312-7.496094 18.113281-7.488282h44.628907c14.132812.011719 25.589843 11.464844 25.601562 25.601563zm0 0" fill="#f5f5f5"/><path d="m290.214844 332.800781c0 37.703125-30.566406 68.265625-68.269532 68.265625-37.703124 0-68.265624-30.5625-68.265624-68.265625s30.5625-68.265625 68.265624-68.265625c37.703126 0 68.269532 30.5625 68.269532 68.265625zm0 0" fill="#ffe0b2"/><path d="m384.078125 136.535156h-324.265625c-4.710938 0-8.53125-3.824218-8.53125-8.535156s3.820312-8.535156 8.53125-8.535156h324.265625c4.714844 0 8.535156 3.824218 8.535156 8.535156s-3.820312 8.535156-8.535156 8.535156zm0 0"/><path d="m59.8125 487.851562c-4.710938 0-8.53125-3.820312-8.53125-8.535156v-317.183594c0-4.710937 3.820312-8.53125 8.53125-8.53125 4.714844 0 8.535156 3.820313 8.535156 8.53125v317.183594c0 4.714844-3.820312 8.535156-8.535156 8.535156zm0 0"/><path d="m375.546875 512h-307.199219c-4.714844 0-8.535156-3.820312-8.535156-8.535156 0-4.710938 3.820312-8.53125 8.535156-8.53125h307.199219c4.710937 0 8.53125 3.820312 8.53125 8.53125 0 4.714844-3.820313 8.535156-8.53125 8.535156zm0 0"/><path d="m384.078125 283.136719c-4.710937 0-8.53125-3.820313-8.53125-8.535157v-112.46875c0-4.710937 3.820313-8.53125 8.53125-8.53125 4.714844 0 8.535156 3.820313 8.535156 8.53125v112.46875c0 4.714844-3.820312 8.535157-8.535156 8.535157zm0 0"/><path d="m392.613281 170.667969h-341.332031c-9.421875-.011719-17.058594-7.644531-17.066406-17.066407v-17.066406c.007812-9.421875 7.644531-17.058594 17.066406-17.070312h341.332031c9.421875.011718 17.058594 7.648437 17.066407 17.070312v17.066406c-.007813 9.421876-7.644532 17.054688-17.066407 17.066407zm-341.332031-34.132813v17.066406h341.34375l-.011719-17.066406zm0 0"/><path d="m206.5 136.535156h-37.375c-13.164062.035156-24.199219-9.949218-25.476562-23.050781l-6.992188-69.964844c-.242188-2.398437.546875-4.789062 2.164062-6.574219 1.617188-1.789062 3.914063-2.8125 6.324219-2.8125h85.335938c2.410156 0 4.707031 1.023438 6.328125 2.8125 1.617187 1.785157 2.402344 4.175782 2.164062 6.574219l-7 69.96875c-1.277344 13.097657-12.308594 23.078125-25.472656 23.046875zm-51.925781-85.335937 6.058593 60.585937c.429688 4.367188 4.105469 7.695313 8.492188 7.679688h37.378906c4.386719.015625 8.0625-3.3125 8.492188-7.679688l6.058594-60.585937zm0 0"/><path d="m221.9375 51.199219c-3.910156-.003907-7.320312-2.667969-8.269531-6.460938-.066407-.257812-7.289063-27.671875-25.855469-27.671875s-25.789062 27.414063-25.855469 27.691406c-1.148437 4.570313-5.789062 7.347657-10.359375 6.195313-4.570312-1.148437-7.34375-5.785156-6.195312-10.359375.414062-1.65625 10.515625-40.59375 42.410156-40.59375s41.996094 38.9375 42.410156 40.59375c.640625 2.550781.066406 5.253906-1.554687 7.328125-1.617188 2.070313-4.101563 3.28125-6.730469 3.277344zm0 0"/><path d="m384.488281 84.480469c-.414062 0-.824219-.011719-1.238281-.035157l-153.195312-7.65625c-4.628907-.335937-8.140626-4.308593-7.90625-8.941406.230468-4.632812 4.121093-8.230468 8.757812-8.101562l153.195312 7.65625c2.214844.085937 4.371094-.714844 5.996094-2.222656 2.402344-2.285157 3.171875-5.804688 1.9375-8.882813-1.230468-3.078125-4.210937-5.097656-7.527344-5.097656h-154.027343c-4.714844 0-8.535157-3.820313-8.535157-8.53125 0-4.714844 3.820313-8.535157 8.535157-8.535157h154.027343c13.902344.003907 25.167969 11.277344 25.164063 25.183594-.003906 13.902344-11.277344 25.167969-25.183594 25.164063zm0 0"/><path d="m120.058594 435.199219h-60.246094c-4.710938 0-8.53125-3.820313-8.53125-8.53125v-187.734375c0-4.714844 3.820312-8.535156 8.53125-8.535156h324.265625c4.714844 0 8.535156 3.820312 8.535156 8.535156v35.667968c0 4.714844-3.820312 8.535157-8.535156 8.535157-4.710937 0-8.53125-3.820313-8.53125-8.535157v-27.136718h-307.199219v170.667968h51.710938c4.710937 0 8.53125 3.820313 8.53125 8.535157 0 4.710937-3.820313 8.53125-8.53125 8.53125zm0 0"/><path d="m349.945312 435.199219h-162.644531c-4.710937 0-8.53125-3.820313-8.53125-8.53125 0-4.714844 3.820313-8.535157 8.53125-8.535157h162.644531c4.714844 0 8.535157 3.820313 8.535157 8.535157 0 4.710937-3.820313 8.53125-8.535157 8.53125zm0 0"/><path d="m221.945312 401.066406c-37.703124 0-68.265624-30.5625-68.265624-68.265625s30.5625-68.265625 68.265624-68.265625c37.703126 0 68.269532 30.5625 68.269532 68.265625-.046875 37.683594-30.582032 68.222657-68.269532 68.265625zm0-119.464844c-28.277343 0-51.199218 22.921876-51.199218 51.199219 0 28.277344 22.921875 51.199219 51.199218 51.199219 28.277344 0 51.199219-22.921875 51.199219-51.199219-.027343-28.265625-22.933593-51.167969-51.199219-51.199219zm0 0"/><path d="m221.953125 307.199219c-3.957031.003906-7.402344-2.714844-8.3125-6.566407-.914063-3.855468.945313-7.828124 4.488281-9.597656.625-.316406 2.675782-1.414062 2.847656-2.460937-.613281-3.625-2.390624-6.949219-5.0625-9.472657-3.234374-3.347656-3.1875-8.667968.101563-11.960937 3.292969-3.292969 8.617187-3.335937 11.964844-.105469 6.667969 6.265625 10.265625 15.132813 9.835937 24.273438-1.238281 6.707031-5.769531 12.34375-12.054687 14.992187-1.183594.589844-2.484375.898438-3.808594.898438zm0 0"/><path d="m162.214844 341.332031h-17.070313c-4.710937 0-8.53125-3.820312-8.53125-8.53125 0-4.714843 3.820313-8.535156 8.53125-8.535156h17.070313c4.710937 0 8.53125 3.820313 8.53125 8.535156 0 4.710938-3.820313 8.53125-8.53125 8.53125zm0 0"/><path d="m298.746094 341.332031h-17.066406c-4.710938 0-8.535157-3.820312-8.535157-8.53125 0-4.714843 3.824219-8.535156 8.535157-8.535156h17.066406c4.714844 0 8.535156 3.820313 8.535156 8.535156 0 4.710938-3.820312 8.53125-8.535156 8.53125zm0 0"/><path d="m486.480469 512h-119.46875c-14.128907-.015625-25.582031-11.46875-25.597657-25.601562v-96.832032c.011719-10.597656 2.476563-21.042968 7.203126-30.527344l10.761718-21.523437c1.445313-2.890625 4.402344-4.714844 7.632813-4.714844h119.46875c3.230469 0 6.1875 1.824219 7.632812 4.714844l10.761719 21.523437c4.726562 9.484376 7.191406 19.929688 7.203125 30.527344v96.832032c-.015625 14.132812-11.464844 25.585937-25.597656 25.601562zm-114.191407-162.132812-8.40625 16.804687c-3.542968 7.109375-5.394531 14.949219-5.402343 22.894531v96.832032c.003906 4.710937 3.820312 8.527343 8.53125 8.535156h119.46875c4.710937-.007813 8.527343-3.824219 8.53125-8.535156v-96.832032c-.007813-7.945312-1.859375-15.785156-5.402344-22.894531l-8.40625-16.804687zm0 0"/><path d="m495.011719 349.867188h-136.53125c-9.421875-.011719-17.058594-7.644532-17.066407-17.066407v-17.066406c.007813-9.421875 7.644532-17.058594 17.066407-17.066406h136.53125c9.421875.007812 17.058593 7.644531 17.066406 17.066406v17.066406c-.007813 9.421875-7.644531 17.054688-17.066406 17.066407zm-136.53125-34.132813v17.066406h136.546875l-.015625-17.066406zm0 0"/><path d="m486.480469 315.734375h-119.46875c-4.710938 0-8.53125-3.820313-8.53125-8.535156v-8.53125c.019531-18.84375 15.289062-34.113281 34.132812-34.132813h68.265625c18.84375.019532 34.113282 15.289063 34.132813 34.132813v8.53125c0 4.714843-3.820313 8.535156-8.53125 8.535156zm-110.933594-17.066406h102.398437c-.007812-9.421875-7.644531-17.058594-17.066406-17.066407h-68.265625c-9.421875.007813-17.058593 7.644532-17.066406 17.066407zm0 0"/><path d="m469.414062 281.601562h-85.335937c-4.710937 0-8.53125-3.820312-8.53125-8.535156v-25.601562c-.007813-8.769532 5.605469-16.558594 13.929687-19.328125 6.972657-2.3125 11.679688-8.839844 11.667969-16.1875v-7.148438c0-14.140625 11.464844-25.601562 25.601563-25.601562 14.140625 0 25.601562 11.460937 25.601562 25.601562v7.148438c-.007812 7.347656 4.691406 13.871093 11.664063 16.1875 8.328125 2.765625 13.945312 10.558593 13.933593 19.328125v25.601562c0 4.714844-3.820312 8.535156-8.53125 8.535156zm-76.800781-17.066406h68.265625v-17.070312c.003906-1.421875-.910156-2.6875-2.261718-3.136719-13.945313-4.632813-23.351563-17.683594-23.335938-32.378906v-7.148438c0-4.714843-3.820312-8.535156-8.535156-8.535156-4.710938 0-8.53125 3.820313-8.53125 8.535156v7.148438c.011718 14.699219-9.394532 27.75-23.34375 32.378906-1.351563.453125-2.257813 1.714844-2.257813 3.136719zm0 0"/><path d="m384.078125 401.066406h-34.132813c-4.710937 0-8.53125-3.820312-8.53125-8.53125 0-4.714844 3.820313-8.535156 8.53125-8.535156h34.132813c4.714844 0 8.535156 3.820312 8.535156 8.535156 0 4.710938-3.820312 8.53125-8.535156 8.53125zm0 0"/><path d="m401.144531 426.667969h-51.199219c-4.710937 0-8.53125-3.820313-8.53125-8.535157 0-4.710937 3.820313-8.53125 8.53125-8.53125h51.199219c4.714844 0 8.535157 3.820313 8.535157 8.53125 0 4.714844-3.820313 8.535157-8.535157 8.535157zm0 0"/><path d="m384.078125 452.265625h-34.132813c-4.710937 0-8.53125-3.820313-8.53125-8.53125 0-4.714844 3.820313-8.535156 8.53125-8.535156h34.132813c4.714844 0 8.535156 3.820312 8.535156 8.535156 0 4.710937-3.820312 8.53125-8.535156 8.53125zm0 0"/><path d="m401.144531 477.867188h-51.199219c-4.710937 0-8.53125-3.820313-8.53125-8.535157 0-4.710937 3.820313-8.53125 8.53125-8.53125h51.199219c4.714844 0 8.535157 3.820313 8.535157 8.53125 0 4.714844-3.820313 8.535157-8.535157 8.535157zm0 0"/><path d="m469.414062 477.867188c-4.714843 0-8.535156-3.820313-8.535156-8.535157v-8.53125c0-4.714843 3.820313-8.535156 8.535156-8.535156 4.710938 0 8.53125 3.820313 8.53125 8.535156v8.53125c0 4.714844-3.820312 8.535157-8.53125 8.535157zm0 0"/><path d="m469.414062 435.199219c-4.714843 0-8.535156-3.820313-8.535156-8.53125v-25.601563c0-4.710937 3.820313-8.53125 8.535156-8.53125 4.710938 0 8.53125 3.820313 8.53125 8.53125v25.601563c0 4.710937-3.820312 8.53125-8.53125 8.53125zm0 0"/><path d="m296.753906 512.089844c-.761718 0-1.65625-.023438-2.664062-.089844h-280.820313c-1.957031.167969-3.929687.136719-5.886719-.085938-4.4375-.632812-7.628906-4.589843-7.3085932-9.0625.3242192-4.472656 4.0546872-7.933593 8.5390622-7.917968h4.40625c8.035157-.75 30.425781-6.003906 57.199219-39.460938 19.84375-26.679687 50.300781-43.417968 83.460938-45.871094 33.160156 2.453126 63.617187 19.191407 83.460937 45.871094 26.894531 33.605469 49.367187 38.757813 57.378906 39.460938h4.226563c4.484375-.011719 8.214844 3.445312 8.535156 7.917968.324219 4.472657-2.867188 8.429688-7.304688 9.0625-1.070312.132813-2.144531.191407-3.222656.175782zm-242.40625-17.15625h198.664063c-10.933594-8.300782-20.75-17.980469-29.195313-28.804688-16.683594-22.550781-42.199218-36.910156-70.136718-39.460937-27.964844 2.464843-53.515626 16.839843-70.136719 39.460937-8.445313 10.824219-18.261719 20.503906-29.195313 28.804688zm0 0"/></svg>