<svg id="icons" enable-background="new 0 0 64 64" height="512" viewBox="0 0 64 64" width="512" xmlns="http://www.w3.org/2000/svg"><path d="m42.005 4h-20.01c-4.42 0-8 3.58-8 8s3.58 8 8 8h20.01c4.42 0 8-3.58 8-8s-3.58-8-8-8z" fill="#aab2bd"/><path d="m10.995 48c0 6.08 4.93 11 11 11h20.01c6.08 0 11-4.92 11-11v4c0 6.08-4.92 11-11 11h-20.01c-6.07 0-11-4.92-11-11z" fill="#e6e9ed"/><path d="m23.005 12c0 2.2 1.79 4 4 4h-5c-2.21 0-4-1.79-4-4s1.79-4 4-4h5c-2.21 0-4 1.79-4 4z" fill="#ccd1d9"/><path d="m10.995 12c0 6.08 4.93 11 11 11h20.01c6.08 0 11-4.92 11-11v4c0 6.08-4.92 11-11 11h-20.01c-6.07 0-11-4.92-11-11z" fill="#e6e9ed"/><path d="m10.995 12c0-6.08 4.93-11 11-11h20.01c6.08 0 11 4.92 11 11s-4.92 11-11 11h-20.01c-6.07 0-11-4.92-11-11zm3 0c0 4.42 3.58 8 8 8h20.01c4.42 0 8-3.58 8-8s-3.58-8-8-8h-20.01c-4.42 0-8 3.58-8 8z" fill="#ccd1d9"/><path d="m35.005 40.01c0 1.66-1.35 3-3 3-1.66 0-3-1.34-3-3 0-1.649 3-5 3-5s3 3.35 3 5z" fill="#e6e9ed"/><path d="m32.005 31.01c4.41 0 8 3.58 8 8s-3.59 8-8 8c-4.42 0-8-3.58-8-8s3.58-8 8-8zm0 12c1.65 0 3-1.34 3-3 0-1.649-3-5-3-5s-3 3.351-3 5c0 1.66 1.34 3 3 3z" fill="#4a89dc"/><path d="m53.005 16v32c0 6.08-4.92 11-11 11h-20.01c-6.07 0-11-4.92-11-11v-32c0 6.08 4.93 11 11 11h20.01c6.08 0 11-4.92 11-11zm-13 23.01c0-4.42-3.59-8-8-8-4.42 0-8 3.58-8 8s3.58 8 8 8c4.41 0 8-3.58 8-8z" fill="#5d9cec"/><path d="m21.995 24c-6.617 0-12-5.383-12-12s5.383-12 12-12c.553 0 1 .447 1 1s-.447 1-1 1c-5.514 0-10 4.486-10 10s4.486 10 10 10c.553 0 1 .447 1 1s-.447 1-1 1z"/><path d="m21.995 21c-4.963 0-9-4.037-9-9s4.037-9 9-9c.553 0 1 .447 1 1s-.447 1-1 1c-3.859 0-7 3.141-7 7s3.141 7 7 7c.553 0 1 .447 1 1s-.447 1-1 1z"/><path d="m42.005 24c-.553 0-1-.447-1-1s.447-1 1-1c5.514 0 10-4.486 10-10s-4.486-10-10-10c-.553 0-1-.447-1-1s.447-1 1-1c6.617 0 12 5.383 12 12s-5.383 12-12 12z"/><path d="m42.005 21c-.553 0-1-.447-1-1s.447-1 1-1c3.859 0 7-3.141 7-7s-3.141-7-7-7c-.553 0-1-.447-1-1s.447-1 1-1c4.963 0 9 4.037 9 9s-4.037 9-9 9z"/><path d="m42.005 24h-20.01c-.553 0-1-.447-1-1s.447-1 1-1h20.01c.553 0 1 .447 1 1s-.447 1-1 1z"/><path d="m21.995 28c-6.617 0-12-5.383-12-12 0-.553.447-1 1-1s1 .447 1 1c0 5.514 4.486 10 10 10 .553 0 1 .447 1 1s-.447 1-1 1z"/><path d="m42.005 28c-.553 0-1-.447-1-1s.447-1 1-1c5.514 0 10-4.486 10-10 0-.553.447-1 1-1s1 .447 1 1c0 6.617-5.383 12-12 12z"/><path d="m42.005 28h-20.01c-.553 0-1-.447-1-1s.447-1 1-1h20.01c.553 0 1 .447 1 1s-.447 1-1 1z"/><path d="m21.995 64c-6.617 0-12-5.383-12-12 0-.553.447-1 1-1s1 .447 1 1c0 5.514 4.486 10 10 10 .553 0 1 .447 1 1s-.447 1-1 1z"/><path d="m42.005 64c-.553 0-1-.447-1-1s.447-1 1-1c5.514 0 10-4.486 10-10 0-.553.447-1 1-1s1 .447 1 1c0 6.617-5.383 12-12 12z"/><path d="m42.005 64h-20.01c-.553 0-1-.447-1-1s.447-1 1-1h20.01c.553 0 1 .447 1 1s-.447 1-1 1z"/><path d="m21.995 59.999c-6.617 0-12-5.383-12-12 0-.553.447-1 1-1s1 .447 1 1c0 5.514 4.486 10 10 10 .553 0 1 .447 1 1s-.447 1-1 1z"/><path d="m42.005 59.999c-.553 0-1-.447-1-1s.447-1 1-1c5.514 0 10-4.486 10-10 0-.553.447-1 1-1s1 .447 1 1c0 6.617-5.383 12-12 12z"/><path d="m42.005 59.999h-20.01c-.553 0-1-.447-1-1s.447-1 1-1h20.01c.553 0 1 .447 1 1s-.447 1-1 1z"/><path d="m42.005 21h-20.01c-.553 0-1-.447-1-1s.447-1 1-1h20.01c.553 0 1 .447 1 1s-.447 1-1 1z"/><path d="m42.005 5h-20.01c-.553 0-1-.447-1-1s.447-1 1-1h20.01c.553 0 1 .447 1 1s-.447 1-1 1z"/><path d="m42.005 2h-20.01c-.553 0-1-.447-1-1s.447-1 1-1h20.01c.553 0 1 .447 1 1s-.447 1-1 1z"/><path d="m53.005 53c-.553 0-1-.447-1-1v-40c0-.553.447-1 1-1s1 .447 1 1v40c0 .553-.447 1-1 1z"/><path d="m10.995 53c-.553 0-1-.447-1-1v-40c0-.553.447-1 1-1s1 .447 1 1v40c0 .553-.447 1-1 1z"/><path d="m32 48.01c-4.963 0-9-4.037-9-9s4.037-9 9-9 9 4.037 9 9-4.037 9-9 9zm0-16c-3.859 0-7 3.141-7 7s3.141 7 7 7 7-3.141 7-7-3.141-7-7-7z"/><path d="m32 44.011c-2.206 0-4-1.794-4-4 0-1.939 2.712-5.063 3.256-5.67.379-.422 1.109-.422 1.488 0 .544.606 3.256 3.73 3.256 5.67 0 2.206-1.794 4-4 4zm0-7.453c-1.061 1.327-2 2.816-2 3.453 0 1.103.897 2 2 2s2-.897 2-2c0-.637-.939-2.126-2-3.453z"/><path d="m40 52.003h-16c-.553 0-1-.447-1-1s.447-1 1-1h16c.553 0 1 .447 1 1s-.447 1-1 1z"/><path d="m35.996 55.003h-7.992c-.553 0-1-.447-1-1s.447-1 1-1h7.992c.553 0 1 .447 1 1s-.447 1-1 1z"/><path d="m22.004 16.995c-2.757 0-4.999-2.241-4.999-4.996 0-2.757 2.242-5 4.999-5 .553 0 1 .447 1 1s-.447 1-1 1c-1.653 0-2.999 1.346-2.999 3 0 1.652 1.346 2.996 2.999 2.996.553 0 1 .447 1 1s-.447 1-1 1z"/><path d="m28.006 16.997c-.553 0-1-.447-1-1s.447-1 1-1c1.654 0 3-1.346 3-3 0-1.653-1.346-2.998-3-2.998-.553 0-1-.447-1-1s.447-1 1-1c2.757 0 5 2.242 5 4.998 0 2.757-2.243 5-5 5z"/><path d="m27.006 16.995c-2.757 0-5-2.242-5-4.998 0-2.757 2.243-5 5-5 .553 0 1 .447 1 1s-.447 1-1 1c-1.654 0-3 1.346-3 3 0 1.653 1.346 2.998 3 2.998.553 0 1 .447 1 1s-.447 1-1 1z"/><path d="m28.006 9.001h-6.002c-.553 0-1-.447-1-1s.447-1 1-1h6.002c.553 0 1 .447 1 1s-.447 1-1 1z"/><path d="m28.006 17h-6.002c-.553 0-1-.447-1-1s.447-1 1-1h6.002c.553 0 1 .447 1 1s-.447 1-1 1z"/></svg>