<svg height="512pt" viewBox="-26 0 512 512" width="512pt" xmlns="http://www.w3.org/2000/svg"><path d="m430 10c-16.316406 0-381.46875 0-400 0-11.050781 0-20 8.949219-20 20v452c0 11.050781 8.949219 20 20 20h400c11.050781 0 20-8.949219 20-20v-452c0-11.050781-8.949219-20-20-20zm0 0" fill="#ff712f"/><path d="m30 10c-11.050781 0-20 8.949219-20 20v292h280v-312zm0 0" fill="#f2fde0"/><path d="m330 70h80v66h-80zm0 0" fill="#f2fde0"/><path d="m210 226h40v96h-40zm0 0" fill="#b9dd39"/><path d="m210 70h40v96h-40zm0 0" fill="#00d7df"/><path d="m80 382h150v60h-150zm0 0" fill="#f2fde0"/><path d="m130 226h40v96h-40zm0 0" fill="#00d7df"/><path d="m130 70h40v96h-40zm0 0" fill="#b9dd39"/><path d="m50 226h40v96h-40zm0 0" fill="#b9dd39"/><path d="m50 70h40v96h-40zm0 0" fill="#00d7df"/><path d="m420.5 176.710938c0 5.523437-4.476562 10-10 10s-10-4.476563-10-10c0-5.523438 4.476562-10 10-10s10 4.476562 10 10zm0 0"/><path d="m420.5 216.710938c0 5.523437-4.476562 10-10 10s-10-4.476563-10-10c0-5.523438 4.476562-10 10-10s10 4.476562 10 10zm0 0"/><path d="m420.5 256.710938c0 5.523437-4.476562 10-10 10s-10-4.476563-10-10c0-5.523438 4.476562-10 10-10s10 4.476562 10 10zm0 0"/><path d="m380.5 176.710938c0 5.523437-4.476562 10-10 10s-10-4.476563-10-10c0-5.523438 4.476562-10 10-10s10 4.476562 10 10zm0 0"/><path d="m380.5 216.710938c0 5.523437-4.476562 10-10 10s-10-4.476563-10-10c0-5.523438 4.476562-10 10-10s10 4.476562 10 10zm0 0"/><path d="m380.5 256.710938c0 5.523437-4.476562 10-10 10s-10-4.476563-10-10c0-5.523438 4.476562-10 10-10s10 4.476562 10 10zm0 0"/><path d="m340.5 176.710938c0 5.523437-4.476562 10-10 10s-10-4.476563-10-10c0-5.523438 4.476562-10 10-10s10 4.476562 10 10zm0 0"/><path d="m340.5 216.710938c0 5.523437-4.476562 10-10 10s-10-4.476563-10-10c0-5.523438 4.476562-10 10-10s10 4.476562 10 10zm0 0"/><path d="m340.5 256.710938c0 5.523437-4.476562 10-10 10s-10-4.476563-10-10c0-5.523438 4.476562-10 10-10s10 4.476562 10 10zm0 0"/><path d="m410 60h-80c-5.523438 0-10 4.476562-10 10v66c0 5.523438 4.476562 10 10 10h80c5.523438 0 10-4.476562 10-10v-66c0-5.523438-4.476562-10-10-10zm-10 66h-60v-46h60zm0 0"/><path d="m330 332h80c5.523438 0 10-4.476562 10-10s-4.476562-10-10-10h-80c-5.523438 0-10 4.476562-10 10s4.476562 10 10 10zm0 0"/><path d="m240 382c0-5.523438-4.476562-10-10-10h-150c-5.523438 0-10 4.476562-10 10v60c0 5.523438 4.476562 10 10 10h150c5.523438 0 10-4.476562 10-10zm-20 50h-130v-40h130zm0 0"/><path d="m240 502c0 5.523438-4.476562 10-10 10s-10-4.476562-10-10 4.476562-10 10-10 10 4.476562 10 10zm0 0"/><path d="m265 502c0 5.523438 4.476562 10 10 10h155c16.542969 0 30-13.457031 30-30v-452c0-16.542969-13.457031-30-30-30h-400c-16.542969 0-30 13.457031-30 30v452c0 16.542969 13.457031 30 30 30h155c5.523438 0 10-4.476562 10-10s-4.476562-10-10-10h-155c-5.515625 0-10-4.484375-10-10v-150h270c5.523438 0 10-4.476562 10-10v-302h130c5.515625 0 10 4.484375 10 10v452c0 5.515625-4.484375 10-10 10h-155c-5.523438 0-10 4.476562-10 10zm-185-190h-20v-76h20zm80 0h-20v-76h20zm80 0h-20v-76h20zm20 0v-86c0-5.523438-4.476562-10-10-10h-40c-5.523438 0-10 4.476562-10 10v86h-20v-86c0-5.523438-4.476562-10-10-10h-40c-5.523438 0-10 4.476562-10 10v86h-20v-86c0-5.523438-4.476562-10-10-10h-40c-5.523438 0-10 4.476562-10 10v86h-20v-136h260v136zm-180-156h-20v-76h20zm80 0h-20v-76h20zm80 0h-20v-76h20zm40 0h-20v-86c0-5.523438-4.476562-10-10-10h-40c-5.523438 0-10 4.476562-10 10v86h-20v-86c0-5.523438-4.476562-10-10-10h-40c-5.523438 0-10 4.476562-10 10v86h-20v-86c0-5.523438-4.476562-10-10-10h-40c-5.523438 0-10 4.476562-10 10v86h-20v-126c0-5.515625 4.484375-10 10-10h250zm0 0"/></svg>