<?xml version="1.0" encoding="iso-8859-1"?>
<!-- Generator: Adobe Illustrator 19.0.0, SVG Export Plug-In . SVG Version: 6.00 Build 0)  -->
<svg version="1.1" id="Capa_1" xmlns="http://www.w3.org/2000/svg"  x="0px" y="0px"
	 viewBox="0 0 511.999 511.999" style="enable-background:new 0 0 511.999 511.999;" xml:space="preserve">
<path style="fill:#717171;" d="M353.333,35.637V5.38c0-3.885-3.994-6.486-7.548-4.916l-79.569,35.173v21.735h80.396L353.333,35.637z
	"/>
<path style="fill:#E3E3E3;" d="M130.851,490.501V57.136c0-11.874,9.625-21.498,21.498-21.498h212.354
	c11.874,0,21.498,9.625,21.498,21.498v433.366c0,11.874-9.625,21.498-21.498,21.498H152.35
	C140.477,511.999,130.851,502.375,130.851,490.501z"/>
<rect x="130.849" y="124.034" style="fill:#65CDEF;" width="255.346" height="299.558"/>
<circle style="fill:#FFFFFF;" cx="258.528" cy="267.858" r="88.086"/>
<path style="fill:#FFC433;" d="M313.596,257.27l-65.051,77.332c-2.344,2.787-6.79,0.158-5.476-3.24l16.032-41.434l-55.644-0.001
	l65.86-88.058c2.183-2.919,6.774-0.542,5.65,2.926l-17.018,52.474L313.596,257.27z"/>
<path style="fill:#E3E3E3;" d="M130.851,490.501c0,11.874,9.625,21.498,21.498,21.498h212.354c11.874,0,21.498-9.625,21.498-21.498
	v-7.357H130.851V490.501z"/>
<path style="fill:#3A9CB4;" d="M286.42,394.156h-55.785c-4.452,0-8.062-3.61-8.062-8.062s3.61-8.062,8.062-8.062h55.785
	c4.452,0,8.062,3.61,8.062,8.062S290.872,394.156,286.42,394.156z"/>
<g>
	<path style="fill:#F23466;" d="M96.421,269.326H42.05c-4.452,0-8.062-3.61-8.062-8.062s3.61-8.062,8.062-8.062h54.37
		c4.452,0,8.062,3.61,8.062,8.062S100.873,269.326,96.421,269.326z"/>
	<path style="fill:#F23466;" d="M94.569,233.807c-1.561,0-3.139-0.453-4.526-1.396l-17.618-11.983
		c-3.682-2.505-4.636-7.518-2.132-11.2c2.503-3.681,7.518-4.636,11.2-2.132l17.618,11.983c3.682,2.505,4.636,7.518,2.132,11.2
		C99.682,232.572,97.147,233.807,94.569,233.807z"/>
	<path style="fill:#F23466;" d="M76.966,316.832c-2.58,0-5.113-1.234-6.673-3.528c-2.505-3.682-1.55-8.696,2.132-11.2l17.618-11.983
		c3.683-2.505,8.696-1.55,11.2,2.132c2.505,3.682,1.55,8.696-2.132,11.2l-17.618,11.983
		C80.104,316.38,78.527,316.832,76.966,316.832z"/>
	<path style="fill:#F23466;" d="M469.949,269.326h-54.37c-4.452,0-8.062-3.61-8.062-8.062s3.61-8.062,8.062-8.062h54.37
		c4.452,0,8.062,3.61,8.062,8.062S474.401,269.326,469.949,269.326z"/>
	<path style="fill:#F23466;" d="M435.035,316.832c-1.561,0-3.139-0.453-4.526-1.396l-17.618-11.983
		c-3.682-2.505-4.636-7.518-2.132-11.2c2.505-3.681,7.518-4.636,11.2-2.132l17.618,11.983c3.682,2.505,4.636,7.518,2.132,11.2
		C440.148,315.597,437.613,316.832,435.035,316.832z"/>
	<path style="fill:#F23466;" d="M417.431,233.807c-2.58,0-5.113-1.234-6.673-3.528c-2.505-3.682-1.55-8.696,2.132-11.2
		l17.618-11.983c3.683-2.506,8.696-1.55,11.2,2.132c2.505,3.682,1.55,8.696-2.132,11.2l-17.618,11.983
		C420.569,233.354,418.992,233.807,417.431,233.807z"/>
</g>
<g>
	<rect x="130.849" y="67.354" style="fill:#3A9CB4;" width="255.346" height="56.689"/>
	<rect x="130.849" y="423.592" style="fill:#3A9CB4;" width="255.346" height="56.689"/>
</g>
<g style="opacity:0.1;">
	<path d="M384.513,48.767c-0.544-1.286-1.209-2.508-1.982-3.651c-3.863-5.719-10.406-9.479-17.826-9.479h-9.747v0.469v56.689
		v299.558V451.9v6.888c0,11.874-9.625,21.498-21.498,21.498H130.851v10.215c0,11.874,9.625,21.498,21.498,21.498h212.354
		c11.874,0,21.498-9.625,21.498-21.498v-7.357v-59.548V124.038V67.35V57.136C386.203,54.168,385.601,51.34,384.513,48.767z"/>
</g>
<g>
</g>
<g>
</g>
<g>
</g>
<g>
</g>
<g>
</g>
<g>
</g>
<g>
</g>
<g>
</g>
<g>
</g>
<g>
</g>
<g>
</g>
<g>
</g>
<g>
</g>
<g>
</g>
<g>
</g>
</svg>
