<svg id="Capa_1" enable-background="new 0 0 512 512" height="512" viewBox="0 0 512 512" width="512" xmlns="http://www.w3.org/2000/svg"><path d="m223.1 95.467c10.549 0 20.562.578 30.074 1.678.659-2.476 1.021-5.073 1.021-7.756 0-16.64-13.489-30.129-30.13-30.129-16.64 0-30.13 13.489-30.13 30.129 0 2.612.342 5.143.969 7.559 8.954-.963 18.336-1.481 28.196-1.481z" fill="#ffe2cb"/><path d="m224.065 59.26c-3.157 0-6.199.488-9.058 1.388 12.214 3.845 21.072 15.258 21.072 28.742 0 2.19-.252 4.317-.699 6.373 6.111.271 12.055.72 17.794 1.383.659-2.476 1.021-5.073 1.021-7.756 0-16.641-13.49-30.13-30.13-30.13z" fill="#efc89d"/><path d="m455.876 152.719c-28.602-13.559-61.105-7.878-87.499 1.93h.108c7.426 8.423 13.967 17.475 19.727 26.965 17.162-5.253 37.363-7.884 53.971-.01 21.94 10.401 34.854 47.005 28.785 81.596-2.701 15.403-11.879 44.521-42.893 65.297.74 13.193.883 25.488.702 36.372 12.079-5.941 22.953-13.217 32.553-21.826 21.805-19.555 36.026-45.255 41.125-74.32 8.671-49.433-11.353-99.304-46.579-116.004z" fill="#dbe0ea"/><path d="m55.67 412.128h334.861v40.612h-334.861z" fill="#dbe0ea"/><path d="m372.415 412.128h18.116v40.612h-18.116z" fill="#d2d5dd"/><path d="m77.715 154.649h290.769c-30.853-34.996-76.931-59.182-145.385-59.182-68.453 0-114.531 24.186-145.384 59.182z" fill="#ff2b4e"/><path d="m223.1 95.467c-3.069 0-6.078.066-9.058.162 63.482 2.046 106.857 25.593 136.327 59.02h18.116c-30.853-34.996-76.931-59.182-145.385-59.182z" fill="#ff002d"/><path d="m368.485 154.649h-360.937s2.31 29.03 32.409 64.003c-23.243 60.291-23.878 127.743-21.875 164.946.862 16.008 14.117 28.53 30.148 28.53h349.74c16.042 0 29.288-12.535 30.15-28.554 2.77-51.456.489-160.727-59.635-228.925z" fill="#eaeff9"/><path d="m174.904 210.974h98.323v130.896h-98.323z" fill="#ffe2cb"/><path d="m255.111 210.974h18.116v130.896h-18.116z" fill="#efc89d"/><path d="m288.42 210.974h-128.71c-8.338 0-15.097-6.759-15.097-15.097v-41.228h158.903v41.228c.001 8.338-6.758 15.097-15.096 15.097z" fill="#ffa549"/><path d="m285.401 154.649v41.228c0 8.338-6.759 15.097-15.096 15.097h18.116c8.338 0 15.096-6.759 15.096-15.097v-41.228z" fill="#ff9200"/><path d="m446.798 354.391c-.084-12.119-.629-25.608-1.891-39.935-4.74 4.913-10.296 9.664-16.832 14.042.74 13.193.883 25.489.702 36.372 6.345-3.121 12.35-6.621 18.021-10.479z" fill="#d2d5dd"/><path d="m388.474 148.472c-6.962 1.676-13.709 3.804-20.097 6.177h.108c7.426 8.423 13.967 17.475 19.727 26.965 6.036-1.848 12.448-3.368 18.947-4.224-5.483-10.072-11.677-19.774-18.685-28.918z" fill="#d2d5dd"/><path d="m368.485 154.649h-18.116c60.124 68.198 62.405 177.468 59.635 228.925-.862 16.018-14.108 28.554-30.15 28.554h18.116c16.042 0 29.288-12.535 30.15-28.554 2.77-51.456.489-160.727-59.635-228.925z" fill="#dbe0ea"/><path d="m18.082 383.598c.862 16.008 14.117 28.53 30.148 28.53h349.74c16.041 0 29.288-12.535 30.15-28.554 1.609-29.886 1.51-79.274-10.632-128.791h-388.765c-12.145 49.53-12.25 98.931-10.641 128.815z" fill="#eb966d"/><path d="m417.488 254.784h-18.116c12.142 49.517 12.24 98.905 10.632 128.791-.862 16.018-14.108 28.554-30.149 28.554h18.116c16.041 0 29.288-12.535 30.15-28.554 1.608-29.887 1.509-79.275-10.633-128.791z" fill="#e8834d"/><path d="m174.904 254.784h98.323v87.086h-98.323z" fill="#d56723"/><path d="m255.111 254.784h18.116v87.087h-18.116z" fill="#b6591e"/><path d="m459.109 145.899c-24.72-11.718-54.455-11.734-88.441-.075-28.095-30.096-64.627-48.555-108.967-55.15.015-.428.042-.855.042-1.283 0-20.776-16.902-37.678-37.678-37.678-20.775 0-37.677 16.902-37.677 37.678 0 .336.023.672.032 1.008-45.827 6.43-83.4 25.422-112.049 56.703h-66.823c-4.339 0-7.869 3.818-7.525 8.147.099 1.245 2.695 29.993 31.315 64.88-22.423 61.136-22.691 128.621-20.793 163.875 1.075 19.967 17.571 35.613 37.577 35.67v33.067c0 4.169 3.38 7.548 7.548 7.548h334.861c4.169 0 7.548-3.379 7.548-7.548v-33.067c20.007-.057 36.503-15.713 37.579-35.693.239-4.438.438-9.278.569-14.448 11.072-5.847 21.199-12.848 30.142-20.869 23.077-20.696 38.126-47.887 43.52-78.636 9.238-52.663-12.592-106.027-50.78-124.129zm-29.797 128.131c-6.127-33.465-16.057-62.78-29.642-87.645 15.763-3.524 28.953-2.856 39.279 2.04 18.753 8.89 30.011 42.537 24.584 73.472-2.16 12.318-8.777 33.959-28.928 52-1.104-12.813-2.796-26.229-5.293-39.867zm-21.589-26.795h-126.948v-28.713h7.645c12.487 0 22.645-10.159 22.645-22.645v-33.68h53.967c18.899 22.317 33.198 50.825 42.691 85.038zm-225.271 15.097h83.227v71.991h-83.227zm0-15.097v-28.713h83.227v28.713zm41.613-180.427c12.288 0 22.308 9.868 22.569 22.096-7.633-.655-15.479-.984-23.534-.984-7.38 0-14.575.288-21.6.838.337-12.16 10.326-21.95 22.565-21.95zm-.965 36.208c52.543 0 95.299 14.822 127.386 44.085h-100.788c-4.169 0-7.548 3.379-7.548 7.548s3.38 7.548 7.548 7.548h46.27v33.68c0 4.162-3.386 7.548-7.548 7.548h-128.71c-4.162 0-7.548-3.386-7.548-7.548v-33.68h67.343c4.169 0 7.548-3.379 7.548-7.548s-3.38-7.548-7.548-7.548h-123.791c32.087-29.263 74.843-44.085 127.386-44.085zm197.483 280.153c-.646 12.007-10.578 21.411-22.612 21.411h-47.601c-4.169 0-7.548 3.379-7.548 7.548s3.379 7.548 7.548 7.548h32.613v25.516h-319.765v-25.516h256.958c4.169 0 7.548-3.379 7.548-7.548s-3.379-7.548-7.548-7.548h-271.946c-12.033 0-21.965-9.395-22.61-21.388-1.454-27.01-1.604-73.548 9.09-120.861h43.006c4.169 0 7.548-3.379 7.548-7.548s-3.38-7.548-7.548-7.548h-39.209c2.414-8.702 5.215-17.365 8.493-25.868 1-2.596.492-5.531-1.322-7.64-18.722-21.753-26.092-41.1-28.92-51.531h120.307v33.68c0 12.486 10.158 22.645 22.645 22.645h7.645v28.713h-59.447c-4.169 0-7.548 3.379-7.548 7.548s3.38 7.548 7.548 7.548h59.447v79.539c0 4.169 3.38 7.548 7.548 7.548h98.323c4.169 0 7.548-3.379 7.548-7.548v-79.539h130.737c1.066 4.711 2.052 9.513 2.95 14.417 7.569 41.339 7.507 80.689 6.122 106.422zm74.436-115.749c-4.803 27.383-18.196 51.591-38.729 70.005-6.048 5.424-12.722 10.326-19.91 14.674-.051-6.301-.223-12.933-.55-19.818 30.478-22.109 39.758-51.727 42.573-67.776 6.728-38.353-7.761-77.763-32.986-89.721-14.53-6.89-32.616-7.534-53.81-1.968-3.273-5.072-6.717-9.931-10.337-14.567 27.705-8.467 51.678-8.045 71.373 1.292 32.264 15.294 50.482 61.672 42.376 107.879z"/></svg>