<svg enable-background="new 0 0 110 110" height="512" viewBox="0 0 110 110" width="512" xmlns="http://www.w3.org/2000/svg"><path d="m60.239296 42.4848175-9.4211426-7.0737305c-.8950806-.6723633-1.9841309-1.0356445-3.1034546-1.0356445h-17.9329834c-1.1193237 0-2.208374.3632812-3.1034546 1.0356445l-9.4210815 7.0737305c-1.3001099.9765625-2.0651245 2.5073242-2.0651245 4.1333008v44.3330078c0 2.8544922 2.3140259 5.168457 5.1685791 5.168457h36.7752075c2.8544922 0 5.1685181-2.3139648 5.1685181-5.168457v-44.3330078c-.0000001-1.6259766-.7649537-3.1567383-2.0650635-4.1333008z" fill="#ededed"/><path d="m20.3604507 94.1200714c-1.7470703 0-3.168457-1.421875-3.168457-3.1689453v-44.3330078c0-.9912109.4731445-1.9384766 1.2661133-2.5341797l9.4208984-7.0732422c.5454102-.4091797 1.2211914-.6347656 1.902832-.6347656h17.9331055c.6816406 0 1.3569336.2255859 1.9023438.6347656l9.4213867 7.0742188c.7924805.5947266 1.265625 1.5419922 1.265625 2.5332031v44.3330078c0 1.7470703-1.4213867 3.1689453-3.168457 3.1689453z" fill="#dbd8dd"/><path d="m17.1919937 60.504837v30.4462891c0 1.7470703 1.4213867 3.1689453 3.168457 3.1689453h36.7753906c1.7470703 0 3.168457-1.421875 3.168457-3.1689453v-30.4462891z" fill="#a09155"/><path d="m20.6670532 60.504837v28.2476044c0 1.4654236 1.1922455 2.6580811 2.657671 2.6580811h30.8468418c1.4654274 0 2.6576729-1.1926575 2.6576729-2.6580811v-28.2476044z" fill="#ab985e"/><path d="m92.2579575 54.0109825h-17.2600098c-1.4199829 0-2.5599976 1.1401367-2.5599976 2.5600586v19.8896523c0 1.4101562 1.1400146 2.5600586 2.5599976 2.5600586h17.2600098c1.4100342 0 2.5499878-1.1499023 2.5499878-2.5600586v-19.8896523c0-1.4199219-1.1399537-2.5600586-2.5499878-2.5600586zm-8.6300049 5.6298828c-.9699707 0-1.7600098-.7797852-1.7600098-1.75 0-.9697266.7900391-1.7597656 1.7600098-1.7597656.9700317 0 1.75.7900391 1.75 1.7597656 0 .9702149-.7799683 1.75-1.75 1.75z" fill="#feda6f"/><path d="m84.8443146 72.7808533s2.1938324-9.7943687-9.6296387-10.8563576c0 0 .6390762 10.3848457 9.6296387 10.8563576z" fill="#4abba4"/><path d="m84.8443146 72.7808533s-1.9259338-6.5201645-8.3927994-9.6255379c0 0 5.772728 4.4925499 8.3927994 9.6255379z" fill="#41a38e"/><path d="m84.7686996 72.7808533s-1.6550446-7.3889313 7.2646561-8.1901016c0-.0000001-.4821243 7.8343887-7.2646561 8.1901016z" fill="#4abba4"/><path d="m84.7686996 72.7808533s1.4529343-4.9188461 6.3315735-7.2615662c0 0-4.3549728 3.3892136-6.3315735 7.2615662z" fill="#41a38e"/><path d="m58.8081284 18.9743614c-.1674805.1445312-.331543.2949219-.4926758.4492188l-1.7475586 1.6777344c-1.2519531 1.2011719-1.9213867 2.8193359-1.8847656 4.5546875.0361328 1.734375.7724609 3.3222656 2.0732422 4.4697266l1.1845703 1.0458984c2.465332 2.1748047 6.1860352 2.0283203 8.4711914-.3339844 1.4638672-1.5136719 2.0458984-3.640625 1.5566406-5.6894531s-1.9697266-3.6835938-3.9604492-4.3730469zm25.7899169 39.3549805c-.7817078.4321289-1.4477921.3549805-1.9501953-.4433594l3.0792236-19.8051758c1.4692383-6.4746094-1.1323242-13.0664062-6.6269531-16.7939453l-4.7509766-3.2226562c-4.0834961-2.7675772-9.3720703-2.8740225-13.5292969-.5097656l3.8427734 1.3300781c2.6396484.9140625 4.6025391 3.0820312 5.2514648 5.7988281s-.1230469 5.5371094-2.0644531 7.5449219c-3.0302734 3.1328125-7.9643555 3.3291016-11.2319336.4433594l-1.1850586-1.0458984c-1.699707-1.5-2.7016602-3.6611328-2.7495117-5.9277344-.0473633-2.2675781.8637695-4.46875 2.5-6.0400391l1.4838867-1.4248047-4.9985352-1.7294922c-2.7817383-.9628897-5.7514648-.5361319-8.1489258 1.1708984-2.3969727 1.7070312-3.7714844 4.3740234-3.7714844 7.3164062v14.9272346h-2v-14.9272345c0-3.5976562 1.6806641-6.8583984 4.6118164-8.9453125 2.9311523-2.08496 6.5625-2.6074209 9.9628906-1.4326162l6.1030273 2.1132803c4.9692383-3.6328115 11.8496094-3.8408194 17.0458984-.3173828l4.7514648 3.2236328c6.1806641 4.1923828 9.1069336 11.6074219 7.4541016 18.8916016z" fill="#344d5b"/></svg>