<?xml version="1.0" encoding="iso-8859-1"?>
<!-- Generator: Adobe Illustrator 19.0.0, SVG Export Plug-In . SVG Version: 6.00 Build 0)  -->
<svg version="1.1" id="Layer_1" xmlns="http://www.w3.org/2000/svg"  x="0px" y="0px"
	 viewBox="0 0 512 512" style="enable-background:new 0 0 512 512;" xml:space="preserve">
<g>
	<path style="fill:#B3404A;" d="M270.779,470.251H136.112C61.058,470.251,0,409.192,0,334.14V109.697
		c0-37.466,30.482-67.948,67.948-67.948h270.994c37.466,0,67.948,30.482,67.948,67.948V334.14
		C406.889,409.192,345.831,470.251,270.779,470.251z M67.948,71.24c-21.206,0-38.456,17.251-38.456,38.456V334.14
		c0,58.791,47.83,106.621,106.621,106.621h134.667c58.791,0,106.621-47.83,106.621-106.621V109.697
		c0-21.206-17.251-38.456-38.456-38.456C338.943,71.24,67.948,71.24,67.948,71.24z"/>
	<path style="fill:#B3404A;" d="M455.031,322.786c-4.825,0-9.554-2.365-12.379-6.711c-4.438-6.829-2.499-15.962,4.328-20.401
		c22.248-14.46,35.529-38.785,35.529-65.071c0-42.755-34.783-77.538-77.538-77.538h-12.826c-8.143,0-14.746-6.603-14.746-14.746
		s6.603-14.746,14.746-14.746h12.826C463.986,123.575,512,171.59,512,230.604c0,36.307-18.298,69.876-48.946,89.798
		C460.57,322.017,457.783,322.786,455.031,322.786z"/>
	<rect x="110.017" y="56.49" style="fill:#B3404A;" width="29.491" height="81.543"/>
</g>
<path style="fill:#F4B2B0;" d="M76.329,236.398l-0.114-53.243c-0.01-5.164,2.457-10.018,6.634-13.054l32.456-23.581
	c5.64-4.098,13.278-4.098,18.919,0l32.456,23.581c4.177,3.035,6.644,7.89,6.634,13.054l-0.114,53.243
	c-0.019,8.874-7.218,16.058-16.093,16.058H92.421C83.547,252.456,76.347,245.272,76.329,236.398z"/>
<path style="fill:#B3404A;" d="M157.108,267.201H92.421c-16.968,0-30.802-13.803-30.837-30.771l-0.114-53.243
	c-0.022-9.863,4.729-19.215,12.709-25.014l32.459-23.581c5.304-3.853,11.572-5.889,18.127-5.889s12.823,2.036,18.127,5.889
	l32.458,23.581c7.982,5.799,12.733,15.15,12.711,25.016l-0.114,53.242C187.91,253.398,174.076,267.201,157.108,267.201z
	 M124.764,158.192c-0.29,0-0.557,0.087-0.792,0.257L91.514,182.03c-0.348,0.254-0.556,0.661-0.554,1.091l0.114,53.245
	c0.001,0.742,0.606,1.343,1.346,1.343h64.687c0.74,0,1.345-0.602,1.346-1.343l0.114-53.243c0.001-0.432-0.206-0.839-0.556-1.093
	l-32.456-23.581C125.321,158.279,125.056,158.192,124.764,158.192z"/>
<path style="fill:#F4B2B0;" d="M14.746,322.89v11.251c0,67.029,54.337,121.366,121.366,121.366h134.667
	c67.029,0,121.366-54.337,121.366-121.366V322.89H14.746z"/>
<path style="fill:#B3404A;" d="M270.779,470.251H136.113C61.06,470.251,0,409.192,0,334.14V322.89
	c0-8.143,6.603-14.746,14.746-14.746h377.398c8.142,0,14.746,6.603,14.746,14.746v11.251
	C406.889,409.192,345.831,470.251,270.779,470.251z M29.547,337.635c1.852,57.179,48.943,103.126,106.566,103.126h134.665
	c57.621,0,104.713-45.946,106.565-103.126L29.547,337.635L29.547,337.635z"/>
<g>
</g>
<g>
</g>
<g>
</g>
<g>
</g>
<g>
</g>
<g>
</g>
<g>
</g>
<g>
</g>
<g>
</g>
<g>
</g>
<g>
</g>
<g>
</g>
<g>
</g>
<g>
</g>
<g>
</g>
</svg>
