<svg id="Capa_1" enable-background="new 0 0 512 512" height="512" viewBox="0 0 512 512" width="512" xmlns="http://www.w3.org/2000/svg"><path d="m485.426 124.73c-25.378-25.378-66.671-25.38-92.05 0l-45.05 45.05 20.605 20.605 45.05-45.05c14.016-14.016 36.823-14.016 50.84 0 6.79 6.79 10.529 15.818 10.529 25.419 0 9.603-3.739 18.63-10.529 25.42l-45.05 45.051 20.605 20.605 45.05-45.05c12.295-12.294 19.065-28.639 19.065-46.026 0-17.385-6.77-33.73-19.065-46.024z" fill="#97e4f9"/><path d="m485.426 124.73c-14.909-14.909-35.31-21.048-54.751-18.439 13.652 1.832 26.831 7.97 37.3 18.439 12.295 12.294 19.065 28.639 19.065 46.025 0 17.387-6.77 33.732-19.065 46.026l-36.324 36.325 8.726 8.726 45.05-45.05c12.295-12.294 19.065-28.639 19.065-46.026-.001-17.387-6.771-33.732-19.066-46.026z" fill="#62d8f9"/><path d="m389.142 167.681 12.596-47.756c4.254-16.129-7.91-31.918-24.59-31.918h-192.362c-24.408 0-44.194 19.786-44.194 44.194 0 2.405 1.942 4.358 4.346 4.373l28.101.171c15.492.094 29.877 8.045 38.199 21.111l2.634 4.136c8.665 13.606 2.22 31.622-13.034 36.87-40.407 13.902-66.434 42.044-66.434 97.044 0 94.231 76.389 128.085 170.62 128.085s170.62-33.854 170.62-128.085c0-56.669-27.627-84.829-70.147-98.276-12.564-3.972-19.716-17.207-16.355-29.949z" fill="#97e4f9"/><path d="m405.497 197.632c-12.564-3.973-19.716-17.208-16.356-29.95l12.596-47.756c4.254-16.129-7.91-31.918-24.59-31.918h-43.435c16.681 0 28.845 15.789 24.591 31.918l-12.596 47.756c-3.361 12.742 3.791 25.977 16.356 29.95 42.52 13.446 70.147 41.607 70.147 98.276 0 86.874-64.927 122.431-148.903 127.453 7.112.425 14.36.632 21.717.632 94.231 0 170.62-33.854 170.62-128.085 0-56.67-27.627-84.83-70.147-98.276z" fill="#62d8f9"/><path d="m134.403 295.907c0 94.231 76.389 128.085 170.62 128.085s170.62-33.854 170.62-128.085c0-1.925-.038-3.81-.101-5.67h-341.036c-.063 1.861-.103 3.745-.103 5.67z" fill="#fce25c"/><path d="m92.793 414.347c-4.148 0-7.509-3.362-7.509-7.51v-32.583c0-4.147 3.362-7.509 7.509-7.509 4.148 0 7.509 3.362 7.509 7.509v32.583c.001 4.148-3.361 7.51-7.509 7.51z" fill="#1dd0b0"/><path d="m109.001 337.074c0 20.535-7.256 37.181-16.208 37.181s-16.208-16.647-16.208-37.181c0-20.535 7.256-42.174 16.208-42.174s16.208 21.639 16.208 42.174z" fill="#1dd08d"/><path d="m92.793 294.9c-.634 0-1.258.12-1.873.329 3.656 8.208 5.993 20.209 5.993 31.86 0 19.76-6.72 35.912-15.203 37.103 2.899 6.237 6.795 10.063 11.083 10.063 8.951 0 16.208-16.647 16.208-37.181 0-20.535-7.257-42.174-16.208-42.174z" fill="#04b49c"/><path d="m133.426 347.299c-16.781 0-31.483 9.757-39.677 19.361-8.194-9.603-22.897-19.361-39.677-19.361-25.715 0-46.562 22.913-46.562 33.075s20.846 2.259 46.562 2.259c16.781 0 31.483 3.363 39.677 2.877 8.194.485 22.897-2.877 39.677-2.877 25.715 0 46.562 7.903 46.562-2.259-.001-10.162-20.847-33.075-46.562-33.075z" fill="#1dd08d"/><path d="m133.426 347.299c-3.149 0-6.223.348-9.197.969 21.31 4.455 37.365 23.188 37.365 32.105 0 2.079-.886 3.393-2.495 4.182 12.584 1.449 20.888 2.229 20.888-4.182 0-10.161-20.846-33.074-46.561-33.074z" fill="#04b49c"/><path d="m266.073 383.733v-53.236c0-7.736 6.271-14.008 14.008-14.008h53.236c7.736 0 14.008 6.271 14.008 14.008v53.236c0 7.736-6.271 14.008-14.008 14.008h-53.236c-7.736-.001-14.008-6.272-14.008-14.008z" fill="#dcf5ff"/><path d="m333.299 316.489h-31.039c7.746 0 14.025 6.279 14.025 14.025v53.2c0 7.746-6.279 14.025-14.025 14.025h31.039c7.746 0 14.025-6.279 14.025-14.025v-53.2c0-7.745-6.279-14.025-14.025-14.025z" fill="#c7eefb"/><path d="m348.437 348.427-37.643-37.643c-5.47-5.47-5.47-14.339 0-19.81l37.643-37.643c5.47-5.47 14.339-5.47 19.81 0l37.643 37.643c5.47 5.47 5.47 14.339 0 19.81l-37.643 37.643c-5.47 5.471-14.339 5.471-19.81 0z" fill="#00bef7"/><path d="m405.878 290.962-24.426-24.426c5.477 5.477 5.477 14.358 0 19.835l-37.618 37.618c-5.477 5.477-14.358 5.477-19.835 0l24.426 24.426c5.477 5.477 14.358 5.477 19.835 0l37.618-37.618c5.477-5.478 5.477-14.358 0-19.835z" fill="#09a6ee"/><path d="m475.543 290.238h-43.435c.063 1.86.101 3.745.101 5.67 0 86.874-64.927 122.431-148.903 127.453 7.112.425 14.36.632 21.717.632 94.231 0 170.62-33.854 170.62-128.085.001-1.926-.037-3.811-.1-5.67z" fill="#fcdd2e"/><path d="m310.807 290.962c-5.477 5.477-5.477 14.358 0 19.835l37.618 37.618c5.477 5.477 14.358 5.477 19.835 0l37.618-37.618c5.477-5.477 5.477-14.358 0-19.835l-.724-.724h-93.623z" fill="#97e4f9"/><path d="m343.834 323.989c-5.477 5.477-14.358 5.477-19.835 0l24.426 24.426c5.477 5.477 14.358 5.477 19.835 0l37.618-37.618c5.477-5.477 5.477-14.358 0-19.835l-.724-.724h-27.569z" fill="#62d8f9"/><path d="m512 170.755c0-19.393-7.552-37.624-21.263-51.334-21.839-21.839-54.574-27.19-81.775-14.591-1.114-4.101-3.03-8.003-5.72-11.495-6.285-8.158-15.796-12.837-26.095-12.837h-117.924c-4.148 0-7.51 3.362-7.51 7.509s3.362 7.509 7.51 7.509h117.924c5.603 0 10.777 2.546 14.197 6.984 2.982 3.87 4.23 8.664 3.553 13.421-.008.042-.012.083-.019.125-.098.656-.231 1.311-.402 1.963l-12.596 47.756c-4.406 16.704 4.973 33.846 21.352 39.025 40.082 12.675 60.778 37.603 64.342 77.937h-59.309l-34.696-34.695c-8.395-8.396-22.057-8.394-30.455 0l-34.694 34.695h-165.928c1.245-13.863 4.512-26.012 9.772-36.226 1.9-3.687.45-8.215-3.237-10.115-3.687-1.898-8.215-.45-10.114 3.237-7.976 15.483-12.019 34.419-12.019 56.283 0 15.85 2.113 30.559 6.276 43.89-5.923.03-11.578 1.085-16.831 2.847.109-1.833.171-3.69.171-5.571 0-20.63-7.358-49.683-23.717-49.683s-23.717 29.053-23.717 49.683c0 1.676.053 3.332.14 4.972-4.775-1.416-9.85-2.256-15.145-2.256-17.675 0-31.221 9.059-37.723 14.459-7.903 6.567-16.348 16.877-16.348 26.127 0 4.63 2.114 7.486 3.888 9.067 5.47 4.874 13.821 3.91 26.46 2.449 7.092-.819 15.13-1.748 23.723-1.748 8.591 0 16.627.928 23.718 1.746 2.656.307 5.153.591 7.494.805v14.144c0 4.147 3.362 7.51 7.509 7.51 4.148 0 7.509-3.362 7.509-7.51v-13.984c2.871-.216 6.011-.573 9.404-.965 7.091-.818 15.128-1.746 23.718-1.746 8.592 0 16.63.928 23.722 1.748 4.336.501 8.16.939 11.543 1.108 30.279 25.193 77.337 38.504 136.332 38.504 52.489 0 94.466-10.072 124.764-29.935 35.411-23.215 53.366-58.764 53.366-105.659 0-21.368-3.754-39.629-11.307-54.928l18.889-18.889c13.716-13.711 21.268-31.943 21.268-51.336zm-116.164 3.346 23.454-23.456c11.091-11.087 29.134-11.089 40.221 0 5.372 5.372 8.33 12.513 8.33 20.109 0 7.597-2.958 14.739-8.33 20.11l-16.547 16.547c-9.883-6.995-21.595-12.638-35.202-16.94-7.259-2.295-11.915-9.025-11.926-16.37zm-42.102 84.553c2.541-2.541 6.675-2.54 9.215 0l24.075 24.075h-27.598c-4.148 0-7.509 3.362-7.509 7.509s3.362 7.509 7.509 7.509h42.244c1.355 2.474.991 5.647-1.102 7.739l-37.618 37.618c-2.541 2.541-6.675 2.539-9.215 0l-37.619-37.619c-1.23-1.231-1.909-2.866-1.909-4.607 0-1.113.281-2.183.803-3.132h9.781c4.148 0 7.509-3.362 7.509-7.509 0-2.752-1.484-5.151-3.691-6.458zm-40.345 65.345 26.425 26.426v33.291c0 3.593-2.923 6.516-6.516 6.516h-53.2c-3.593 0-6.516-2.923-6.516-6.516v-53.201c0-3.593 2.923-6.516 6.516-6.516zm-229.294 13.075c0-17.25 5.392-31.345 8.698-34.335 3.307 2.991 8.699 17.086 8.699 34.335 0 4.777-.462 9.503-1.304 13.791-2.318 1.618-4.478 3.33-6.439 5.089-2.563-2.299-5.459-4.519-8.621-6.549-.673-3.907-1.033-8.034-1.033-12.331zm49.331 38.049c-9.455 0-18.319 1.023-25.44 1.846-5.719.66-10.65 1.23-13.793 1.045-.295-.018-.593-.018-.888 0-3.136.182-8.074-.385-13.793-1.045-7.121-.822-15.985-1.846-25.44-1.846-9.457 0-18.323 1.024-25.447 1.847-4.478.518-9.742 1.134-12.985 1.097 3.212-7.313 18.575-23.258 38.432-23.258 14.536 0 27.381 9.01 33.965 16.725 1.427 1.672 3.514 2.635 5.712 2.635s4.286-.963 5.712-2.635c6.584-7.715 19.429-16.725 33.965-16.725 19.857 0 35.22 15.945 38.432 23.258-3.241.035-8.509-.58-12.986-1.097-7.123-.822-15.989-1.847-25.446-1.847zm288.128 13.883c-27.811 18.232-67.016 27.477-116.53 27.477-50.747 0-91.69-10.143-119.378-29.432 1.039-1.625 1.851-3.809 1.851-6.677 0-12.242-16.206-30.885-37.447-37.836-5.203-13.172-7.93-28.221-8.118-44.791h157.508c-.149 1.03-.251 2.072-.251 3.132 0 2.824.547 5.561 1.577 8.101h-20.668c-11.874 0-21.535 9.66-21.535 21.535v53.201c0 11.874 9.661 21.535 21.535 21.535h53.2c11.874 0 21.535-9.66 21.535-21.535v-24c1.162.191 2.334.306 3.508.306 5.515 0 11.03-2.099 15.228-6.297l37.619-37.618c4.995-4.996 6.994-11.853 6.045-18.359h50.879c-.459 40.594-16.109 71.296-46.558 91.258zm42.279-161.254c-2.787-3.797-5.877-7.362-9.275-10.695l15.573-15.573c8.208-8.208 12.728-19.121 12.728-30.73 0-11.608-4.52-22.521-12.729-30.729-16.943-16.945-44.515-16.943-61.461 0l-6.068 6.069 6.393-24.24c22.612-14.094 52.082-10.852 71.122 8.187 10.875 10.874 16.864 25.333 16.864 40.714 0 15.382-5.989 29.841-16.865 40.716z"/><path d="m144.891 144.084 28.102.171c12.999.079 24.928 6.672 31.91 17.636l2.633 4.137c2.856 4.484 3.491 9.931 1.74 14.942-1.78 5.092-5.746 9.026-10.881 10.792-13.496 4.643-25.185 10.761-34.745 18.185-3.276 2.544-3.868 7.262-1.325 10.537 1.48 1.906 3.697 2.904 5.936 2.904 1.609 0 3.232-.515 4.602-1.579 8.253-6.409 18.487-11.74 30.417-15.845 9.515-3.273 16.867-10.577 20.174-20.04 3.279-9.383 2.094-19.576-3.249-27.964l-2.633-4.136c-9.735-15.285-26.365-24.477-44.487-24.587l-24.854-.151c1.587-18.775 17.375-33.568 36.554-33.568h40.059c4.148 0 7.509-3.362 7.509-7.509s-3.362-7.509-7.509-7.509h-40.059c-28.51 0-51.704 23.194-51.704 51.704 0 6.51 5.298 11.84 11.81 11.88z"/></svg>