<svg height="416pt" viewBox="-43 0 416 416.098" width="416pt" xmlns="http://www.w3.org/2000/svg"><path d="m82.789062 370.101562v-205.054687c0-22.09375 6.484376-40 14.488282-40h.570312v-46.085937h-50.21875v46.082031h-1.578125c-22.089843 0-40 17.910156-40 40v205.054687c0 22.089844 17.910157 40 40 40h51.226563c-8.003906.003906-14.488282-17.90625-14.488282-39.996094zm0 0" fill="#89aadb"/><path d="m275.0625 172.808594h-28.382812v-7.761719c0-22.09375-17.910157-40-40-40h-1.578126v-46.085937h-50.21875v46.082031h.570313c8 0 14.488281 17.910156 14.488281 40v205.054687c0 22.089844-6.488281 40-14.488281 40h51.226563c22.089843 0 40-17.910156 40-40v-7.761718h28.382812c26.953125 0 48.882812-21.648438 48.882812-48.25v-93.027344c0-26.605469-21.929687-48.25-48.882812-48.25zm17.570312 141.277344c0 9.335937-7.882812 16.9375-17.570312 16.9375h-28.386719v-126.902344h28.386719c9.6875 0 17.570312 7.597656 17.570312 16.9375zm0 0" fill="#4b67b0"/><path d="m169.941406 370.101562v-205.054687c0-22.09375-6.488281-40-14.488281-40h-.570313v-46.085937h-57.035156v46.082031h-.570312c-8 0-14.488282 17.910156-14.488282 40v205.054687c0 22.089844 6.484376 40 14.488282 40h58.175781c8 .003906 14.488281-17.90625 14.488281-39.996094zm0 0" fill="#6287c5"/><path d="m159.265625 167.578125h-25.402344l-30.976562-125.617187c-1.839844-8.101563-9.042969-13.839844-17.363281-13.839844h-32.058594v-22.121094h36.480468c17.339844 0 32.398438 11.898438 36.417969 28.78125zm0 0" fill="#65bc49"/><path d="m159.265625 173.582031h-25.402344c-2.757812 0-5.164062-1.882812-5.824219-4.5625l-30.980468-125.621093c-1.253906-5.507813-5.984375-9.277344-11.535156-9.277344h-32.058594c-3.316406 0-6-2.6875-6-6v-22.121094c0-3.3125 2.683594-6 6-6h36.476562c20.203125 0 37.574219 13.730469 42.257813 33.386719l32.886719 132.75c.445312 1.792969.042968 3.6875-1.097657 5.140625-1.136719 1.453125-2.878906 2.304687-4.722656 2.304687zm-20.703125-12h13.035156l-31.058594-125.359375c-3.398437-14.28125-15.976562-24.21875-30.59375-24.21875h-30.480468v10.117188h26.058594c11.191406 0 20.734374 7.613281 23.210937 18.511718zm0 0" fill="#1c2d6b"/><path d="m82.171875 370.101562v-202.515624h-76.121094v202.515624c0 22.089844 17.90625 40 40 40h50.746094c-8.078125 0-14.625-17.910156-14.625-40zm0 0" fill="#ffeca7"/><path d="m169.941406 167.585938v209.300781c-1.179687 18.851562-7.171875 33.210937-14.402344 33.210937h51.140626c19.773437 0 36.152343-14.363281 39.382812-33.210937v-209.300781zm0 0" fill="#d3ba2a"/><path d="m169.941406 376.886719v-209.300781h-87.769531v202.515624c0 22.089844 6.550781 40 14.628906 40h58.738281c7.230469 0 13.21875-14.363281 14.402344-33.214843zm0 0" fill="#eee045"/><path d="m206.679688 416.097656h-160.628907c-25.367187 0-45.9999998-20.632812-45.9999998-46v-202.511718c0-3.3125 2.6835938-6 5.9999998-6h240.011719c3.3125 0 6 2.6875 6 6v209.300781c0 .339843-.03125.675781-.085938 1.011719-3.792968 22.132812-22.839843 38.199218-45.296874 38.199218zm-194.628907-242.511718v196.515624c0 18.746094 15.25 34 34 34h160.628907c16.425781 0 30.386718-11.636718 33.378906-27.746093v-202.769531zm0 0" fill="#1c2d6b"/><path d="m206.679688 416.097656h-160.628907c-25.367187 0-45.9999998-20.632812-45.9999998-46v-205.050781c0-25.367187 20.6328128-46 45.9999998-46h160.628907c25.367187 0 46 20.632813 46 46v205.050781c0 25.367188-20.632813 46-46 46zm-160.628907-285.050781c-18.75 0-34 15.25-34 34v205.050781c0 18.75 15.25 34 34 34h160.628907c18.746093 0 34-15.25 34-34v-205.050781c0-18.75-15.253907-34-34-34zm0 0" fill="#1c2d6b"/><path d="m205.101562 131.046875h-157.472656c-3.316406 0-6-2.6875-6-6v-46.085937c0-3.316407 2.683594-6 6-6h157.46875c3.316406 0 6 2.683593 6 6v46.085937c.003906 3.3125-2.683594 6-5.996094 6zm-151.472656-12h145.46875v-34.085937h-145.46875zm0 0" fill="#1c2d6b"/><path d="m216.363281 108.003906h-180c-3.3125 0-6-2.6875-6-6s2.6875-6 6-6h180c3.316407 0 6 2.6875 6 6s-2.683593 6-6 6zm0 0" fill="#1c2d6b"/><path d="m226.472656 319.671875c0 33.953125-27.523437 61.472656-61.476562 61.472656-33.949219 0-61.472656-27.519531-61.472656-61.472656 0-33.949219 27.523437-61.472656 61.472656-61.472656 33.953125 0 61.476562 27.523437 61.476562 61.472656zm0 0" fill="#e95947"/><path d="m164.996094 387.144531c-37.207032 0-67.472656-30.269531-67.472656-67.472656s30.269531-67.472656 67.472656-67.472656 67.472656 30.269531 67.472656 67.472656-30.265625 67.472656-67.472656 67.472656zm0-122.945312c-30.585938 0-55.472656 24.882812-55.472656 55.472656 0 30.585937 24.886718 55.472656 55.472656 55.472656 30.589844 0 55.472656-24.886719 55.472656-55.472656 0-30.589844-24.882812-55.472656-55.472656-55.472656zm0 0" fill="#1c2d6b"/><path d="m202.472656 319.671875c0 20.695313-16.78125 37.472656-37.476562 37.472656-20.695313 0-37.472656-16.777343-37.472656-37.472656s16.777343-37.472656 37.472656-37.472656c20.695312 0 37.476562 16.777343 37.476562 37.472656zm0 0" fill="#eee045"/><g fill="#1c2d6b"><path d="m164.996094 363.144531c-23.96875 0-43.472656-19.5-43.472656-43.472656 0-23.96875 19.503906-43.472656 43.472656-43.472656 23.972656 0 43.472656 19.503906 43.472656 43.472656 0 23.972656-19.5 43.472656-43.472656 43.472656zm0-74.945312c-17.351563 0-31.472656 14.117187-31.472656 31.472656s14.121093 31.472656 31.472656 31.472656c17.351562 0 31.472656-14.121093 31.472656-31.472656 0-17.355469-14.117188-31.472656-31.472656-31.472656zm0 0"/><path d="m164.636719 346.527344c-3.3125 0-6-2.6875-6-6v-4.257813c0-3.316406 2.6875-6 6-6s6 2.683594 6 6v4.257813c0 3.316406-2.683594 6-6 6zm0 0"/><path d="m164.636719 309.074219c-3.3125 0-6-2.683594-6-6v-4.257813c0-3.3125 2.6875-6 6-6s6 2.6875 6 6v4.257813c0 3.316406-2.683594 6-6 6zm0 0"/><path d="m148.039062 325.671875h-4.257812c-3.3125 0-6-2.6875-6-6s2.6875-6 6-6h4.257812c3.316407 0 6 2.6875 6 6s-2.683593 6-6 6zm0 0"/><path d="m185.492188 325.671875h-4.257813c-3.316406 0-6-2.6875-6-6s2.683594-6 6-6h4.257813c3.3125 0 6 2.6875 6 6s-2.6875 6-6 6zm0 0"/></g><path d="m105.96875 256.296875h-19.171875c-27.097656 0-49.0625-21.964844-49.0625-49.0625v-19.171875h19.167969c27.097656 0 49.066406 21.96875 49.066406 49.066406zm0 0" fill="#65bc49"/><path d="m105.96875 262.296875h-19.171875c-30.363281 0-55.0625-24.699219-55.0625-55.0625v-19.171875c0-3.3125 2.683594-6 6-6h19.167969c30.363281 0 55.066406 24.703125 55.066406 55.066406v19.167969c0 3.316406-2.6875 6-6 6zm-62.234375-68.234375v13.171875c0 23.746094 19.316406 43.0625 43.0625 43.0625h13.171875v-13.167969c0-23.746094-19.320312-43.066406-43.066406-43.066406zm0 0" fill="#1c2d6b"/><path d="m33.488281 192.304688 8.484375-8.484376 68.234375 68.234376-8.484375 8.484374zm0 0" fill="#1c2d6b"/><path d="m82.34375 238.675781h-37.507812v-12h31.507812v-31.511719h12v37.511719c0 3.316407-2.683594 6-6 6zm0 0" fill="#1c2d6b"/><path d="m275.0625 368.335938h-28.382812c-3.3125 0-6-2.6875-6-6v-31.3125c0-3.3125 2.6875-6 6-6h28.382812c6.378906 0 11.570312-4.90625 11.570312-10.9375v-93.027344c0-6.03125-5.191406-10.9375-11.570312-10.9375h-28.382812c-3.3125 0-6-2.683594-6-6v-31.3125c0-3.3125 2.6875-6 6-6h28.382812c30.261719 0 54.878906 24.335937 54.878906 54.25v93.027344c.003906 29.910156-24.617187 54.25-54.878906 54.25zm-22.382812-12h22.382812c23.644531 0 42.878906-18.957032 42.878906-42.25v-93.027344c0-23.292969-19.234375-42.25-42.878906-42.25h-22.382812v19.3125h22.382812c12.996094 0 23.570312 10.289062 23.570312 22.9375v93.027344c0 12.644531-10.574218 22.9375-23.570312 22.9375h-22.382812zm0 0" fill="#1c2d6b"/></svg>