<svg id="Capa_1" enable-background="new 0 0 512 512" height="512" viewBox="0 0 512 512" width="512" xmlns="http://www.w3.org/2000/svg"><path id="XMLID_1830_" d="m367.857 462h-311.3c-25.713 0-46.557-20.844-46.557-46.556v-1.444h404.413v1.444c0 25.712-20.844 46.556-46.556 46.556z" fill="#dff6fc"/><path id="XMLID_1783_" d="m384.203 280.375h9.797c35.29 0 64-28.71 64-64s-28.71-64-64-64v-44c59.647 0 108 48.353 108 108 0 59.647-48.353 108-108 108h-24.712z" fill="#dff6fc"/><path id="XMLID_1779_" d="m311.135 414c53.225-57.224 82.813-132.477 82.813-210.627v-153.373h-360v153.457c0 78.1 29.549 153.308 82.713 210.52l.021.023z" fill="#e2f1a1"/><path id="XMLID_1314_" d="m33.947 50h357.188v48.063h-357.188z" fill="#dff6fc"/><path id="XMLID_1671_" d="m325.072 252.375h-54.375c-7.076 0-12.813-5.736-12.813-12.813v-54.375c0-7.076 5.736-12.813 12.813-12.813h54.375c7.076 0 12.813 5.736 12.813 12.813v54.375c0 7.077-5.736 12.813-12.813 12.813z" fill="#fff"/><path id="XMLID_1726_" d="m131.28 414c-66.979 0-121.276-54.297-121.276-121.276 66.979 0 121.276 54.297 121.276 121.276z" fill="#cbe558"/><path id="XMLID_1725_" d="m131.3 414c-58.006-33.49-77.88-107.661-44.39-165.666 58.006 33.489 77.88 107.66 44.39 165.666z" fill="#d8ec84"/><path id="XMLID_658_" d="m394 334.375c65.065 0 118-52.935 118-118 0-61.715-47.625-112.508-108.053-117.577v-48.798c0-5.522-4.477-10-10-10h-360c-5.523 0-10 4.478-10 10v153.457c0 27.615 3.568 54.981 10.607 81.591-8.061-1.531-16.28-2.324-24.551-2.324-5.523 0-10 4.478-10 10 0 46.851 24.675 88.041 61.708 111.276h-51.711c-5.523 0-10 4.478-10 10v1.443c0 31.186 25.371 56.557 56.556 56.557h110.651c5.523 0 10-4.478 10-10s-4.477-10-10-10h-110.651c-17.212 0-31.684-11.956-35.545-28h110.249c.01 0 .02.002.031.002s.02-.002.03-.002h179.813 92.267c-3.861 16.044-18.333 28-35.545 28h-110.65c-5.523 0-10 4.478-10 10s4.477 10 10 10h110.65c31.185 0 56.556-25.371 56.556-56.557v-1.443c0-5.522-4.477-10-10-10h-81.374c17.344-21.439 31.707-44.839 42.865-69.625zm98-118c0 54.037-43.962 98-98 98h-9.905c2.923-7.887 5.529-15.893 7.819-24h2.086c40.804 0 74-33.196 74-74 0-37.429-27.939-68.436-64.053-73.312v-24.186c49.384 5 88.053 46.818 88.053 97.498zm-88.053-53.066c25.038 4.684 44.053 26.69 44.053 53.066 0 28.802-22.666 52.406-51.098 53.92 4.654-21.805 7.045-44.217 7.045-66.922zm-20-75.246h-76.687v-28.063h76.688v28.063zm-96.687-28.063v28.063h-243.313v-28.063zm-266.766 243.218c14.056 1.327 27.741 5.312 40.266 11.735.445 9.356 1.893 18.732 4.375 27.996 5.602 20.909 16.029 39.693 30.328 55.135-40.662-13.861-70.813-50.641-74.969-94.866zm106.964 96.458c-21.114-14.954-36.224-36.599-43.004-61.903-2.506-9.353-3.769-18.842-3.829-28.275.02-.363.023-.726.003-1.087.054-15.719 3.458-31.265 10.118-45.75 43.417 30.813 58.906 88.62 36.712 137.015zm19.94 4.324c25.132-59.997 2.298-130.964-55.489-164.327-2.296-1.326-5.025-1.687-7.588-.999-2.562.687-4.746 2.362-6.072 4.659-9.014 15.612-14.615 32.549-16.706 49.924-1.439-.614-2.887-1.204-4.346-1.765-8.789-28.544-13.25-58.134-13.25-88.035v-95.395h243.313v54.313h-16.563c-12.579 0-22.813 10.233-22.813 22.813v54.375c0 12.579 10.234 22.813 22.813 22.813h54.375c12.579 0 22.813-10.233 22.813-22.813v-54.375c0-12.579-10.234-22.813-22.813-22.813h-17.812v-54.313h76.688v95.311c0 25.111-3.13 49.836-9.174 73.699-.194.555-.339 1.131-.434 1.726-3.614 13.918-8.238 27.531-13.81 40.753-.328.594-.598 1.224-.801 1.884-12.87 29.966-30.672 57.869-52.992 82.564h-159.339zm177.674-221.625c1.551 0 2.813 1.262 2.813 2.813v54.375c0 1.551-1.262 2.813-2.813 2.813h-54.375c-1.551 0-2.813-1.262-2.813-2.813v-54.375c0-1.551 1.262-2.813 2.813-2.813z"/><path id="XMLID_1939_" d="m212.21 452c-2.63 0-5.21 1.069-7.08 2.93-1.86 1.86-2.92 4.44-2.92 7.07s1.06 5.21 2.92 7.069c1.87 1.86 4.45 2.931 7.08 2.931s5.21-1.07 7.07-2.931c1.86-1.859 2.93-4.439 2.93-7.069s-1.07-5.21-2.93-7.07-4.44-2.93-7.07-2.93z"/></svg>