<svg height="512pt" viewBox="0 0 512 512" width="512pt" xmlns="http://www.w3.org/2000/svg"><path d="m466 181h-30c-2.605469 0-5.171875.675781-7.425781 1.964844l-45.308594 25.839844 29.441406 120.613281c42.132813-21.0625 68.292969-63.398438 68.292969-110.492188v-22.925781c0-8.289062-6.710938-15-15-15zm0 0" fill="#32393f"/><path d="m421 316c0 41.398438-33.601562 75-75 75 0 .898438-44.097656 30-90 30s-90-29.101562-90-30c-41.398438 0-75-33.601562-75-75 0-90 31.199219-131.101562 60-195l45-30h120l45 30c28.800781 63.898438 60 105 60 195zm0 0" fill="#575f64"/><path d="m421 316c0 41.398438-33.601562 75-75 75 0 .898438-44.097656 30-90 30v-330h60l45 30c28.800781 63.898438 60 105 60 195zm0 0" fill="#32393f"/><path d="m361 121c0 69.898438-49.5 120-105 120s-105-50.398438-105-120l17.402344-15 12.898437 15c0 52.5 33.300781 87.898438 73.5 88.5h1.199219c39.902344.296875 74.699219-34.800781 74.699219-88.5l18.902343-15zm0 0" fill="#f2f2fc"/><path d="m361 121c0 69.898438-49.5 120-105 120v-31.5c39.902344.296875 74.699219-34.800781 74.699219-88.5l18.902343-15zm0 0" fill="#d8d8fc"/><path d="m256 0c-24.902344 0-45 21.097656-45 46s20.097656 45 45 45 45-20.097656 45-45-20.097656-46-45-46zm0 0" fill="#575f64"/><path d="m196 391-22.5 30-22.5-30-30-20.625 30-24.375c0-41.421875 33.578125-75 75-75h30c8.285156 0 15 6.714844 15 15v30c0 41.421875-33.578125 75-75 75zm0 0" fill="#00ab94"/><path d="m151 391-23.75 30-21.25-30c-57.988281 0-106-47.011719-106-105v-30c0-8.285156 6.714844-15 15-15h31c57.988281 0 105 47.011719 105 105zm0 0" fill="#7fe881"/><path d="m106 512h-30c-8.285156 0-15-6.714844-15-15v-76h60v76c0 8.285156-6.714844 15-15 15zm0 0" fill="#7c8388"/><path d="m436 512h-30c-8.285156 0-15-6.714844-15-15v-76h60v76c0 8.285156-6.714844 15-15 15zm0 0" fill="#575f64"/><path d="m497 391h-482c-8.402344 0-15 6.597656-15 15v30c0 8.402344 6.597656 15 15 15h482c8.402344 0 15-6.597656 15-15v-30c0-8.402344-6.597656-15-15-15zm0 0" fill="#ffd396"/><path d="m512 406v30c0 8.402344-6.597656 15-15 15h-241v-60h241c8.402344 0 15 6.597656 15 15zm0 0" fill="#ffb64c"/><path d="m301 46c0 24.902344-20.097656 45-45 45v-91c24.902344 0 45 21.097656 45 46zm0 0" fill="#32393f"/><path d="m361 121h-210c3.300781-4.800781 17.402344-60 75-60h60c57.597656 0 70.199219 52.5 75 60zm0 0" fill="#7c8388"/><path d="m361 121h-105v-60h30c57.597656 0 70.199219 52.5 75 60zm0 0" fill="#575f64"/></svg>