<?xml version="1.0" encoding="iso-8859-1"?>
<!-- Generator: Adobe Illustrator 19.0.0, SVG Export Plug-In . SVG Version: 6.00 Build 0)  -->
<svg version="1.1" id="Capa_1" xmlns="http://www.w3.org/2000/svg"  x="0px" y="0px"
	 viewBox="0 0 512 512" style="enable-background:new 0 0 512 512;" xml:space="preserve">
<rect x="176.83" y="138.03" style="fill:#C8FEFF;" width="47.33" height="83.11"/>
<path style="fill:#EF5352;" d="M200.495,331.379L200.495,331.379c-15.83,0-28.663-12.833-28.663-28.663v-81.569h57.326v81.569
	C229.158,318.546,216.325,331.379,200.495,331.379z"/>
<rect x="33.856" y="10" style="fill:#B75548;" width="86.86" height="416.01"/>
<path style="fill:#F9A462;" d="M408.622,10H120.718v128.032h356.861V78.956C477.578,40.873,446.705,10,408.622,10z"/>
<path style="fill:#B75548;" d="M327.145,426.008L327.145,426.008c-31.245,0-56.574-25.329-56.574-56.574v-42.242h113.147v42.242
	C383.718,400.679,358.389,426.008,327.145,426.008z"/>
<rect x="302.641" y="138.03" style="fill:#74D1D2;" width="49" height="118.72"/>
<rect x="351.641" y="175.31" style="fill:#F1D5C9;" width="52.5" height="33.421"/>
<path style="fill:#F7CD95;" d="M64.213,502H447.22c16.766,0,30.358-13.591,30.358-30.358v-45.635H33.856v45.635
	C33.856,488.409,47.447,502,64.213,502z"/>
<circle style="fill:#F1D5C9;" cx="200.5" cy="73.29" r="37.733"/>
<path d="M200.495,121.023c-26.319,0-47.732-21.413-47.732-47.732s21.413-47.732,47.732-47.732s47.732,21.413,47.732,47.732
	C248.227,99.61,226.814,121.023,200.495,121.023z M200.495,45.559c-15.292,0-27.732,12.44-27.732,27.732s12.44,27.732,27.732,27.732
	s27.732-12.44,27.732-27.732S215.787,45.559,200.495,45.559z"/>
<circle style="fill:#F1D5C9;" cx="341.141" cy="73.29" r="37.733"/>
<path d="M341.146,121.023c-26.32,0-47.733-21.413-47.733-47.732s21.413-47.732,47.733-47.732c26.319,0,47.732,21.413,47.732,47.732
	S367.465,121.023,341.146,121.023z M341.146,45.559c-15.292,0-27.733,12.44-27.733,27.732s12.441,27.732,27.733,27.732
	s27.732-12.44,27.732-27.732S356.438,45.559,341.146,45.559z"/>
<path style="fill:#EF5352;" d="M455.869,214.298h-51.725v-44.551h51.725c12.302,0,22.275,9.973,22.275,22.275l0,0
	C478.145,204.325,468.171,214.298,455.869,214.298z"/>
<path d="M477.578,416.008H374.671c11.776-12.015,19.047-28.461,19.047-46.574v-16.435h11.427c5.522,0,10-4.477,10-10
	c0-5.522-4.478-10-10-10h-11.427v-5.808c0-5.522-4.478-10-10-10H270.57c-5.522,0-10,4.478-10,10v42.242
	c0,18.113,7.271,34.559,19.048,46.574h-148.9V148.032h36.114v64.453c-2.989,1.729-5,4.96-5,8.662v81.569
	c0,21.319,17.344,38.663,38.663,38.663s38.663-17.344,38.663-38.663v-81.569c0-3.701-2.011-6.933-5-8.662v-64.453h58.486v98.723h-5
	c-5.522,0-10,4.478-10,10s4.478,10,10,10h29.5v17.578c0,5.522,4.478,10,10,10s10-4.478,10-10v-17.578h29.5c5.522,0,10-4.478,10-10
	c0-5.523-4.478-10-10-10h-5v-28.022h33.536c1.634,3.298,5.035,5.565,8.964,5.565h51.725c17.797,0,32.275-14.479,32.275-32.275
	c0-17.797-14.479-32.275-32.275-32.275h-51.725c-3.929,0-7.329,2.267-8.964,5.564h-33.536v-17.279h115.934c5.522,0,10-4.477,10-10
	V78.956C487.578,35.42,452.158,0,408.622,0H33.855c-5.522,0-10,4.477-10,10v461.643C23.855,493.896,41.96,512,64.214,512h383.007
	c22.253,0,40.357-18.104,40.357-40.357v-45.635C487.578,420.485,483.102,416.008,477.578,416.008z M280.57,369.434v-32.242h93.147
	v32.242c0,25.681-20.893,46.574-46.573,46.574C301.464,416.008,280.57,395.114,280.57,369.434z M219.158,302.716
	c0,10.291-8.372,18.663-18.663,18.663s-18.663-8.372-18.663-18.663v-71.569h37.326L219.158,302.716L219.158,302.716z
	 M214.158,211.146h-27.326v-63.114h27.326V211.146z M468.145,192.023c0,6.768-5.507,12.275-12.275,12.275h-41.725v-24.551h41.725
	C462.638,179.747,468.145,185.254,468.145,192.023z M394.145,185.311v13.421h-32.5v-13.421H394.145z M341.645,246.755h-29v-98.723
	h29V246.755z M467.578,78.956v49.076h-336.86V20h277.904C441.132,20,467.578,46.447,467.578,78.956z M43.855,20h66.862v396.008
	h-23.43V122.206c0-5.522-4.478-10-10-10s-10,4.478-10,10v293.802H43.855V20z M467.578,471.643c0,11.226-9.133,20.357-20.357,20.357
	H64.214c-10.427,0-19.048-7.879-20.222-17.996h337.34c5.522,0,10-4.478,10-10s-4.478-10-10-10H43.855v-17.996h423.723V471.643z"/>
<path d="M205.355,88.151c-2.56,0-5.118-0.977-7.071-2.929l-9.721-9.721c-3.905-3.905-3.905-10.237,0-14.143
	c3.906-3.904,10.236-3.904,14.143,0l9.721,9.721c3.905,3.905,3.905,10.237,0,14.143C210.474,87.175,207.915,88.151,205.355,88.151z"
	/>
<path d="M346.005,88.151c-2.56,0-5.119-0.977-7.071-2.93l-9.72-9.721c-3.905-3.905-3.905-10.236,0.001-14.142
	c3.905-3.904,10.238-3.904,14.142,0.001l9.72,9.721c3.905,3.905,3.905,10.236-0.001,14.142
	C351.123,87.175,348.564,88.151,346.005,88.151z"/>
<circle cx="420.33" cy="464" r="9.998"/>
<circle cx="77.29" cy="83.21" r="9.999"/>
<g>
</g>
<g>
</g>
<g>
</g>
<g>
</g>
<g>
</g>
<g>
</g>
<g>
</g>
<g>
</g>
<g>
</g>
<g>
</g>
<g>
</g>
<g>
</g>
<g>
</g>
<g>
</g>
<g>
</g>
</svg>
