<svg height="496pt" viewBox="-88 0 496 496" width="496pt" xmlns="http://www.w3.org/2000/svg"><path d="m312 72v16c0 8.800781-7.199219 16-16 16h-272c-8.800781 0-16-7.199219-16-16v-16c0-8.800781 7.199219-16 16-16h272c8.800781 0 16 7.199219 16 16zm0 0" fill="#aab2bd"/><path d="m280 104 24 48h-288l24-48zm0 0" fill="#ccd1d9"/><path d="m16 456h288c-9.839844 19.601562-29.839844 32-51.761719 32h-184.476562c-10.960938 0-21.441407-3.121094-30.402344-8.640625-8.960937-5.597656-16.398437-13.597656-21.359375-23.359375zm0 0" fill="#ccd1d9"/><path d="m304 152v304h-288v-304zm0 0" fill="#b27946"/><path d="m272 328v80h-224v-80h76.800781c7.679688 8 16.960938 13.359375 27.199219 15.28125 2.640625.480469 5.28125.71875 8 .71875 13.359375 0 25.519531-6 35.199219-16zm0 0" fill="#dfb28b"/><path d="m168 200.71875c27.121094 4.960938 48 34.960938 48 71.28125 0 22.640625-8.078125 42.878906-20.800781 56-9.679688 10-21.839844 16-35.199219 16-2.71875 0-5.359375-.238281-8-.71875.320312-23.28125 16-23.519531 16-47.28125 0-24-16-24-16-48 0-23.761719 15.679688-24 16-47.28125zm0 0" fill="#cf9e76"/><path d="m160 200c2.71875 0 5.359375.238281 8 .71875-.320312 23.28125-16 23.519531-16 47.28125 0 24 16 24 16 48 0 23.761719-15.679688 24-16 47.28125-10.238281-1.921875-19.519531-7.28125-27.199219-15.28125-12.722656-13.121094-20.800781-33.359375-20.800781-56 0-39.761719 25.039062-72 56-72zm0 0" fill="#cf9e76"/><path d="m296 48h-104v-16c0-17.648438-14.351562-32-32-32s-32 14.351562-32 32v16h-104c-13.230469 0-24 10.769531-24 24v16c0 13.230469 10.769531 24 24 24h3.054688l-19.054688 38.113281v307.78125l.839844 1.691407c11.238281 22.460937 33.816406 36.414062 58.9375 36.414062h184.453125c25.121093 0 47.699219-13.953125 58.929687-36.425781l.839844-1.6875v-307.773438l-19.054688-38.113281h3.054688c13.230469 0 24-10.769531 24-24v-16c0-13.230469-10.769531-24-24-24zm-152-16c0-8.824219 7.175781-16 16-16s16 7.175781 16 16v16h-32zm-120 416v-288h272v288zm228.222656 32h-184.445312c-14.203125 0-27.28125-5.9375-36.5625-16h257.578125c-9.28125 10.0625-22.367188 16-36.570313 16zm38.832032-336h-262.109376l16-32h230.109376zm12.945312-56c0 4.414062-3.585938 8-8 8h-272c-4.414062 0-8-3.585938-8-8v-16c0-4.414062 3.585938-8 8-8h272c4.414062 0 8 3.585938 8 8zm0 0"/><path d="m211.078125 320c8.074219-13.390625 12.921875-29.984375 12.921875-48 0-44.113281-28.710938-80-64-80s-64 35.886719-64 80c0 18.015625 4.847656 34.609375 12.921875 48h-68.921875v96h240v-96zm-3.078125-48c0 34.871094-21.039062 63.273438-47.078125 63.9375 1.140625-4.5625 3.253906-7.792969 5.734375-11.503906 4.167969-6.25 9.34375-14.019532 9.34375-28.441406 0-14.425782-5.175781-22.191407-9.34375-28.449219-3.71875-5.574219-6.65625-9.984375-6.65625-19.566407 0-9.570312 2.9375-13.96875 6.65625-19.542968 2.9375-4.394532 6.335938-9.601563 8.113281-17.296875 19.253907 8.320312 33.230469 32.449219 33.230469 60.863281zm-48.929688-63.9375c-1.140624 4.554688-3.253906 7.777344-5.726562 11.496094-4.167969 6.242187-9.34375 14-9.34375 28.417968 0 14.421876 5.175781 22.191407 9.34375 28.449219 3.71875 5.574219 6.65625 9.980469 6.65625 19.566407 0 9.574218-2.9375 13.984374-6.65625 19.558593-2.9375 4.402344-6.335938 9.609375-8.113281 17.3125-19.253907-8.320312-33.230469-32.449219-33.230469-60.863281 0-34.871094 21.039062-63.273438 47.070312-63.9375zm104.929688 191.9375h-208v-64h65.769531c10.679688 10 23.894531 16 38.230469 16s27.550781-6 38.230469-16h65.769531zm0 0"/><path d="m72 368h176v16h-176zm0 0"/></svg>