<svg height="512pt" viewBox="0 0 512 512.18854" width="512pt" xmlns="http://www.w3.org/2000/svg"><path d="m248.855469 300.136719c-.972657-14.742188-1.589844-29.394531-1.589844-44.136719v-176.550781h-229.515625v176.550781c0 79.449219-17.65625 158.898438-17.65625 238.34375 0 0 0 17.65625 132.324219 17.65625h.089843c35.285157.878906 70.582032-1.308594 105.488282-6.53125l124.027344-28.777344zm0 0" fill="#804537"/><path d="m486.679688 512h-231.652344c-14.039063 0-25.414063-11.378906-25.414063-25.414062v-18.722657h282.480469v18.722657c0 14.035156-11.378906 25.414062-25.414062 25.414062zm0 0" fill="#bdc3c7"/><path d="m238.4375 306.804688v94.453124c1.296875 38.015626 33.117188 67.808594 71.132812 66.605469h122.5625c38.027344 1.203125 69.851563-28.605469 71.132813-66.632812v-94.453125c-.152344-3.789063-3.324219-6.75-7.113281-6.640625h-250.597656c-3.804688-.117188-6.984376 2.863281-7.117188 6.667969zm0 0" fill="#e64c3c"/><path d="m432.132812 441.378906c-4.875 0-8.828124-3.953125-8.828124-8.828125s3.953124-8.828125 8.828124-8.828125c13.625 1.109375 25.628907-8.890625 26.996094-22.492187v-65.78125c0-4.875 3.953125-8.828125 8.828125-8.828125s8.828125 3.953125 8.828125 8.828125v65.78125c-1.335937 23.375-21.269531 41.296875-44.652344 40.148437zm0 0" fill="#e6e7e8"/><path d="m17.75 0h229.515625c9.75 0 17.65625 7.90625 17.65625 17.65625v52.964844c0 9.75-7.90625 17.65625-17.65625 17.65625h-229.515625c-9.75 0-17.65625-7.90625-17.65625-17.65625v-52.964844c0-9.75 7.90625-17.65625 17.65625-17.65625zm0 0" fill="#7f6e5d"/><g fill="#cbb292"><path d="m70.714844 0v52.964844c0 4.875-3.953125 8.828125-8.828125 8.828125s-8.828125-3.953125-8.828125-8.828125v-52.964844zm0 0"/><path d="m141.335938 0v52.964844c0 4.875-3.953126 8.828125-8.828126 8.828125s-8.828124-3.953125-8.828124-8.828125v-52.964844zm0 0"/><path d="m211.957031 0v52.964844c0 4.875-3.953125 8.828125-8.828125 8.828125s-8.828125-3.953125-8.828125-8.828125v-52.964844zm0 0"/></g><path d="m203.128906 176.550781v255.410157c.132813 9.902343-7.753906 18.050781-17.65625 18.246093h-105.929687c-9.902344-.195312-17.789063-8.34375-17.65625-18.246093v-228.042969s30.277343-27.367188 141.242187-27.367188zm0 0" fill="#e57e25"/><path d="m160.226562 309.761719c-2.382812-4.414063-12.886718-22.335938-27.71875-27.277344-14.832031-4.945313-25.335937-22.863281-27.71875-27.277344 0-.089843.089844-.179687.175782-.265625 12.183594-12.183594 34.339844-9.710937 49.613281 5.472656 15.09375 15.183594 17.652344 37.164063 5.648437 49.347657zm0 0" fill="#7f6e5d"/><path d="m160.226562 309.761719c0 .085937-.089843.175781-.175781.261719-12.183593 12.183593-34.339843 9.710937-49.613281-5.472657-15.09375-15.183593-17.652344-37.164062-5.648438-49.34375 2.382813 4.414063 12.886719 22.332031 27.71875 27.277344 14.832032 4.941406 25.335938 22.863281 27.71875 27.277344zm0 0" fill="#cbb292"/><path d="m167.820312 361.929688h-70.621093c-4.875 0-8.828125-3.949219-8.828125-8.828126 0-4.875 3.953125-8.824218 8.828125-8.824218h70.621093c4.875 0 8.824219 3.949218 8.824219 8.824218 0 4.878907-3.949219 8.828126-8.824219 8.828126zm0 0" fill="#7f6e5d"/><path d="m150.164062 397.242188h-35.3125c-4.875 0-8.828124-3.953126-8.828124-8.828126s3.953124-8.828124 8.828124-8.828124h35.3125c4.875 0 8.828126 3.953124 8.828126 8.828124s-3.953126 8.828126-8.828126 8.828126zm0 0" fill="#7f6e5d"/><path d="m203.128906 158.898438v26.480468c-110.964844 0-141.242187 26.484375-141.242187 26.484375v-52.964843c.03125-9.742188 7.917969-17.628907 17.65625-17.65625h105.929687c9.738282.027343 17.628906 7.914062 17.65625 17.65625zm0 0" fill="#f29c1f"/></svg>