<svg height="480pt" viewBox="-28 0 480 480" width="480pt" xmlns="http://www.w3.org/2000/svg"><path d="m272 168h144v304h-144zm0 0" fill="#f88d9a"/><path d="m272 136h144v32h-144zm0 0" fill="#a7c0d0"/><path d="m416 136h-144v-80l32-48h80l32 48zm0 0" fill="#f2f5e8"/><g fill="#f3bb5d"><path d="m336 80h-16v-29.785156l-22.855469-38.09375 13.710938-8.242188 24 40c.75 1.246094 1.144531 2.667969 1.144531 4.121094zm0 0"/><path d="m376 80h-16v-29.785156l-22.855469-38.09375 13.710938-8.242188 24 40c.75 1.246094 1.144531 2.667969 1.144531 4.121094zm0 0"/><path d="m272 96h40v16h-40zm0 0"/><path d="m352 96h64v16h-64zm0 0"/></g><path d="m312.175781 344s-29.777343-27 7.824219-48l16-8s.695312 17 32 24c24.558594 5.488281 22.535156 25.886719 16 32-8.886719 8.3125-32 8-48 8-8.667969.445312-17.179688-2.414062-23.824219-8zm0 0" fill="#f2f5e8"/><path d="m368 256c22 4.398438 37.3125 1.519531 48-4.945312v-83.054688h-144v128s16-56 96-40zm0 0" fill="#f3bb5d"/><path d="m320 384c-22-4.398438-37.3125-1.519531-48 4.945312v83.054688h144v-128s-16 56-96 40zm0 0" fill="#f3bb5d"/><path d="m384 448h-24v-16h16v-24h16v32c0 4.417969-3.582031 8-8 8zm0 0" fill="#f2f5e8"/><path d="m296 192h16v16h-16zm0 0" fill="#f2f5e8"/><path d="m328 216h16v16h-16zm0 0" fill="#f2f5e8"/><path d="m72 248s-14.472656-50.121094 48-64c72-16 88-64 88-64s56 72 24 128zm0 0" fill="#f6da80"/><path d="m169.9375 223.761719-3.875-15.523438c12.902344-2.542969 24.089844-10.492187 30.738281-21.839843 14.703125-25.773438 3.6875-63.71875 3.574219-64.09375l15.328125-4.585938c.535156 1.808594 13.113281 44.761719-4.96875 76.546875-8.804687 15.164063-23.632813 25.886719-40.796875 29.496094zm0 0" fill="#a87443"/><path d="m72 400h-48c-8.835938 0-16-7.164062-16-16v-88c0-8.835938 7.164062-16 16-16h48v32h-32v56h32zm0 0" fill="#f3bb5d"/><path d="m200 472h-96c-17.671875 0-32-14.328125-32-32v-192h160v192c0 17.671875-14.328125 32-32 32zm0 0" fill="#c08b59"/><path d="m136 208h16v16h-16zm0 0" fill="#a87443"/><path d="m72 432h64v16h-64zm0 0" fill="#f3bb5d"/><path d="m152 432h16v16h-16zm0 0" fill="#f3bb5d"/><path d="m208 320h-16v-32h-16v-16h32zm0 0" fill="#f3bb5d"/><path d="m306.640625 349.777344c8.128906 7.019531 18.628906 10.675781 29.359375 10.222656h3.542969c17.890625 0 39.394531-.328125 49.929687-10.160156 6.105469-6.484375 8.339844-15.710938 5.878906-24.273438-3.605468-11.527344-13.613281-19.882812-25.597656-21.375-24.074218-5.375-25.753906-16.359375-25.753906-16.519531-.109375-2.710937-1.589844-5.183594-3.925781-6.5625-2.335938-1.382813-5.214844-1.480469-7.640625-.269531l-16.328125 8.175781c-13.90625 7.777344-21.601563 17.480469-22.914063 28.800781-.355468 12.097656 4.546875 23.757813 13.449219 31.960938zm2.457031-30.160156c.703125-5.945313 5.6875-11.539063 14.476563-16.457032l8.082031-4.046875c4.34375 7.199219 13.839844 16.054688 34.589844 20.695313 6.023437.609375 11.246094 4.417968 13.664062 9.96875.855469 2.855468.347656 5.945312-1.375 8.382812-6.277344 5.863282-28.09375 5.894532-40.871094 5.839844h-1.664062c-6.550781.375-13.015625-1.644531-18.191406-5.679688l-.222656-.214843c-5.261719-4.726563-8.335938-11.417969-8.488282-18.488281zm0 0"/><path d="m272 480h144c4.417969 0 8-3.582031 8-8v-416c-.003906-1.578125-.46875-3.125-1.34375-4.441406l-32-48c-1.484375-2.222656-3.980469-3.558594-6.65625-3.558594h-80c-2.675781 0-5.171875 1.335938-6.65625 3.558594l-32 48c-.875 1.316406-1.339844 2.863281-1.34375 4.441406v416c0 4.417969 3.582031 8 8 8zm8-304h128v70.230469c-12.296875 4.574219-25.707031 5.246093-38.398438 1.929687-47.785156-9.601562-74.882812 5.296875-89.601562 20.550782zm0 121.257812c2.398438-6.898437 19.152344-46.851562 86.398438-33.417968 13.707031 3.230468 28 3.007812 41.601562-.640625v79.511719c-2.398438 6.890624-19.199219 46.839843-86.398438 33.417968-13.710937-3.214844-28.003906-2.984375-41.601562.671875zm128-137.257812h-128v-16h128zm0 304h-128v-70.230469c12.296875-4.578125 25.707031-5.25 38.398438-1.929687 47.792968 9.601562 74.882812-5.296875 89.601562-20.550782zm-104.351562-441.039062 16.351562 27.253906v29.785156h16v-32c0-1.453125-.394531-2.875-1.144531-4.121094l-16.726563-27.878906h21.34375l20.527344 34.214844v29.785156h16v-32c0-1.453125-.394531-2.875-1.144531-4.121094l-16.726563-27.878906h21.597656l28.273438 42.398438v37.601562h-56v16h56v16h-128v-16h32v-16h-32v-37.601562zm0 0"/><path d="m392 440v-32h-16v24h-16v16h24c4.417969 0 8-3.582031 8-8zm0 0"/><path d="m296 192h16v16h-16zm0 0"/><path d="m328 216h16v16h-16zm0 0"/><path d="m24 408h40v32c.027344 22.082031 17.917969 39.972656 40 40h96c22.082031-.027344 39.972656-17.917969 40-40v-190.054688c31.894531-59.585937-23.296875-131.777343-25.6875-134.855468-1.816406-2.324219-4.761719-3.460938-7.667969-2.960938-2.902343.503906-5.296875 2.5625-6.230469 5.359375-.148437.433594-15.34375 43.871094-82.148437 58.71875-22.890625 5.089844-39.066406 15.351563-48.066406 30.527344-7.230469 12.832031-9.441407 27.890625-6.199219 42.257813v23.007812h-40c-13.253906 0-24 10.746094-24 24v88c0 13.253906 10.746094 24 24 24zm60-193.121094c6.65625-11.199218 19.359375-18.984375 37.769531-23.070312 45.277344-10.066406 69.71875-32.167969 82.207031-48.738282 1.921876 14.832032-.585937 29.902344-7.199218 43.3125-6.636719 11.34375-17.808594 19.300782-30.699219 21.855469l3.875 15.523438c17.152344-3.625 31.964844-14.347657 40.757813-29.515625 6.21875-11.625 9.53125-24.582032 9.65625-37.765625 10.960937 23.273437 20.265624 55.582031 6.816406 83.519531h-148.421875c-.90625-8.714844.925781-17.496094 5.238281-25.121094zm-4 41.121094h144v184c0 13.253906-10.746094 24-24 24h-96c-10.132812-.042969-19.148438-6.445312-22.527344-16h54.527344v-16h-56zm-16 104h-16v-40h16zm-48-64c0-4.417969 3.582031-8 8-8h40v16h-32v72h32v16h-40c-4.417969 0-8-3.582031-8-8zm0 0"/><path d="m136 208h16v16h-16zm0 0"/><path d="m152 432h16v16h-16zm0 0"/><path d="m192 320h16v-48h-32v16h16zm0 0"/></svg>