<svg enable-background="new 0 0 140 140" height="512" viewBox="0 0 140 140" width="512" xmlns="http://www.w3.org/2000/svg"><circle cx="70" cy="70" fill="#fed35b" r="64"/><path d="m130.9691925 89.4167938-7.9178391-7.9179688c-.5059204-.5585938-1.0296631-1.0805664-1.5675049-1.5673828l-47.2106933-47.2106895c-.5059204-.5588379-1.0296631-1.0808105-1.5675049-1.567627l-.0216064-.0214844-.0009155.0012207c-3.7728271-3.4042969-8.2593384-4.9836426-12.5134315-3.9008789-8.289978 2.1101074-12.539978 13.5100098-9.5 25.4602051 1.5130005 5.9475098 4.5500488 10.9101562 8.239563 14.1364708l-.0004272.0007324 12.1514931 12.1513672c-.5375366 1.171875-.9598389 2.3486328-1.2642822 3.5168457l-10.887211-10.8874511-.0014038.0021973c-6.3911133-8.2348595-15.6778564-11.8979454-22.3777466-8.2302208-7.7999878 4.2700157-9.1300049 16.8498497-2.9699707 28.0998497 1.2000122 2.1916504 2.5975342 4.1677246 4.125 5.9025879l-.0016479.0007324.0217285.0217285c.8440552.9570312 1.7279663 1.8388672 2.6413574 2.6413574l33.8239784 33.8239746c10.2438965-.659668 20.4759521-3.7954102 29.7873535-9.6240234 13.37677-8.3730469 22.5776367-20.8847656 27.0117111-34.831543z" opacity=".1"/><ellipse cx="89.76" cy="80.496" fill="#c65634" rx="22.74" ry="15.766" transform="matrix(.804 -.595 .595 .804 -30.271 69.139)"/><ellipse cx="89.76" cy="80.496" fill="#d6683d" rx="22.74" ry="12.802" transform="matrix(.804 -.595 .595 .804 -30.271 69.139)"/><path d="m78.9425278 88.3324356c7.1901855-4.8962326 17.7347946-7.0282288 23.3435822-13.7257462 1.4207001-1.6767349 2.6292343-3.5945511 3.5226135-5.8722458.1824799-.4652557-.4197922-.7082596-.728981-.2917557-1.2532959 1.6880722-2.7832947 3.0601273-4.5025101 4.2163162-7.1908188 4.8971329-17.7303085 7.0246506-23.3426208 13.7249069-1.4208145 1.6766052-2.6295166 3.5945587-3.5231094 5.8723297-.1825409.4651947.4197388.7081909.728981.2917557 1.2528685-1.6875838 2.7827681-3.0594405 4.5020446-4.2155608z" fill="#963e25"/><ellipse cx="47.682" cy="83.752" fill="#c65634" rx="16.099" ry="23.219" transform="matrix(.877 -.48 .48 .877 -34.367 33.196)"/><ellipse cx="47.682" cy="83.752" fill="#d6683d" rx="13.072" ry="23.219" transform="matrix(.877 -.48 .48 .877 -34.367 33.196)"/><path d="m41.2481041 71.7253494c3.9603424 7.9504395 4.6608505 18.9127045 10.6619377 25.5120544 1.5000992 1.6688766 3.2733955 3.1564255 5.4543114 4.3748245.4454918.2488785.7745132-.3268738.3958511-.697197-1.5346909-1.501091-2.7114601-3.238472-3.6436996-5.1374588-3.9611626-7.9512024-4.6578445-18.9076691-10.6612206-25.5109711-1.4999504-1.6689758-3.273365-3.1567001-5.4543266-4.3753357-.4454155-.2489243-.774437.326828-.3958511.6972046 1.5342559 1.5005876 2.7108306 3.2378389 3.6429977 5.1368791z" fill="#963e25"/><ellipse cx="65.676" cy="48.872" fill="#c65634" rx="15.482" ry="22.33" transform="matrix(.969 -.247 .247 .969 -10.025 17.708)"/><ellipse cx="65.676" cy="48.872" fill="#d6683d" rx="12.571" ry="22.33" transform="matrix(.969 -.247 .247 .969 -10.025 17.708)"/><path d="m68.7873764 61.6147766c-1.7835922-8.3539543.1906815-18.7319984-3.8173904-26.3165512-.9972954-1.9138336-2.2924995-3.7242336-4.0318413-5.381628-.3552971-.3385468-.7997017.1188679-.5357552.5545177 1.0697174 1.7658386 1.7494545 3.6659966 2.1627083 5.6580887 1.7841759 8.3548584-.192276 18.7265854 3.8169823 26.3153687.997139 1.913887 2.2924042 3.7244873 4.0317383 5.382103.3552094.3385773.7996216-.1188354.5357513-.554512-1.0694351-1.7652818-1.7490158-3.6652681-2.1621933-5.6573869z" fill="#963e25"/></svg>