<svg height="477.60001pt" viewBox="0 0 477.60001 477.60001" width="477.60001pt" xmlns="http://www.w3.org/2000/svg"><path d="m477.601562 238.800781c0 131.886719-106.914062 238.800781-238.800781 238.800781s-238.800781-106.914062-238.800781-238.800781 106.914062-238.800781 238.800781-238.800781 238.800781 106.914062 238.800781 238.800781zm0 0" fill="#382b73"/><path d="m445.398438 238.800781c0 114.101563-92.496094 206.597657-206.597657 206.597657-114.101562 0-206.597656-92.496094-206.597656-206.597657 0-114.101562 92.496094-206.597656 206.597656-206.597656 114.101563 0 206.597657 92.496094 206.597657 206.597656zm0 0" fill="#473080"/><path d="m271.742188 200.882812c-9.667969-12.773437-14.898438-28.359374-14.898438-44.382812v-17.109375h1.554688c1.097656 0 1.984374-.886719 1.984374-1.984375v-29.953125c0-1.097656-.886718-1.984375-1.984374-1.984375h-39.199219c-1.09375 0-1.984375.886719-1.984375 1.984375v29.953125c0 1.097656.890625 1.984375 1.984375 1.984375h1.558593v17.109375c0 16.023438-5.230468 31.609375-14.902343 44.382812-9.667969 12.777344-14.902344 28.359376-14.902344 44.382813v133.039063c0 7.144531 3.777344 13.464843 9.589844 17.445312.019531.015625.042969.03125.066406.046875.535156.363281 1.085937.707031 1.65625 1.03125.0625.035156.128906.070313.195313.109375.53125.292969 1.074218.578125 1.636718.835938.121094.054687.25.109374.375.164062.511719.226562 1.035156.445312 1.566406.640625.199219.070313.40625.132813.605469.203125.480469.160156.960938.316406 1.453125.449219.292969.078125.59375.140625.890625.210937.421875.097656.839844.199219 1.273438.277344.421875.074219.851562.125 1.28125.175781.328125.042969.648437.097657.980469.128907.773437.070312 1.554687.109374 2.351562.109374 1.609375 0 3.175781-.164062 4.695312-.445312.882813-.164062 1.746094-.363281 2.585938-.613281h.003906.003906c.011719-.003907.019532-.003907.03125-.007813.847657-.25 1.679688-.535156 2.488282-.867187 4.460937 1.257812 9.203125 1.933593 14.117187 1.933593 4.914063 0 9.652344-.679687 14.113281-1.933593.808594.332031 1.640626.617187 2.488282.867187.011718.003906.023437.003906.035156.007813.714844.214843 1.445312.402343 2.191406.554687.128906.023438.265625.035156.394532.058594 1.519531.28125 3.085937.445312 4.699218.445312.792969 0 1.578125-.035156 2.351563-.105468.328125-.03125.652343-.085938.976562-.128906.429688-.054688.863281-.101563 1.285157-.179688.429687-.074219.847656-.179688 1.269531-.277344.296875-.070312.601562-.128906.894531-.210937.492188-.128907.972656-.289063 1.449219-.449219.203125-.066406.40625-.128906.605469-.203125.535156-.191406 1.054687-.410156 1.570312-.636719.125-.058594.25-.109375.378906-.167968.558594-.257813 1.101563-.539063 1.636719-.835938.0625-.035156.128906-.070312.195313-.109375.566406-.320313 1.117187-.664063 1.652343-1.03125.023438-.015625.046875-.03125.070313-.046875 5.8125-3.980469 9.585937-10.300781 9.585937-17.445312v-133.039063c0-16.023437-5.230469-31.605469-14.902343-44.382813zm0 0" fill="#382b73"/><path d="m271.742188 186.882812c-9.667969-12.773437-14.898438-28.359374-14.898438-44.382812v-25.121094h-36.085938v25.121094c0 16.023438-5.234374 31.605469-14.902343 44.382812-9.671875 12.773438-14.902344 28.359376-14.902344 44.382813v133.039063c0 12.054687 10.707031 21.824218 23.921875 21.824218 3.5 0 6.8125-.699218 9.808594-1.933594 4.460937 1.257813 9.203125 1.933594 14.117187 1.933594 4.914063 0 9.652344-.675781 14.113281-1.933594 2.996094 1.234376 6.3125 1.933594 9.808594 1.933594 13.214844 0 23.925782-9.769531 23.925782-21.824218v-133.039063c-.003907-16.023437-5.234376-31.605469-14.90625-44.382813zm0 0" fill="#e6e7e8"/><path d="m221.585938 187.671875c-5.050782 12.917969-7.785157 28.679687-7.785157 44.882813v134.546874c0 7.8125 2.304688 14.664063 5.773438 18.585938 1.78125-.328125 3.492187-.824219 5.109375-1.488281 4.460937 1.257812 9.203125 1.933593 14.117187 1.933593 4.914063 0 9.652344-.679687 14.113281-1.933593 1.617188.664062 3.332032 1.160156 5.113282 1.488281 3.464844-3.921875 5.773437-10.773438 5.773437-18.585938v-134.546874c0-16.203126-2.734375-31.960938-7.785156-44.882813-5.054687-12.921875-7.789063-28.683594-7.789063-44.886719v-25.40625h-18.851562v25.40625c-.003906 16.203125-2.738281 31.964844-7.789062 44.886719zm0 0" fill="#fff"/><path d="m258.398438 125.390625h-39.199219c-1.09375 0-1.984375-.886719-1.984375-1.984375v-29.953125c0-1.097656.890625-1.984375 1.984375-1.984375h39.199219c1.097656 0 1.984374.886719 1.984374 1.984375v29.953125c0 1.09375-.886718 1.984375-1.984374 1.984375zm0 0" fill="#009add"/><path d="m253.914062 125.390625h-30.230468c-.96875 0-1.753906-.785156-1.753906-1.753906v-30.414063c0-.96875.785156-1.753906 1.753906-1.753906h30.230468c.972657 0 1.757813.785156 1.757813 1.753906v30.414063c0 .96875-.789063 1.753906-1.757813 1.753906zm0 0" fill="#1caee4"/><path d="m246.070312 125.390625h-14.539062c-.6875 0-1.246094-.558594-1.246094-1.246094v-31.429687c0-.6875.558594-1.246094 1.246094-1.246094h14.539062c.691407 0 1.246094.558594 1.246094 1.246094v31.429687c0 .6875-.554687 1.246094-1.246094 1.246094zm0 0" fill="#27c1e6"/><path d="m217.214844 112.734375h43.167968v3.0625h-43.167968zm0 0" fill="#fff"/><path d="m238.800781 372.800781c-16.285156 0-30.75 3.039063-39.878906 7.738281 4.234375 3.46875 9.816406 5.59375 15.953125 5.59375 3.5 0 6.8125-.703124 9.808594-1.933593 4.460937 1.257812 9.203125 1.933593 14.117187 1.933593 4.914063 0 9.652344-.679687 14.113281-1.933593 2.996094 1.234375 6.3125 1.933593 9.808594 1.933593 6.140625 0 11.71875-2.128906 15.957032-5.59375-9.132813-4.699218-23.59375-7.738281-39.878907-7.738281zm0 0" fill="#d1d3d4"/><path d="m255.4375 385.074219c.84375.246093 1.707031.449219 2.589844.613281 2.191406-2.480469 3.917968-6.136719 4.890625-10.464844-7.152344-1.539062-15.367188-2.421875-24.117188-2.421875s-16.964843.882813-24.117187 2.421875c.972656 4.328125 2.695312 7.984375 4.890625 10.464844.882812-.160156 1.746093-.367188 2.589843-.613281.011719-.003907.019532-.003907.03125-.007813.851563-.246094 1.679688-.535156 2.488282-.867187 4.460937 1.257812 9.203125 1.933593 14.117187 1.933593 4.914063 0 9.652344-.679687 14.113281-1.933593.808594.332031 1.640626.621093 2.492188.867187.007812.003906.019531.007813.03125.007813zm0 0" fill="#e6e7e8"/><path d="m266.257812 204.585938c-8.058593-11.128907-46.855468-11.128907-54.914062 0-8.058594 11.125-12.417969 24.699218-12.417969 38.65625v115.878906c0 10.5 8.925781 19.011718 19.9375 19.011718 2.914063 0 5.675781-.613281 8.171875-1.683593 3.71875 1.09375 7.667969 1.683593 11.765625 1.683593 4.09375 0 8.046875-.589843 11.761719-1.683593 2.496094 1.070312 5.257812 1.683593 8.175781 1.683593 11.011719 0 19.9375-8.511718 19.9375-19.011718v-115.878906c.003907-13.957032-4.359375-27.53125-12.417969-38.65625zm0 0" fill="#009add"/><path d="m263.800781 232.554688c0-11.378907-1.375-22.515626-3.929687-32.628907-11.054688-4.90625-31.085938-4.90625-42.140625 0-2.554688 10.109375-3.929688 21.25-3.929688 32.628907v134.546874c0 3.894532.574219 7.546876 1.578125 10.722657 1.132813.191406 2.292969.308593 3.484375.308593 2.917969 0 5.679688-.613281 8.175781-1.683593 3.71875 1.09375 7.667969 1.683593 11.761719 1.683593 4.097657 0 8.046875-.589843 11.765625-1.683593 2.496094 1.070312 5.257813 1.683593 8.171875 1.683593 1.191407 0 2.351563-.117187 3.484375-.308593 1.003906-3.171875 1.578125-6.828125 1.578125-10.722657zm0 0" fill="#1caee4"/><path d="m268.300781 355.375h-59c-2.210937 0-4-1.789062-4-4v-119.574219c0-2.210937 1.789063-4 4-4h59c2.210938 0 4 1.789063 4 4v119.574219c0 2.210938-1.789062 4-4 4zm0 0" fill="#e7ad27"/><path d="m213.800781 232.554688v122.820312h50v-122.820312c0-1.589844-.035156-3.175782-.085937-4.753907h-49.828125c-.050781 1.578125-.085938 3.164063-.085938 4.753907zm0 0" fill="#e7ad27"/><path d="m263.800781 306.425781v-75.15625c0-1.160156-.046875-2.3125-.074219-3.46875h-49.851562c-.027344 1.15625-.074219 2.308594-.074219 3.46875v75.15625zm0 0" fill="#fede3a"/><path d="m263.800781 302.238281c-.363281.085938-.722656.191407-1.101562.242188-.472657.066406-.992188.105469-1.574219.105469-5.589844 0-5.589844-3.394532-11.175781-3.394532-5.585938 0-5.585938 3.394532-11.167969 3.394532-5.578125 0-5.578125-3.394532-11.160156-3.394532-5.582032 0-5.582032 3.394532-11.164063 3.394532-.578125 0-1.09375-.039063-1.566406-.105469-.375-.050781-.734375-.152344-1.09375-.242188v8.960938c.363281.085937.714844.199219 1.09375.25.46875.066406.988281.101562 1.566406.101562 5.582031 0 5.582031-3.390625 11.164063-3.390625 5.578125 0 5.578125 3.390625 11.160156 3.390625s5.582031-3.390625 11.167969-3.390625c5.585937 0 5.585937 3.390625 11.175781 3.390625.582031 0 1.101562-.035156 1.574219-.101562.378906-.050781.734375-.164063 1.101562-.25zm0 0" fill="#e7ad27"/><path d="m238.800781 205.742188c11.203125 0 21.007813-.890626 26.546875-2.234376-4.535156-4.6875-14.910156-7.105468-25.480468-7.253906-.355469-.003906-.707032-.011718-1.070313-.011718-.359375 0-.707031.007812-1.070313.011718-10.570312.148438-20.945312 2.566406-25.476562 7.253906 5.542969 1.34375 15.347656 2.234376 26.550781 2.234376zm0 0" fill="#27c1e6"/><path d="m234.550781 270.871094c0 3.960937-3.210937 7.171875-7.171875 7.171875-3.957031 0-7.167968-3.210938-7.167968-7.171875 0-3.957032 3.210937-7.167969 7.167968-7.167969 3.960938 0 7.171875 3.210937 7.171875 7.167969zm0 0" fill="#e7ad27"/><path d="m247.296875 336.164062c0 3.960938-3.210937 7.171876-7.171875 7.171876-3.957031 0-7.167969-3.210938-7.167969-7.171876 0-3.957031 3.210938-7.167968 7.167969-7.167968 3.960938 0 7.171875 3.210937 7.171875 7.167968zm0 0" fill="#f7cb15"/><path d="m254.464844 255.316406c0 3.960938-3.207032 7.171875-7.167969 7.171875s-7.171875-3.210937-7.171875-7.171875c0-3.957031 3.210938-7.167968 7.171875-7.167968s7.167969 3.210937 7.167969 7.167968zm0 0" fill="#e7ad27"/><path d="m242.152344 300.808594c0 3.789062-3.070313 6.855468-6.855469 6.855468s-6.851563-3.070312-6.851563-6.855468 3.070313-6.851563 6.851563-6.851563c3.789063 0 6.855469 3.070313 6.855469 6.851563zm0 0" fill="#e7ad27"/><path d="m242.023438 302.074219c-.859376.304687-1.882813.511719-3.242188.511719-5.214844 0-5.558594-2.964844-10.140625-3.351563-.117187.507813-.199219 1.03125-.199219 1.578125 0 3.785156 3.070313 6.851562 6.855469 6.851562 3.351563 0 6.132813-2.40625 6.726563-5.589843zm0 0" fill="#f7cb15"/><path d="m251.546875 282.269531c0 3.785157-3.070313 6.855469-6.855469 6.855469s-6.851562-3.070312-6.851562-6.855469c0-3.785156 3.066406-6.855469 6.851562-6.855469s6.855469 3.070313 6.855469 6.855469zm0 0" fill="#e7ad27"/><g fill="#f7cb15"><path d="m231.988281 321.574219c0 3.785156-3.070312 6.855469-6.855469 6.855469-3.785156 0-6.851562-3.070313-6.851562-6.855469 0-3.785157 3.070312-6.855469 6.851562-6.855469 3.789063 0 6.855469 3.070312 6.855469 6.855469zm0 0"/><path d="m258.714844 318.722656c0 3.960938-3.207032 7.167969-7.167969 7.167969s-7.171875-3.207031-7.171875-7.167969c0-3.960937 3.210938-7.171875 7.171875-7.171875s7.167969 3.210938 7.167969 7.171875zm0 0"/></g></svg>