<svg id="Capa_1" enable-background="new 0 0 512 512" height="512" viewBox="0 0 512 512" width="512" xmlns="http://www.w3.org/2000/svg"><path d="m307.921 204.079 72.292 72.292 42.883.457c9.931-15.993 13.692-35.226 9.907-54.146l-3.149-15.744c-6.381-31.903 3.542-64.696 26.558-87.712 5.863-5.863 5.863-15.351 0-21.213l-21.213-21.213-21.213-21.213c-5.863-5.863-15.351-5.863-21.213 0-23.016 23.015-55.809 32.938-87.712 26.558l-15.744-3.149c-18.92-3.785-38.152-.022-54.145 9.909l.315 42.741z" fill="#fe5957"/><path d="m291 380.745v-23.782l-16.711-59.237-30.007-30.007-30.007-30.007-59.238-16.712h-23.782c-20.032 0-38.874 7.7-53.043 21.869l-56.244 56.244c-29.29 29.29-29.29 76.776 0 106.066 11.317 11.317 27.141 15.242 41.681 11.982 2.002 7.25 5.653 14.14 11.351 19.839 5.698 5.698 12.589 9.349 19.838 11.352-3.26 14.54.664 30.363 11.982 41.681 29.29 29.29 76.776 29.29 106.066 0l56.244-56.244c14.17-14.171 21.87-33.012 21.87-53.044z" fill="#fe5957"/><path d="m106.82 490.033c29.29 29.29 76.776 29.29 106.066 0l56.244-56.244c14.17-14.171 21.87-33.012 21.87-53.044v-23.782l-16.711-59.237-30.007-30.007-169.282 169.281c5.698 5.698 12.589 9.349 19.838 11.352-3.26 14.54.665 30.363 11.982 41.681z" fill="#fc1c5c"/><path d="m423.097 276.828c9.931-15.993 13.692-35.226 9.907-54.146l-3.149-15.744c-6.381-31.903 3.542-64.696 26.558-87.712 5.863-5.863 5.863-15.351 0-21.213l-21.213-21.213-127.279 127.279 72.292 72.292z" fill="#fc1c5c"/><path d="m423.097 276.828-64.097-64.097c7.926-16.713 5.157-37.269-8.653-51.079-13.828-13.828-34.492-16.759-51.22-8.794l-63.954-63.954c-4.845 3.009-9.463 6.467-13.596 10.6l-23.357 23.357c-14.17 14.17-22.22 33.011-22.22 53.043v29.997c0 8.266-6.482 14.998-14.748 14.998l-6.215.1 38.024 37.924c-7.965 16.728-5.034 37.392 8.794 51.22s34.492 16.759 51.22 8.794l37.925 38.026.1-6.215c0-8.266 6.733-14.748 14.998-14.748h29.997c20.032 0 38.874-8.05 53.043-22.22l23.357-23.357c4.134-4.133 7.593-8.75 10.602-13.595z" fill="#edf5ff"/><path d="m253.076 318.939 37.924 38.024.1-6.215c0-8.266 6.733-14.748 14.998-14.748h29.997c20.032 0 38.874-8.05 53.043-22.22l23.357-23.357c4.133-4.133 7.592-8.75 10.601-13.595l-64.097-64.097c7.926-16.713 5.157-37.269-8.653-51.079l-148.491 148.493c13.828 13.828 34.492 16.759 51.221 8.794z" fill="#d5e8fe"/><path d="m498.84 55.586-21.213-21.213-21.213-21.213c-17.546-17.546-46.093-17.546-63.64 0l-21.213 21.213c-5.863 5.863-5.863 15.351 0 21.213l42.426 42.426 42.426 42.426c5.863 5.863 15.351 5.863 21.213 0l21.213-21.213c17.548-17.546 17.548-46.092.001-63.639z" fill="#ffe375"/><path d="m477.627 140.439 21.213-21.213c17.546-17.546 17.546-46.093 0-63.64l-21.213-21.213-63.64 63.64 42.426 42.426c5.863 5.863 15.351 5.863 21.214 0z" fill="#ffb725"/><path d="m170.46 426.393c-5.863-5.863-15.351-5.863-21.213 0-17.546 17.546-46.093 17.546-63.64 0-17.546-17.546-17.546-46.093 0-63.64 5.863-5.863 5.863-15.351 0-21.213-5.863-5.863-15.351-5.863-21.213 0-29.241 29.241-29.241 76.825 0 106.066s76.825 29.241 106.066 0c5.862-5.862 5.862-15.35 0-21.213z" fill="#fc1c5c"/><path d="m170.46 447.606c5.863-5.863 5.863-15.351 0-21.213-5.863-5.863-15.351-5.863-21.213 0-17.546 17.546-46.093 17.546-63.64 0l-21.213 21.213c29.24 29.241 76.825 29.241 106.066 0z" fill="#dd0056"/></svg>