<svg id="Capa_1" enable-background="new 0 0 512 512" height="512" viewBox="0 0 512 512" width="512" xmlns="http://www.w3.org/2000/svg"><path d="m205 412h-180c-8.284 0-15-6.716-15-15v-120c0-8.284 6.716-15 15-15h180c8.284 0 15 6.716 15 15v120c0 8.284-6.716 15-15 15z" fill="#ffa500"/><path d="m205 262h-90v150h90c8.284 0 15-6.716 15-15v-120c0-8.284-6.716-15-15-15z" fill="#fa8b00"/><path d="m215 192h-200c-5.381 0-10.35-2.882-13.021-7.553-2.672-4.671-2.637-10.415.092-15.053l60-102c2.695-4.581 7.614-7.394 12.929-7.394h80c5.315 0 10.234 2.813 12.929 7.395l60 102c2.729 4.638 2.764 10.382.092 15.053-2.671 4.67-7.64 7.552-13.021 7.552z" fill="#eaf1ff"/><path d="m167.929 67.395c-2.695-4.582-7.614-7.395-12.929-7.395h-40v132h100c5.381 0 10.35-2.882 13.021-7.553 2.672-4.671 2.637-10.415-.092-15.053z" fill="#b1d5f1"/><path d="m230 177v100c0 8.284-6.716 15-15 15h-200c-8.284 0-15-6.716-15-15v-100z" fill="#fdbe00"/><path d="m115 177v115h100c8.284 0 15-6.716 15-15v-100z" fill="#ffa500"/><path d="m175 80h-120c-8.284 0-15-6.716-15-15v-30c0-19.299 15.701-35 35-35h80c19.299 0 35 15.701 35 35v30c0 8.284-6.716 15-15 15z" fill="#22a6ff"/><path d="m155 0h-40v80h60c8.284 0 15-6.716 15-15v-30c0-19.299-15.701-35-35-35z" fill="#1885ff"/><path d="m185 512h-140c-24.813 0-45-20.187-45-45v-70c0-8.284 6.716-15 15-15h200c8.284 0 15 6.716 15 15v70c0 24.813-20.186 45-45 45z" fill="#fdbe00"/><path d="m215 382h-100v130h70c24.813 0 45-20.187 45-45v-70c0-8.284-6.716-15-15-15z" fill="#ffa500"/><path d="m378.671 512c-36.404 0-69.668-13.364-94.42-38.117-54.586-54.586-49.828-148.163 10.606-208.596 5.857-5.858 15.355-5.857 21.213 0l176.776 176.776c5.858 5.858 5.858 15.355 0 21.213-29.051 29.052-66.57 46.27-105.646 48.481-2.858.162-5.705.243-8.529.243z" fill="#ffa500"/><path d="m404.487 353.703-120.208 120.208c24.749 24.734 58.002 38.089 94.392 38.089 2.823 0 5.671-.081 8.529-.242 39.076-2.212 76.596-19.43 105.646-48.481 5.858-5.858 5.858-15.355 0-21.213z" fill="#fa8b00"/><ellipse cx="393.852" cy="364.282" fill="#ffa500" rx="75" ry="125" transform="matrix(.707 -.707 .707 .707 -142.229 385.191)"/><path d="m340.847 417.342c48.812 48.794 112.11 64.612 141.393 35.328s13.466-92.581-35.328-141.393z" fill="#fa8b00"/><path d="m457.492 300.642c-25.504-25.504-55.691-43.585-85.001-50.913-32.026-8.006-59.595-2.48-77.633 15.558-35.686 35.685-20.155 107.123 35.355 162.634 25.504 25.504 55.691 43.585 85.001 50.913 9.584 2.396 18.764 3.58 27.413 3.58 20.255 0 37.58-6.497 50.22-19.137 35.686-35.686 20.155-107.124-35.355-162.635zm-27.427 78.64h44.892c1.76 4.565 3.214 9.121 4.343 13.638 2.238 8.954 4.486 23.372.326 35.923zm-121.66-43.638c-2.238-8.954-4.486-23.372-.326-35.923l49.561 49.561h-44.892c-1.76-4.565-3.214-9.122-4.343-13.638zm150.621 13.638h-50.173v-50.173c9.505 6.442 18.749 14.07 27.426 22.746 8.677 8.677 16.305 17.921 22.747 27.427zm-113.949-73.104c7.613 0 14.835 1.331 20.138 2.656 4.517 1.129 9.073 2.583 13.639 4.343v44.892l-49.557-49.557c5.115-1.696 10.539-2.334 15.78-2.334zm-16.398 103.104h50.174v50.174c-9.506-6.442-18.75-14.07-27.427-22.747-8.677-8.678-16.305-17.922-22.747-27.427zm93.812 70.448c-4.517-1.129-9.073-2.583-13.638-4.343v-44.891l49.56 49.56c-12.552 4.159-26.97 1.912-35.922-.326z" fill="#ffdc14"/><path d="m436.306 321.883c8.665 8.669 16.284 17.903 22.719 27.398h-50.118l-30.055 30.055v50.119c-9.495-6.435-18.73-14.054-27.399-22.72l-21.213 21.213c25.498 25.489 55.674 43.56 84.973 50.885 9.584 2.396 18.764 3.58 27.413 3.58 20.255 0 37.58-6.497 50.22-19.137 35.679-35.679 20.16-107.099-35.328-162.606zm-13.815 127.847c-4.517-1.129-9.073-2.583-13.638-4.343v-44.891l49.56 49.56c-12.552 4.159-26.97 1.912-35.922-.326zm56.809-56.81c2.238 8.954 4.486 23.372.326 35.923l-49.561-49.561h44.892c1.76 4.565 3.214 9.121 4.343 13.638z" fill="#fdbe00"/></svg>