<svg height="496pt" viewBox="-88 0 496 496" width="496pt" xmlns="http://www.w3.org/2000/svg"><path d="m88 456h199.121094c-2.5625 4.238281-5.359375 8.320312-8.320313 12.238281-9.28125 12.402344-23.921875 19.761719-39.519531 19.761719h-158.5625c-7.757812 0-15.359375-1.839844-22.160156-5.199219-6.71875-3.441406-12.71875-8.402343-17.359375-14.5625-2.960938-3.917969-5.757813-8-8.320313-12.238281zm0 0" fill="#ccd1d9"/><path d="m208 104 32 48h-160l32-48zm0 0" fill="#ccd1d9"/><path d="m305.28125 321.921875c4.480469 15.117187 6.71875 30.878906 6.71875 46.796875 0 18-2.878906 35.679688-8.558594 52.480469-4.082031 12.160156-9.519531 23.839843-16.320312 34.800781h-254.242188c-6.800781-10.960938-12.238281-22.640625-16.320312-34.800781-5.679688-16.800781-8.558594-34.480469-8.558594-52.480469 0-31.839844 9.121094-62.957031 26.320312-89.679688l15.359376-23.917968c9.921874-15.441406 17.519531-32.082032 22.640624-49.359375 5.039063-17.441407 7.679688-35.523438 7.679688-53.761719h160c0 36.558594 10.480469 72.320312 30.320312 103.121094l15.359376 23.917968c8.558593 13.359376 15.199218 27.839844 19.601562 42.882813zm0 0" fill="#ffeaa7"/><path d="m224 40v48c0 8.800781-7.199219 16-16 16h-96c-8.800781 0-16-7.199219-16-16v-48h48v16c0 4.398438 1.761719 8.398438 4.71875 11.28125 2.882812 2.957031 6.882812 4.71875 11.28125 4.71875 8.800781 0 16-7.199219 16-16v-16zm0 0" fill="#aab2bd"/><path d="m224 24v16h-128v-16c0-8.800781 7.199219-16 16-16h96c8.800781 0 16 7.199219 16 16zm0 0" fill="#ccd1d9"/><g fill="#ffc729"><path d="m176 40v16c0 8.800781-7.199219 16-16 16-4.398438 0-8.398438-1.761719-11.28125-4.71875-2.957031-2.882812-4.71875-6.882812-4.71875-11.28125v-16zm0 0"/><path d="m160 184h48v32h-48zm0 0"/><path d="m112 184h48v32h-48zm0 0"/></g><path d="m160 248c48.640625 0 88 39.359375 88 88s-39.359375 88-88 88-88-39.359375-88-88 39.359375-88 88-88zm0 0" fill="#e6e9ed"/><path d="m194.320312 334.960938c3.679688 5.917968 5.679688 12.71875 5.679688 19.757812 0 20.5625-16.71875 37.28125-37.28125 37.28125h-5.4375c-10.242188 0-19.601562-4.160156-26.320312-10.960938-6.800782-6.71875-10.960938-16.078124-10.960938-26.320312 0-7.039062 2-13.839844 5.679688-19.757812l34.320312-54.960938zm0 0" fill="#dfb28b"/><path d="m292.382812 274.695312-15.375-23.910156c-18.976562-29.539062-29.007812-63.6875-29.007812-98.785156v-2.425781l-27.472656-41.207031c6.855468-4.222657 11.472656-11.734376 11.472656-20.367188v-64c0-13.230469-10.769531-24-24-24h-96c-13.230469 0-24 10.769531-24 24v64c0 8.632812 4.617188 16.144531 11.472656 20.375l-27.472656 41.199219v2.425781c0 35.097656-10.03125 69.246094-29.007812 98.785156l-15.375 23.910156c-18.074219 28.097657-27.617188 60.601563-27.617188 94.015626 0 37.367187 12.351562 74.417968 34.777344 104.3125 10.78125 14.390624 27.957031 22.976562 45.933594 22.976562h158.578124c17.976563 0 35.152344-8.585938 45.933594-22.976562 22.425782-29.894532 34.777344-66.945313 34.777344-104.3125 0-33.414063-9.542969-65.917969-27.617188-94.015626zm-188.382812-226.695312h32v8c0 13.230469 10.769531 24 24 24s24-10.769531 24-24v-8h32v40c0 4.40625-3.585938 8-8 8h-96c-4.414062 0-8-3.59375-8-8zm48 0h16v8c0 4.40625-3.585938 8-8 8s-8-3.59375-8-8zm51.71875 64 21.335938 32h-130.109376l21.335938-32zm-91.71875-96h96c4.414062 0 8 3.59375 8 8v8h-112v-8c0-4.40625 3.585938-8 8-8zm127.289062 464h-158.578124c-12.71875 0-24.847657-5.984375-32.65625-16h39.945312v-16h-50.480469c-13.894531-23.984375-21.519531-51.511719-21.519531-79.289062 0-30.335938 8.671875-59.847657 25.070312-85.359376l15.378907-23.917968c19.199219-29.867188 29.863281-64.097656 31.277343-99.433594h144.554688c1.414062 35.335938 12.078125 69.566406 31.277344 99.433594l15.378906 23.917968c16.390625 25.503907 25.0625 55.023438 25.0625 85.359376 0 27.777343-7.625 55.304687-21.519531 79.289062h-178.480469v16h167.945312c-7.808593 10.015625-19.9375 16-32.65625 16zm0 0"/><path d="m216 176h-112v48h112zm-96 16h32v16h-32zm80 16h-32v-16h32zm0 0"/><path d="m118.886719 330.6875c-4.503907 7.199219-6.886719 15.496094-6.886719 24.007812 0 24.984376 20.320312 45.304688 45.304688 45.304688h5.390624c24.984376 0 45.304688-20.320312 45.304688-45.304688 0-8.496093-2.382812-16.792968-6.886719-24.007812l-41.113281-65.785156zm73.113281 24.007812c0 16.152344-13.152344 29.304688-29.304688 29.304688h-5.390624c-16.152344 0-29.304688-13.152344-29.304688-29.304688 0-5.503906 1.535156-10.863281 4.457031-15.519531l27.542969-44.078125 27.535156 44.070313c2.929688 4.664062 4.464844 10.03125 4.464844 15.527343zm0 0"/><path d="m227.878906 403.878906c35.386719-35.382812 37.875-90.992187 5.800782-129.359375l-12.28125 10.265625c26.730468 31.957032 24.65625 78.292969-4.832032 107.78125-29.488281 29.488282-75.8125 31.546875-107.78125 4.832032l-10.265625 12.28125c18.007813 15.054687 39.816407 22.496093 61.542969 22.496093 24.570312-.007812 49.050781-9.519531 67.816406-28.296875zm0 0"/><path d="m103.433594 279.433594c29.488281-29.472656 75.8125-31.5625 107.78125-4.832032l10.265625-12.28125c-38.367188-32.054687-93.976563-29.578124-129.359375 5.808594-35.386719 35.382813-37.875 90.992188-5.800782 129.359375l12.28125-10.265625c-26.730468-31.976562-24.65625-78.3125 4.832032-107.789062zm0 0"/></svg>