<svg height="384pt" viewBox="-112 0 384 384" width="384pt" xmlns="http://www.w3.org/2000/svg"><path d="m16 208h128v96h-128zm0 0" fill="#cce4ff"/><path d="m112 64v-48h-64v64h64zm0 0" fill="#cce4ff"/><path d="m160 320v-128c0-40.855469-19.96875-62.863281-32-72.414062v-119.585938h-96v119.585938c-12.03125 9.550781-32 31.558593-32 72.414062v192h160zm-96-288h32v32h-32zm64 320h-96v-32h96zm0-64h-96v-64h96zm-96-96c0-36.777344 22.414062-49.28125 23.160156-49.6875l8.839844-4.425781v-41.886719h32v41.886719l8.839844 4.425781c.238281.113281 23.160156 12.617188 23.160156 49.6875zm0 0" fill="#007aff"/></svg>