<svg id="icons" enable-background="new 0 0 64 64" height="512" viewBox="0 0 64 64" width="512" xmlns="http://www.w3.org/2000/svg"><path d="m37 1v6.01h-1-8-1v-6.01z" fill="#94c1ff"/><path d="m35 39c0 1.66-1.34 3-3 3s-3-1.34-3-3c0-1.65 3-5 3-5s3 3.35 3 5z" fill="#94c1ff"/><path d="m42 34.01v19h-20v-19-4.01h20zm-10 7.99c1.66 0 3-1.34 3-3 0-1.65-3-5-3-5s-3 3.35-3 5c0 1.66 1.34 3 3 3z" fill="#fff"/><path d="m45.99 24h.01v10.01h-.01-3.99v-4.01h-20v4.01h-4v-9.99-.02c.01-2.2 1.8-3.98 4-3.99h.02 5.98v-13h8v13h5.99c2.2 0 3.99 1.78 4 3.99z" fill="#d7e9ff"/><path d="m46 34.01v24.99c0 2.21-1.79 4-4 4h-20c-2.21 0-4-1.79-4-4v-24.99h4v19h20v-19h3.99z" fill="#94c1ff"/><g fill="#116fff"><path d="m18.004 25.02c-.553 0-1-.447-1-1 0-2.764 2.248-5.012 5.012-5.012.553 0 1 .447 1 1s-.447 1-1 1c-1.661 0-3.012 1.351-3.012 3.012 0 .552-.447 1-1 1z"/><path d="m45.994 25.014c-.553 0-1-.447-1-1 0-1.657-1.349-3.006-3.006-3.006-.553 0-1-.447-1-1s.447-1 1-1c2.76 0 5.006 2.246 5.006 5.006 0 .552-.447 1-1 1z"/><path d="m28 21.008c-.553 0-1-.447-1-1v-13.004c0-.553.447-1 1-1s1 .447 1 1v13.004c0 .553-.447 1-1 1z"/><path d="m35.997 21.008c-.553 0-1-.447-1-1v-13.004c0-.553.447-1 1-1s1 .447 1 1v13.004c0 .553-.447 1-1 1z"/><path d="m28 21.008h-5.998c-.553 0-1-.447-1-1s.447-1 1-1h5.998c.553 0 1 .447 1 1s-.447 1-1 1z"/><path d="m41.99 21.008h-5.993c-.553 0-1-.447-1-1s.447-1 1-1h5.993c.553 0 1 .447 1 1s-.447 1-1 1z"/><path d="m18.004 60c-.553 0-1-.447-1-1v-34.998c0-.553.447-1 1-1s1 .447 1 1v34.998c0 .553-.447 1-1 1z"/><path d="m45.996 60c-.553 0-1-.447-1-1v-34.998c0-.553.447-1 1-1s1 .447 1 1v34.998c0 .553-.447 1-1 1z"/><path d="m37 8.004h-10c-.553 0-1-.447-1-1v-6.004c0-.553.447-1 1-1h10c.553 0 1 .447 1 1v6.004c0 .553-.447 1-1 1zm-9-2h8v-4.004h-8z"/><path d="m22.004 64c-2.757 0-5-2.243-5-5 0-.553.447-1 1-1s1 .447 1 1c0 1.654 1.346 3 3 3 .553 0 1 .447 1 1s-.447 1-1 1z"/><path d="m41.996 64c-.553 0-1-.447-1-1s.447-1 1-1c1.654 0 3-1.346 3-3 0-.553.447-1 1-1s1 .447 1 1c0 2.757-2.243 5-5 5z"/><path d="m41.996 64h-19.992c-.553 0-1-.447-1-1s.447-1 1-1h19.992c.553 0 1 .447 1 1s-.447 1-1 1z"/><path d="m42 54.005h-20c-.553 0-1-.447-1-1v-23.004c0-.553.447-1 1-1h20c.553 0 1 .447 1 1v23.004c0 .553-.447 1-1 1zm-19-2h18v-21.004h-18z"/><path d="m32 43.003c-2.206 0-4-1.794-4-4 0-1.941 2.712-5.063 3.256-5.67.379-.422 1.109-.422 1.488 0 .544.606 3.256 3.729 3.256 5.67 0 2.206-1.794 4-4 4zm0-7.453c-1.061 1.326-2 2.815-2 3.453 0 1.103.897 2 2 2s2-.897 2-2c0-.62-.937-2.119-2-3.453z"/><path d="m38.002 47.002h-12.004c-.553 0-1-.447-1-1s.447-1 1-1h12.004c.553 0 1 .447 1 1s-.447 1-1 1z"/><path d="m35.001 50.002h-6.002c-.553 0-1-.447-1-1s.447-1 1-1h6.002c.553 0 1 .447 1 1s-.447 1-1 1z"/><path d="m22 35.005h-3.996c-.553 0-1-.447-1-1s.447-1 1-1h3.996c.553 0 1 .447 1 1s-.447 1-1 1z"/><path d="m45.994 35.005h-3.994c-.553 0-1-.447-1-1s.447-1 1-1h3.994c.553 0 1 .447 1 1s-.447 1-1 1z"/></g></svg>