<svg height="512pt" viewBox="-41 0 512 512.001" width="512pt" xmlns="http://www.w3.org/2000/svg"><path d="m105.648438 97.523438c-4.035157 0-7.527344-2.992188-8.058594-7.09375-.570313-4.449219 2.578125-8.523438 7.03125-9.089844l316.953125-40.636719c4.476562-.589844 8.515625 2.578125 9.09375 7.027344.574219 4.449219-2.578125 8.523437-7.03125 9.089843l-316.949219 40.636719c-.351562.046875-.699219.066407-1.039062.066407zm0 0" fill="#ecbd83"/><path d="m97.402344 8.128906h97.648437v16.253906h-97.648437c-4.417969 0-8-3.582031-8-8v-.253906c0-4.417968 3.578125-8 8-8zm0 0" fill="#e2a975"/><path d="m422.605469 24.382812h-325.078125c-4.492188 0-8.125-3.640624-8.125-8.128906 0-4.488281 3.632812-8.125 8.125-8.125h325.078125c4.492187 0 8.128906 3.636719 8.128906 8.125 0 4.488282-3.636719 8.128906-8.128906 8.128906zm0 0" fill="#ecbd83"/><path d="m227.558594 65.574219-122.9375 15.761719c-4.449219.566406-7.601563 4.644531-7.03125 9.09375.53125 4.101562 4.023437 7.09375 8.058594 7.09375.339843 0 .6875-.019532 1.039062-.066407l120.871094-15.496093zm0 0" fill="#e2a975"/><g fill="#ffe09f"><path d="m227.6875 56.890625h-.253906c-4.417969 0-8 3.582031-8 8v124.277344h16.253906v-124.277344c0-4.417969-3.582031-8-8-8zm0 0"/><path d="m130.160156 0h-.253906c-4.417969 0-8 3.582031-8 8v181.167969h16.253906v-181.167969c0-4.417969-3.578125-8-8-8zm0 0"/><path d="m162.667969 0h-.253907c-4.417968 0-8 3.582031-8 8v181.167969h16.253907v-181.167969c0-4.417969-3.578125-8-8-8zm0 0"/><path d="m195.179688 0h-.257813c-4.417969 0-8 3.582031-8 8v181.167969h16.257813v-181.167969c0-4.417969-3.582032-8-8-8zm0 0"/></g><path d="m333.203125 260.0625c-1.222656 0-2.460937-.273438-3.628906-.855469-4.015625-2.007812-5.640625-6.890625-3.632813-10.90625l32.507813-65.015625c2.015625-4.019531 6.886719-5.644531 10.902343-3.632812 4.015626 2.007812 5.644532 6.886718 3.636719 10.902344l-32.507812 65.015624c-1.429688 2.851563-4.292969 4.492188-7.277344 4.492188zm0 0" fill="#f4dbb3"/><path d="m40.648438 260.0625c-2.984376 0-5.851563-1.640625-7.28125-4.492188l-32.507813-65.015624c-2.007813-4.015626-.378906-8.894532 3.636719-10.902344 4.007812-2.011719 8.886718-.386719 10.90625 3.632812l32.507812 65.015625c2.007813 4.015625.378906 8.898438-3.636718 10.90625-1.167969.582031-2.40625.855469-3.625.855469zm0 0" fill="#eac89f"/><path d="m288.070312 186.921875h-202.292968c-2.800782 0-5.40625 1.441406-6.890625 3.820313l-38.246094 61.195312 31.617187 252.945312c.507813 4.066407 3.964844 7.117188 8.0625 7.117188h213.207032c4.097656 0 7.554687-3.050781 8.0625-7.117188l31.621094-252.945312-38.25-61.195312c-1.484376-2.378907-4.089844-3.820313-6.890626-3.820313zm0 0" fill="#f9eac7"/><path d="m288.070312 186.921875h-202.292968c-2.800782 0-5.40625 1.441406-6.890625 3.816406l-36.71875 58.75c-.472657.757813-.796875 1.589844-1 2.449219h291.511719c-.203126-.859375-.527344-1.691406-1-2.449219l-36.71875-58.75c-1.484376-2.375-4.089844-3.816406-6.890626-3.816406zm0 0" fill="#f4dbb3"/><path d="m45.058594 244.863281-4.417969 7.074219 1.640625 13.132812 133.152344 133.152344-103.5625 103.5625.386718 3.097656c.507813 4.066407 3.964844 7.117188 8.0625 7.117188h4.320313l102.285156-102.285156 102.285157 102.285156h4.316406c4.097656 0 7.554687-3.050781 8.0625-7.117188l.390625-3.097656zm0 0" fill="#f4dbb3"/><path d="m121.90625 170.667969h16.253906v16.253906h-16.253906zm0 0" fill="#f6d190"/><path d="m154.414062 170.667969h16.253907v16.253906h-16.253907zm0 0" fill="#f6d190"/><path d="m186.921875 170.667969h16.257813v16.253906h-16.257813zm0 0" fill="#f6d190"/><path d="m219.433594 170.667969h16.253906v16.253906h-16.253906zm0 0" fill="#f6d190"/><path d="m333.210938 251.9375-10.160157-16.253906h-211.859375c-16.175781 0-26.09375-17.734375-17.628906-31.519532l10.589844-17.242187h-18.375c-2.800782 0-5.40625 1.441406-6.890625 3.820313l-38.246094 61.195312zm0 0" fill="#eac89f"/></svg>