<?xml version="1.0" encoding="iso-8859-1"?>
<!-- Generator: Adobe Illustrator 18.0.0, SVG Export Plug-In . SVG Version: 6.00 Build 0)  -->
<!DOCTYPE svg PUBLIC "-//W3C//DTD SVG 1.1//EN" "http://www.w3.org/Graphics/SVG/1.1/DTD/svg11.dtd">
<svg version="1.1" id="Capa_1" xmlns="http://www.w3.org/2000/svg"  x="0px" y="0px"
	 viewBox="0 0 297.498 297.498" style="enable-background:new 0 0 297.498 297.498;" xml:space="preserve">
<g id="XMLID_26_">
	<g>
		<path style="fill:#F5B543;" d="M272.585,51.719c6.29,6.29,4.7,18.511-3.47,26.681L78.434,269.079
			c-4.659,4.66-10.68,7.33-16.519,7.33c-1.44,0-3.18-0.17-4.96-0.73c-1.78-0.569-3.6-1.529-5.2-3.13l-13.04-13.04
			c-22.31-22.3-19.319-52.62-12.88-74.13c3.32-11.08,8.37-22.63,14.93-34.33l0.96,25.03c0.21,5.61,4.82,10.01,10.391,10.01
			c0.13,0,0.27,0,0.41-0.01c5.739-0.22,10.22-5.05,9.989-10.8l-2.06-53.86c0-0.03-0.01-0.07-0.01-0.1
			c8.37-10.96,17.91-21.851,28.479-32.42c5.42-5.41,10.9-10.54,16.44-15.381l0.93,44.891c0.12,5.67,4.75,10.189,10.4,10.189
			c0.069,0,0.149,0,0.22,0c5.75-0.119,10.31-4.88,10.19-10.619l-1.271-60.891c17.72-12.95,35.5-22.74,52.32-28.82l2.529,21.431
			c0.631,5.3,5.12,9.189,10.33,9.189c0.4,0,0.82-0.019,1.23-0.069c5.71-0.681,9.79-5.851,9.11-11.561l-2.9-24.56
			c5.729-1.061,11.29-1.61,16.62-1.61c17.83,0,32.8,5.92,44.47,17.59c0.01,0.011,0.021,0.03,0.04,0.04
			C260.094,39.23,272.585,51.719,272.585,51.719z"/>
		<path d="M287.304,36.999c14.511,14.52,12.96,39.69-3.47,56.12l-190.68,190.68c-4.271,4.271-9.25,7.62-14.58,9.91
			c-5.32,2.29-11,3.51-16.66,3.51c-9.62,0-18.46-3.529-24.88-9.95l-13.04-13.039c-23.4-23.4-29.66-56.191-18.09-94.82
			c10.17-33.98,34.43-71.36,68.31-105.23c46.97-46.97,98.31-73.899,140.86-73.899c23.55,0,43.47,7.97,59.189,23.689l-0.01,0.011
			c0.19,0.17,0.38,0.35,0.57,0.539L287.304,36.999z M269.115,78.4c8.17-8.17,9.76-20.391,3.47-26.681c0,0-12.49-12.489-13-13
			c-0.02-0.01-0.03-0.029-0.04-0.04c-11.67-11.67-26.64-17.59-44.47-17.59c-5.33,0-10.891,0.55-16.62,1.61l2.9,24.56
			c0.68,5.71-3.4,10.88-9.11,11.561c-0.41,0.05-0.83,0.069-1.23,0.069c-5.21,0-9.699-3.89-10.33-9.189l-2.529-21.431
			c-16.82,6.08-34.601,15.87-52.32,28.82l1.271,60.891c0.119,5.739-4.44,10.5-10.19,10.619c-0.07,0-0.15,0-0.22,0
			c-5.65,0-10.28-4.519-10.4-10.189l-0.93-44.891c-5.54,4.841-11.021,9.971-16.44,15.381c-10.569,10.569-20.109,21.46-28.479,32.42
			c0,0.029,0.01,0.069,0.01,0.1l2.06,53.86c0.23,5.75-4.25,10.58-9.989,10.8c-0.141,0.01-0.28,0.01-0.41,0.01
			c-5.57,0-10.181-4.399-10.391-10.01l-0.96-25.03c-6.56,11.7-11.609,23.25-14.93,34.33c-6.439,21.51-9.43,51.83,12.88,74.13
			l13.04,13.04c1.601,1.601,3.42,2.561,5.2,3.13c1.78,0.56,3.52,0.73,4.96,0.73c5.84,0,11.86-2.67,16.519-7.33L269.115,78.4z"/>
	</g>
	<g>
	</g>
</g>
<g>
</g>
<g>
</g>
<g>
</g>
<g>
</g>
<g>
</g>
<g>
</g>
<g>
</g>
<g>
</g>
<g>
</g>
<g>
</g>
<g>
</g>
<g>
</g>
<g>
</g>
<g>
</g>
<g>
</g>
</svg>
