<svg id="icons" enable-background="new 0 0 64 64" height="512" viewBox="0 0 64 64" width="512" xmlns="http://www.w3.org/2000/svg"><path d="m13.995 1v5 57h44v-62z" fill="#ffce54"/><g fill="#965353"><path d="m38.995 12.98v.02l-3 2.99-3-2.99v-.02l3-2.99z"/><path d="m46.005 18.99 1.99 1.99h-5.98l2.99-2.99z"/><path d="m29.985 20.98h-5.98l2.99-2.99z"/><path d="m35.985 20.98h-5.98l2.99-2.99z"/><path d="m41.985 20.98h-5.98l2.99-2.99z"/></g><path d="m49.005 20.98v2c0 7.189-5.82 13.01-13.01 13.01-7.18 0-13-5.82-13-13.01v-2h1.01 5.98l.01.01.01-.01h5.98l.01.01.01-.01h5.98.029 5.98z" fill="#e6e9ed"/><path d="m6.005 6h7.99v57h-7.99z" fill="#f6bb42"/><path d="m6.005 1h7.99v5h-7.99z" fill="#656d78"/><path d="m57.999 64h-43.999c-.553 0-1-.447-1-1v-62c0-.553.447-1 1-1h43.999c.553 0 1 .447 1 1v62c0 .553-.447 1-1 1zm-42.999-2h41.999v-60h-41.999z"/><path d="m14 64h-7.999c-.553 0-1-.447-1-1v-62c0-.553.447-1 1-1h7.999c.553 0 1 .447 1 1v62c0 .553-.447 1-1 1zm-6.999-2h5.999v-60h-5.999z"/><path d="m36 36.992c-7.724 0-14.008-6.284-14.008-14.008 0-.553.447-1 1-1s1 .447 1 1c0 6.621 5.387 12.008 12.008 12.008s12.008-5.387 12.008-12.008c0-.553.447-1 1-1s1 .447 1 1c0 7.724-6.284 14.008-14.008 14.008z"/><path d="m49.008 21.982h-26.016c-.553 0-1-.447-1-1s.447-1 1-1h26.016c.553 0 1 .447 1 1s-.447 1-1 1z"/><path d="m24 21.986c-.256 0-.512-.098-.707-.293-.391-.391-.391-1.024 0-1.414l2.998-2.996c.391-.391 1.023-.391 1.414 0s.391 1.024 0 1.414l-2.998 2.996c-.195.196-.451.293-.707.293z"/><path d="m30 21.99c-.256 0-.512-.098-.707-.293l-3.002-3c-.391-.39-.391-1.023 0-1.414s1.023-.391 1.414 0l3.002 3c.391.39.391 1.023 0 1.414-.195.196-.451.293-.707.293z"/><path d="m29.994 21.986c-.256 0-.512-.098-.707-.293-.391-.391-.391-1.024 0-1.414l2.998-2.996c.391-.391 1.023-.391 1.414 0s.391 1.024 0 1.414l-2.998 2.996c-.195.196-.451.293-.707.293z"/><path d="m35.994 21.99c-.256 0-.512-.098-.707-.293l-3.002-3c-.391-.39-.391-1.023 0-1.414s1.023-.391 1.414 0l3.002 3c.391.39.391 1.023 0 1.414-.195.196-.451.293-.707.293z"/><path d="m36 21.986c-.256 0-.512-.098-.707-.293-.391-.391-.391-1.024 0-1.414l2.998-2.996c.391-.391 1.023-.391 1.414 0s.391 1.024 0 1.414l-2.998 2.996c-.195.196-.451.293-.707.293z"/><path d="m42 21.99c-.256 0-.512-.098-.707-.293l-3.002-3c-.391-.39-.391-1.023 0-1.414s1.023-.391 1.414 0l3.002 3c.391.39.391 1.023 0 1.414-.195.196-.451.293-.707.293z"/><path d="m42.006 21.986c-.256 0-.512-.098-.707-.293-.391-.391-.391-1.024 0-1.414l2.998-2.996c.391-.391 1.023-.391 1.414 0s.391 1.024 0 1.414l-2.998 2.996c-.195.196-.451.293-.707.293z"/><path d="m48.006 21.99c-.256 0-.512-.098-.707-.293l-3.002-3c-.391-.39-.391-1.023 0-1.414s1.023-.391 1.414 0l3.002 3c.391.39.391 1.023 0 1.414-.195.196-.451.293-.707.293z"/><path d="m35.996 16.99c-.255 0-.511-.097-.705-.291l-3.002-2.988c-.392-.39-.394-1.023-.004-1.414s1.024-.394 1.414-.004l3.002 2.988c.392.39.394 1.023.004 1.414-.195.197-.452.295-.709.295z"/><path d="m35.996 16.986c-.257 0-.514-.099-.709-.295-.39-.391-.388-1.024.004-1.414l2.998-2.984c.39-.391 1.024-.388 1.414.004.39.391.388 1.024-.004 1.414l-2.998 2.984c-.194.195-.45.291-.705.291z"/><path d="m38.994 13.979c-.255 0-.511-.097-.705-.291l-3.002-2.988c-.392-.39-.394-1.023-.004-1.414s1.024-.394 1.414-.004l3.002 2.988c.392.39.394 1.023.004 1.414-.195.196-.452.295-.709.295z"/><path d="m32.994 13.979c-.257 0-.514-.099-.709-.295-.39-.391-.388-1.024.004-1.414l2.998-2.984c.39-.391 1.024-.388 1.414.004.39.391.388 1.024-.004 1.414l-2.998 2.984c-.194.194-.45.291-.705.291z"/><path d="m22.992 23.984c-.553 0-1-.447-1-1v-2.002c0-.553.447-1 1-1s1 .447 1 1v2.002c0 .553-.447 1-1 1z"/><path d="m49.008 23.984c-.553 0-1-.447-1-1v-2.002c0-.553.447-1 1-1s1 .447 1 1v2.002c0 .553-.447 1-1 1z"/><path d="m46.005 19.99c-.256 0-.512-.098-.707-.293-.391-.391-.391-1.023 0-1.414l4.998-4.999c.391-.391 1.023-.391 1.414 0s.391 1.023 0 1.414l-4.998 4.999c-.195.196-.451.293-.707.293z"/><path d="m49.008 42.002h-26.016c-.553 0-1-.447-1-1s.447-1 1-1h26.016c.553 0 1 .447 1 1s-.447 1-1 1z"/><path d="m49.008 45.005h-26.016c-.553 0-1-.447-1-1s.447-1 1-1h26.016c.553 0 1 .447 1 1s-.447 1-1 1z"/><path d="m42 48.002h-12c-.553 0-1-.447-1-1s.447-1 1-1h12c.553 0 1 .447 1 1s-.447 1-1 1z"/><path d="m30.027 56c-.553 0-1.005-.447-1.005-1s.442-1 .994-1h.011c.552 0 1 .447 1 1s-.448 1-1 1z"/><path d="m36.033 56c-.553 0-1.005-.447-1.005-1s.442-1 .994-1h.011c.552 0 1 .447 1 1s-.448 1-1 1z"/><path d="m42.039 56c-.553 0-1.005-.447-1.005-1s.442-1 .994-1h.011c.552 0 1 .447 1 1s-.448 1-1 1z"/><path d="m14 7h-7.999c-.553 0-1-.447-1-1s.447-1 1-1h7.999c.553 0 1 .447 1 1s-.447 1-1 1z"/></svg>