<?xml version="1.0" encoding="iso-8859-1"?>
<!-- Generator: Adobe Illustrator 19.0.0, SVG Export Plug-In . SVG Version: 6.00 Build 0)  -->
<svg version="1.1" id="Capa_1" xmlns="http://www.w3.org/2000/svg"  x="0px" y="0px"
	 viewBox="0 0 512 512" style="enable-background:new 0 0 512 512;" xml:space="preserve">
<path style="fill:#805142;" d="M398.902,512l-47.635-20.057L303.632,512l-47.635-20.057L208.363,512l-47.635-20.057L113.093,512
	l-62.677-26.39v-97.235h411.164v97.235L398.902,512z"/>
<polygon style="fill:#704639;" points="255.997,388.374 255.997,491.943 303.632,512 351.267,491.943 398.902,512 461.579,485.609 
	461.579,388.374 "/>
<path style="fill:#805142;" d="M461.579,123.625H50.416V26.39L113.093,0l47.635,20.057L208.363,0l47.635,20.057L303.632,0
	l47.635,20.057L398.902,0l62.677,26.39V123.625z"/>
<polygon style="fill:#704639;" points="461.579,26.39 398.902,0 351.267,20.057 303.632,0 255.997,20.057 255.997,123.625 
	461.579,123.625 "/>
<path style="fill:#FFC247;" d="M461.579,418.459H50.416V93.54h411.164V418.459z"/>
<rect x="256.003" y="93.545" style="fill:#FFA426;" width="205.582" height="324.92"/>
<path style="fill:#FFE89C;" d="M255.997,302.13c-49.767,0-90.255-40.489-90.255-90.255v-60.17h180.511v60.17
	C346.253,261.641,305.764,302.13,255.997,302.13z"/>
<path style="fill:#FF2B47;" d="M356.281,241.96c-22.119,0-40.114-17.995-40.114-40.114s17.995-40.114,40.114-40.114
	s40.114,17.995,40.114,40.114S378.4,241.96,356.281,241.96z M356.281,191.818c-5.53,0-10.028,4.499-10.028,10.028
	c0,5.53,4.499,10.028,10.028,10.028s10.028-4.499,10.028-10.028C366.31,196.317,361.811,191.818,356.281,191.818z"/>
<rect x="178.784" y="328.199" style="fill:#D18A56;" width="154.437" height="30.085"/>
<rect x="256.003" y="328.199" style="fill:#B56D3C;" width="77.219" height="30.085"/>
<path style="fill:#FAD17F;" d="M255.997,151.704V302.13c49.767,0,90.255-40.489,90.255-90.255v-60.17H255.997z"/>
<rect x="138.67" y="272.04" style="fill:#FF475A;" width="234.664" height="30.085"/>
<rect x="256.003" y="272.04" style="fill:#FF2B47;" width="117.332" height="30.085"/>
<g>
</g>
<g>
</g>
<g>
</g>
<g>
</g>
<g>
</g>
<g>
</g>
<g>
</g>
<g>
</g>
<g>
</g>
<g>
</g>
<g>
</g>
<g>
</g>
<g>
</g>
<g>
</g>
<g>
</g>
</svg>
