<svg enable-background="new 0 0 110 110" height="512" viewBox="0 0 110 110" width="512" xmlns="http://www.w3.org/2000/svg"><path d="m31.870361 23.624819h46.259285v8.470251h-46.259285z" fill="#dbd8dd"/><path d="m78.1296463 28.2800293h-46.259285l-4.3897667 4.3920441c-.9735184.8432961-1.5328407 2.0677986-1.5328407 3.3557777v51.5096245c0 1.2164841.4488888 2.3901901 1.2606506 3.2962189l2.3168411 1.9496307c.9370155 1.0458221 2.2748432 1.6434326 3.6790314 1.6434326h43.2710342c1.1953049 0 2.3500748-.4333954 3.2502136-1.2198486l2.6370239-2.3039551c1.0736847-.9380722 1.6896973-2.2942963 1.6896973-3.720047v-51.4193993c0-1.1327057-.4329376-2.2225761-1.2101898-3.0465279z" fill="#ededed"/><path d="m33.2046509 92.4263916c-.8349609 0-1.6328125-.3564453-2.1914062-.9785156l-.0927734-.1035156-2.3017578-1.9384766c-.4335938-.5263672-.6708984-1.1845703-.6708984-1.8681641v-51.5097656c0-.7080078.3066406-1.3798828.8417969-1.84375l.1064453-.0976562 3.8037109-3.8066406h44.6367188l4.0859375 3.8476562c.40625.4482422.6298828 1.0273438.6298828 1.6357422v51.4199219c0 .8476562-.3662109 1.6552734-1.0058594 2.2138672l-2.6367188 2.3027344c-.5361328.46875-1.2226562.7265625-1.9345703.7265625h-43.2705079z" fill="#963e25"/><path d="m77.9990234 15.5721436h-45.9979858c-.8049316 0-1.4574585.6525879-1.4574585 1.4575195v7.6831055c0 .8049316.6525269 1.4575195 1.4574585 1.4575195h45.9979858c.8048706 0 1.4573975-.6525879 1.4573975-1.4575195v-7.6831055c0-.8049317-.6525269-1.4575195-1.4573975-1.4575195z" fill="#dd584d"/><path d="m25.947754 40.124287h58.104492v40.796299h-58.104492z" fill="#feda6f"/><g fill="#ededed"><g opacity=".15"><path d="m40.7437744 94.4278564h-3.0999756c-1.1099854 0-2.1799927-.5999756-2.9299927-1.6400146l-1.8400269-1.9499512c-.6499634-.9100342-1-2.0799561-1-3.3000488v-51.5100098c0-1.289917.4400024-2.5098877 1.2200317-3.3599854l3.4899902-4.3900146h3.2799683l-2.8699951 4.3900146c-.6300049.8500977-1 2.0700684-1 3.3599854v51.5100098c0 1.2200928.2900391 2.3900146.8200073 3.3000488l1.5200195 1.9499512c.6099855 1.0400391 1.4899904 1.6400146 2.4099733 1.6400146z"/><path d="m78.1337891 35.7679443v51.4199219c0 1.4199219-.4899902 2.7800293-1.3499756 3.7199707l-2.1000366 2.3000488c-.7199707.7900391-1.6300049 1.2199707-2.5899658 1.2199707h-3.0400391c.7800293 0 1.5300293-.4299316 2.1199951-1.2199707l1.7300415-2.3000488c.7000122-.9399414 1.0999756-2.3000488 1.0999756-3.7199707v-51.4199219c0-1.1401367-.2799683-2.2301025-.789978-3.0500488l-3.0800171-4.4400635h3.2800293l3.75 4.4400635c.6199951.8199463.9699707 1.9099121.9699707 3.0500488z"/></g><circle cx="55" cy="60.522" r="12.118"/></g></svg>