<svg height="480pt" viewBox="0 -48 480 480" width="480pt" xmlns="http://www.w3.org/2000/svg" xmlns:xlink="http://www.w3.org/1999/xlink"><linearGradient id="lg1"><stop offset="0" stop-color="#006df0"/><stop offset="1" stop-color="#00e7f0"/></linearGradient><linearGradient id="linear0" gradientUnits="userSpaceOnUse" x1="352" x2="352" xlink:href="#lg1" y1="420.44" y2="-41.16"/><linearGradient id="linear1" gradientUnits="userSpaceOnUse" x1="416" x2="416" xlink:href="#lg1" y1="420.44" y2="-41.16"/><linearGradient id="linear2" gradientUnits="userSpaceOnUse" x1="88" x2="88" xlink:href="#lg1" y1="420.44" y2="-41.16"/><linearGradient id="linear3" gradientUnits="userSpaceOnUse" x1="144" x2="144" xlink:href="#lg1" y1="420.44" y2="-41.16"/><linearGradient id="linear4" gradientUnits="userSpaceOnUse" x1="184" x2="184" xlink:href="#lg1" y1="420.44" y2="-41.16"/><linearGradient id="linear5" gradientUnits="userSpaceOnUse" x1="152" x2="152" xlink:href="#lg1" y1="420.44" y2="-41.16"/><linearGradient id="linear6" gradientUnits="userSpaceOnUse" x1="112" x2="112" xlink:href="#lg1" y1="420.44" y2="-41.16"/><linearGradient id="linear7" gradientUnits="userSpaceOnUse" x1="224" x2="224" xlink:href="#lg1" y1="420.44" y2="-41.16"/><linearGradient id="linear8" gradientUnits="userSpaceOnUse" x1="168" x2="168" xlink:href="#lg1" y1="420.44" y2="-41.16"/><linearGradient id="linear9" gradientUnits="userSpaceOnUse" x1="216" x2="216" xlink:href="#lg1" y1="420.44" y2="-41.16"/><linearGradient id="linear12" gradientUnits="userSpaceOnUse" x1="192" x2="192" xlink:href="#lg1" y1="420.44" y2="-41.16"/><linearGradient id="linear13" gradientUnits="userSpaceOnUse" x1="128" x2="128" xlink:href="#lg1" y1="420.44" y2="-41.16"/><linearGradient id="linear14" gradientUnits="userSpaceOnUse" x1="120" x2="120" xlink:href="#lg1" y1="420.44" y2="-41.16"/><linearGradient id="linear15" gradientUnits="userSpaceOnUse" x1="208" x2="208" xlink:href="#lg1" y1="420.44" y2="-41.16"/><linearGradient id="linear16" gradientUnits="userSpaceOnUse" x1="176" x2="176" xlink:href="#lg1" y1="420.44" y2="-41.16"/><linearGradient id="linear18" gradientUnits="userSpaceOnUse" x1="312" x2="312" xlink:href="#lg1" y1="420.44" y2="-41.16"/><path d="m480 0h-136c-22.082031.0273438-39.972656 17.917969-40 40 0 4.417969-3.582031 8-8 8h-8v-8h-40c-13.253906 0-24 10.746094-24 24v64c0 13.253906 10.746094 24 24 24h40v-8h8c4.417969 0 8 3.582031 8 8 .027344 22.082031 17.917969 39.972656 40 40h136v-16h-136c-13.253906 0-24-10.746094-24-24s-10.746094-24-24-24h-8v-64h8c13.253906 0 24-10.746094 24-24s10.746094-24 24-24h136zm-240 128v-64c0-4.417969 3.582031-8 8-8h24v80h-24c-4.417969 0-8-3.582031-8-8zm0 0" fill="url(#linear0)"/><path d="m368 96c0 22.054688 21.527344 40 48 40s48-17.945312 48-40-21.527344-40-48-40-48 17.945312-48 40zm80 0c0 13.230469-14.351562 24-32 24s-32-10.769531-32-24 14.351562-24 32-24 32 10.769531 32 24zm0 0" fill="url(#linear1)"/><path d="m80 344h16v16h-16zm0 0" fill="url(#linear2)"/><path d="m136 344h16v16h-16zm0 0" fill="url(#linear3)"/><path d="m176 280h16v16h-16zm0 0" fill="url(#linear4)"/><path d="m144 256h16v16h-16zm0 0" fill="url(#linear5)"/><path d="m104 272h16v16h-16zm0 0" fill="url(#linear6)"/><path d="m216 256h16v16h-16zm0 0" fill="url(#linear7)"/><path d="m160 208h16v16h-16zm0 0" fill="url(#linear8)"/><path d="m208 200h16v16h-16zm0 0" fill="url(#linear9)"/><path d="m176 176h16v16h-16zm0 0" fill="url(#linear4)"/><path d="m208 160h16v16h-16zm0 0" fill="url(#linear9)"/><path d="m184 240h16v16h-16zm0 0" fill="url(#linear12)"/><path d="m120 232h16v16h-16zm0 0" fill="url(#linear13)"/><path d="m112 328h16v16h-16zm0 0" fill="url(#linear14)"/><path d="m200 344h16v16h-16zm0 0" fill="url(#linear15)"/><path d="m168 336h16v16h-16zm0 0" fill="url(#linear16)"/><path d="m266.457031 358.441406c-31.632812-33.890625-75.972656-53.042968-122.328125-52.839844h-.128906c-46.402344-.179687-90.773438 19.027344-122.398438 52.984376l-8.800781 9.414062h-12.800781v16h288v-16h-12.542969zm-122.417969-36.839844h.089844c41.226563-.15625 80.707032 16.617188 109.214844 46.398438h-218.441406c28.492187-29.757812 67.941406-46.527344 109.136718-46.398438zm0 0" fill="url(#linear3)"/><path d="m304 368h16v16h-16zm0 0" fill="url(#linear18)"/></svg>