<svg height="452pt" viewBox="0 0 452.456 452" width="452pt" xmlns="http://www.w3.org/2000/svg"><path d="m64.820312 22.582031c-1.945312 23.128907-26.046874 26.777344-26.046874 26.777344 20.695312.976563 25.851562 28.121094 25.851562 28.121094.441406-19.351563 26.640625-28.402344 26.640625-28.402344-19.628906-1.175781-26.445313-26.496094-26.445313-26.496094zm0 0" fill="#d7e057"/><path d="m91.445312 46.082031c-17.210937-1.027343-23.664062-24.050781-23.730468-24.28125-.378906-1.40625-1.722656-2.328125-3.164063-2.203125-1.449219.132813-2.597656 1.285156-2.71875 2.734375-1.71875 20.429688-22.625 23.925781-23.507812 24.0625-1.527344.230469-2.625 1.582031-2.546875 3.121094.082031 1.542969 1.316406 2.769531 2.855468 2.84375 18.054688.851563 22.996094 25.4375 23.046876 25.6875.273437 1.421875 1.515624 2.433594 2.941406 2.433594.085937 0 .167968-.003907.253906-.011719 1.527344-.128906 2.714844-1.386719 2.75-2.917969.390625-17.019531 24.382812-25.554687 24.625-25.636719 1.351562-.472656 2.183594-1.832031 1.988281-3.246093-.199219-1.417969-1.367187-2.5-2.792969-2.585938zm-27.132812 20.691407c-2.710938-6.261719-7.417969-13.8125-15.175781-17.753907 5.863281-2.808593 12.820312-7.824219 16.40625-16.542969 3.101562 6.140626 8.398437 13.757813 16.667969 17.441407-6.015626 3.28125-13.84375 8.8125-17.898438 16.855469zm0 0" fill="#3a312a"/><path d="m21.425781 56.546875c-1.378906 16.355469-18.425781 18.941406-18.425781 18.941406 14.636719.6875 18.285156 19.886719 18.285156 19.886719.3125-13.691406 18.84375-20.089844 18.84375-20.089844-13.882812-.832031-18.703125-18.738281-18.703125-18.738281zm0 0" fill="#d7e057"/><path d="m40.304688 72.289062c-11.53125-.691406-15.941407-16.371093-15.984376-16.53125-.378906-1.402343-1.707031-2.324218-3.164062-2.203124-1.453125.132812-2.597656 1.285156-2.71875 2.738281-1.160156 13.738281-15.296875 16.128906-15.886719 16.222656-1.523437.230469-2.6249998 1.582031-2.5429685 3.121094.078125 1.539062 1.3124995 2.769531 2.8515625 2.84375 12.070313.566406 15.449219 17.285156 15.480469 17.449219.269531 1.425781 1.515625 2.441406 2.945312 2.441406.082032 0 .164063-.003906.25-.011719 1.527344-.125 2.714844-1.386719 2.75-2.921875.261719-11.417969 16.664063-17.265625 16.824219-17.324219 1.355469-.464843 2.1875-1.824219 1.992187-3.242187-.195312-1.414063-1.367187-2.496094-2.796874-2.582032zm-19.167969 13.589844c-1.847657-3.773437-4.679688-7.894531-8.894531-10.558594 3.710937-2.082031 7.394531-5.261718 9.742187-9.832031 2.117187 3.746094 5.308594 7.90625 9.882813 10.445313-3.699219 2.203125-7.976563 5.480468-10.730469 9.945312zm0 0" fill="#3a312a"/><path d="m21.425781 3.230469c-1.378906 16.355469-18.425781 18.941406-18.425781 18.941406 14.636719.6875 18.285156 19.886719 18.285156 19.886719.3125-13.6875 18.84375-20.089844 18.84375-20.089844-13.882812-.832031-18.703125-18.738281-18.703125-18.738281zm0 0" fill="#d7e057"/><path d="m40.308594 18.972656c-11.53125-.691406-15.945313-16.371094-15.988282-16.53125-.378906-1.402344-1.707031-2.328125-3.164062-2.203125-1.453125.128907-2.597656 1.285157-2.71875 2.738281-1.160156 13.742188-15.296875 16.132813-15.886719 16.226563-1.523437.230469-2.6249998 1.578125-2.5429685 3.121094.078125 1.539062 1.3124995 2.769531 2.8554685 2.84375 12.070313.566406 15.445313 17.289062 15.476563 17.449219.269531 1.429687 1.519531 2.441406 2.945312 2.441406.082032 0 .167969-.003906.25-.007813 1.53125-.128906 2.71875-1.390625 2.753906-2.921875.257813-11.417968 16.660157-17.269531 16.824219-17.324218 1.351563-.46875 2.1875-1.828126 1.992188-3.246094-.199219-1.414063-1.371094-2.5-2.796875-2.585938zm-19.171875 13.589844c-1.847657-3.769531-4.679688-7.894531-8.894531-10.558594 3.710937-2.082031 7.394531-5.261718 9.742187-9.832031 2.117187 3.746094 5.308594 7.90625 9.882813 10.445313-3.699219 2.203124-7.976563 5.480468-10.730469 9.945312zm0 0" fill="#3a312a"/><path d="m107.570312 46.207031h341.882813v360.039063h-341.882813zm0 0" fill="#f16c7a"/><path d="m449.453125 43.207031h-341.882813c-1.65625 0-3 1.34375-3 3v53.898438c0 1.660156 1.34375 3 3 3 1.660157 0 3-1.339844 3-3v-50.898438h335.882813v354.039063h-335.882813v-272.136719c0-1.65625-1.339843-3-3-3-1.65625 0-3 1.34375-3 3v275.136719c0 1.65625 1.34375 3 3 3h341.882813c1.65625 0 3-1.34375 3-3v-360.039063c0-1.65625-1.34375-3-3-3zm0 0" fill="#3a312a"/><path d="m107.570312 182.601562h341.882813v87.25h-341.882813zm0 0" fill="#fce8cb"/><path d="m449.453125 179.601562h-202.433594c-1.65625 0-3 1.34375-3 3 0 1.660157 1.34375 3 3 3h199.433594v81.25h-335.882813v-81.25h108.890626c1.65625 0 3-1.339843 3-3 0-1.65625-1.34375-3-3-3h-111.890626c-1.65625 0-3 1.34375-3 3v87.25c0 1.65625 1.34375 3 3 3h341.882813c1.65625 0 3-1.34375 3-3v-87.25c0-1.65625-1.34375-3-3-3zm0 0" fill="#3a312a"/><path d="m431.292969 7.839844c-10.105469-5.933594-23.089844-5.878906-33.136719.136718l-.960938.574219c-10.128906 6.066407-23.238281 6.066407-33.367187 0l-.796875-.476562c-10.128906-6.066407-23.238281-6.066407-33.367188 0l-.609374.363281c-10.226563 6.125-23.472657 6.0625-33.628907-.15625-10.101562-6.1875-23.269531-6.285156-33.480469-.246094l-1.230468.726563c-10.0625 5.953125-23.015625 5.949219-33.078125-.003907l-1.496094-.886718c-10.0625-5.953125-23.015625-5.957032-33.078125-.007813l-1.289062.765625c-10.179688 6.019532-23.304688 5.941406-33.398438-.199218l-.277344-.171876c-10.148437-6.171874-23.355468-6.210937-33.546875-.109374l-16.984375 10.171874v27.886719h341.878906v-27.703125zm0 0" fill="#d7e057"/><path d="m450.972656 15.914062-18.160156-10.660156c-11.023438-6.476562-25.234375-6.417968-36.195312.148438h-.003907l-.957031.578125c-9.199219 5.507812-21.085938 5.507812-30.28125 0l-.800781-.480469c-11.066407-6.632812-25.375-6.632812-36.445313-.003906l-.613281.367187c-9.300781 5.574219-21.28125 5.519531-30.523437-.140625-11.042969-6.769531-25.402344-6.878906-36.570313-.273437l-1.230469.730469c-9.121094 5.394531-20.90625 5.390624-30.023437-.007813l-1.496094-.882813c-10.976563-6.496093-25.15625-6.496093-36.132813-.007812l-1.292968.761719c-9.242188 5.464843-21.140625 5.398437-30.3125-.179688l-.277344-.167969c-11.101562-6.753906-25.488281-6.800781-36.640625-.117187l-16.984375 10.167969c-.90625.542968-1.460938 1.519531-1.460938 2.574218v27.886719c0 1.65625 1.34375 3 3 3h341.882813c1.65625 0 3-1.34375 3-3v-27.703125c0-1.066406-.566406-2.046875-1.480469-2.589844zm-4.519531 27.292969h-335.882813v-23.183593l15.527344-9.296876c9.269532-5.554687 21.214844-5.511718 30.445313.097657l.277343.167969c11.035157 6.710937 25.355469 6.796874 36.484376.21875l1.289062-.765626c9.121094-5.390624 20.90625-5.386718 30.023438.007813l1.496093.886719c10.972657 6.492187 25.15625 6.496094 36.136719.003906l1.226562-.726562c9.28125-5.488282 21.203126-5.398438 30.386719.222656 11.117188 6.8125 25.539063 6.882812 36.730469.175781l.613281-.367187c9.195313-5.507813 21.085938-5.511719 30.277344 0l.800781.480468c11.070313 6.628906 25.375 6.628906 36.449219 0l.960937-.578125c9.105469-5.453125 20.910157-5.503906 30.074219-.121093l16.679688 9.792968v22.984375zm0 0" fill="#3a312a"/><path d="m107.570312 406.183594v27.886718l16.984376 10.171876c10.195312 6.105468 23.402343 6.0625 33.546874-.109376l.277344-.171874c10.09375-6.140626 23.21875-6.214844 33.398438-.195313l1.289062.761719c10.066406 5.949218 23.019532 5.949218 33.078125-.007813l1.496094-.882812c10.0625-5.957031 23.015625-5.957031 33.082031-.007813l1.230469.726563c10.207031 6.039062 23.375 5.941406 33.480469-.246094 10.152344-6.21875 23.402344-6.28125 33.625-.15625l.613281.367187c10.125 6.066407 23.234375 6.066407 33.363281 0l.800782-.480468c10.125-6.066406 23.234374-6.066406 33.363281 0l.960937.578125c10.046875 6.015625 23.03125 6.070312 33.136719.136719l18.160156-10.664063v-27.703125h-341.886719zm0 0" fill="#d7e057"/><g fill="#3a312a"><path d="m449.453125 403.183594h-341.882813c-1.65625 0-3 1.34375-3 3v27.886718c0 1.054688.554688 2.03125 1.460938 2.574219l16.984375 10.167969c11.15625 6.683594 25.535156 6.632812 36.648437-.121094l.273438-.167968c9.167969-5.578126 21.070312-5.644532 30.316406-.175782l1.285156.757813c5.488282 3.246093 11.773438 4.871093 18.0625 4.871093 6.289063 0 12.585938-1.625 18.074219-4.875l1.496094-.882812c9.117187-5.398438 20.898437-5.402344 30.023437-.003906l1.230469.726562c11.167969 6.605469 25.527344 6.496094 36.570313-.269531 9.242187-5.660156 21.21875-5.714844 30.523437-.144531l.609375.367187c11.074219 6.628907 25.378906 6.628907 36.453125-.003906l.792969-.476563c9.199219-5.511718 21.085938-5.507812 30.28125 0l.964844.574219c10.960937 6.566407 25.167968 6.628907 36.195312.152344l18.160156-10.664063c.914063-.539062 1.480469-1.523437 1.480469-2.585937v-27.707031c-.003906-1.65625-1.347656-3-3.003906-3zm-3 28.988281-16.679687 9.796875c-9.164063 5.378906-20.972657 5.332031-30.074219-.125l-.960938-.578125c-11.070312-6.628906-25.378906-6.628906-36.453125.003906l-.792968.476563c-9.199219 5.507812-21.085938 5.507812-30.285157 0l-.609375-.363282c-11.199218-6.710937-25.617187-6.636718-36.734375.171876-9.183593 5.621093-21.105469 5.707031-30.386719.222656l-1.230468-.726563c-10.972656-6.492187-25.160156-6.492187-36.132813.003907l-1.496093.886718c-9.121094 5.398438-20.902344 5.398438-30.023438.003906l-1.289062-.757812c-5.5-3.253906-11.78125-4.875-18.0625-4.875-6.421876 0-12.84375 1.699219-18.429688 5.09375l-.273438.167969c-9.226562 5.609375-21.171874 5.648437-30.445312.097656l-15.523438-9.296875v-23.183594h335.878907v22.980469zm0 0"/><path d="m177.378906 221.539062c-6.472656-2.457031-9.300781-3.871093-9.300781-7.066406 0-2.605468 2.382813-4.835937 7.292969-4.835937s8.480468 1.414062 10.492187 2.378906l2.527344-9.152344c-2.976563-1.339843-7.144531-2.527343-12.796875-2.527343-11.828125 0-18.972656 6.546874-18.972656 15.101562 0 7.292969 5.433594 11.90625 13.765625 14.808594 6.023437 2.160156 8.40625 3.941406 8.40625 7.070312 0 3.273438-2.753907 5.429688-7.960938 5.429688-4.835937 0-9.523437-1.566406-12.574219-3.125l-2.304687 9.375c2.828125 1.5625 8.480469 3.050781 14.207031 3.050781 13.765625 0 20.238282-7.144531 20.238282-15.550781 0-7.070313-4.164063-11.683594-13.019532-14.957032zm0 0"/><path d="m231.386719 201.152344v28.867187c0 8.855469-3.273438 13.023438-9.226563 13.023438-5.800781 0-9.074218-4.390625-9.074218-13.023438v-28.867187h-11.386719v27.976562c0 15.996094 7.441406 22.988282 20.089843 22.988282 13.09375 0 20.90625-7.363282 20.90625-22.84375v-28.121094zm0 0"/><path d="m279.441406 222.582031v8.851563h7.738282v10.492187c-.890626.449219-2.976563.742188-5.578126.742188-9.304687 0-15.777343-6.101563-15.777343-16.441407 0-10.863281 7.144531-16.21875 16.59375-16.21875 5.503906 0 8.925781.964844 11.679687 2.15625l2.378906-9.078124c-2.453124-1.1875-7.4375-2.453126-13.910156-2.453126-16.441406 0-28.570312 9.523438-28.644531 26.191407-.074219 7.363281 2.453125 13.910156 7.066406 18.226562 4.613281 4.464844 11.234375 6.773438 20.386719 6.773438 6.617188 0 13.242188-1.640625 16.738281-2.828125v-26.414063zm0 0"/><path d="m337.246094 201.152344h-14.882813l-15.324219 50.148437h11.753907l3.574219-12.871093h14.359374l3.871094 12.871093h12.199219zm-13.242188 28.792968 2.972656-10.636718c.820313-2.902344 1.566407-6.699219 2.308594-9.671875h.148438c.742187 2.972656 1.636718 6.695312 2.53125 9.671875l3.125 10.636718zm0 0"/><path d="m396.976562 237.164062c-1.261718-4.609374-3.195312-7.957031-6.695312-9.371093v-.226563c4.316406-1.5625 8.855469-5.953125 8.855469-12.351562 0-4.613282-1.636719-8.109375-4.609375-10.488282-3.574219-2.828124-8.78125-3.945312-16.222656-3.945312-6.027344 0-11.457032.449219-15.105469 1.042969v49.476562h11.234375v-19.714843h3.425781c4.609375.070312 6.769531 1.78125 8.109375 8.03125 1.484375 6.179687 2.679688 10.269531 3.496094 11.683593h11.605468c-.964843-1.933593-2.527343-8.480469-4.09375-14.136719zm-18.078124-13.765624h-4.464844v-13.835938c.820312-.152344 2.382812-.375 5.132812-.375 5.210938.074219 8.335938 2.382812 8.335938 6.996094 0 4.390625-3.347656 7.214844-9.003906 7.214844zm0 0"/></g><path d="m412.953125 272.847656h33.5v130.339844h-33.5zm0 0" fill="#d34e5c"/><path d="m412.953125 49.207031h33.5v130.398438h-33.5zm0 0" fill="#d34e5c"/><path d="m412.953125 185.605469h33.5v81.238281h-33.5zm0 0" fill="#decaad"/><path d="m429.773438 10.425781c-9.160157-5.378906-20.960938-5.339843-30.082032.121094l-.960937.582031c-.21875.136719-.4375.257813-.660157.359375 9.21875 5.414063 14.882813 15.304688 14.882813 25.996094v5.726563h33.5v-22.980469zm0 0" fill="#b9c239"/><path d="m412.953125 409.1875v5.722656c0 10.6875-5.664063 20.582032-14.882813 25.996094.222657.101562.441407.242188.660157.359375l.960937.582031c9.121094 5.460938 20.921875 5.5 30.082032.121094l16.679687-9.800781v-22.980469zm0 0" fill="#b9c239"/><path d="m165.824219 353.308594c-6.753907-44.707032-48.472657-75.46875-93.175781-68.714844-44.707032 6.753906-75.46875 48.46875-68.714844 93.175781 6.753906 44.703125 48.46875 75.46875 93.175781 68.714844 44.703125-6.753906 75.46875-48.472656 68.714844-93.175781zm0 0" fill="#8ac6dd"/><path d="m84.863281 280.671875c-46.792969 0-84.863281 38.070313-84.863281 84.863281 0 46.792969 38.066406 84.863282 84.863281 84.863282 46.792969 0 84.859375-38.070313 84.859375-84.863282 0-46.792968-38.070312-84.863281-84.859375-84.863281zm0 163.726563c-43.484375 0-78.863281-35.378907-78.863281-78.863282s35.378906-78.863281 78.863281-78.863281 78.859375 35.378906 78.859375 78.863281-35.375 78.863282-78.859375 78.863282zm0 0" fill="#3a312a"/><path d="m99.078125 366.839844 25.683594-25.679688c3.902343-3.902344 3.902343-10.234375 0-14.140625-3.902344-3.90625-10.238281-3.90625-14.140625 0l-25.679688 25.679688-25.679687-25.679688c-3.902344-3.90625-10.238281-3.90625-14.140625 0-3.90625 3.90625-3.90625 10.238281 0 14.140625l25.679687 25.679688-25.679687 25.679687c-3.90625 3.90625-3.90625 10.238281 0 14.140625 1.949218 1.953125 4.511718 2.929688 7.070312 2.929688 2.554688 0 5.117188-.976563 7.070313-2.929688l25.679687-25.679687 25.679688 25.679687c1.949218 1.953125 4.511718 2.929688 7.070312 2.929688 2.554688 0 5.117188-.976563 7.070313-2.929688 3.902343-3.902344 3.902343-10.234375 0-14.140625zm0 0" fill="#87796f"/><path d="m103.320312 366.839844 23.558594-23.558594c2.460938-2.453125 3.8125-5.71875 3.8125-9.191406s-1.355468-6.738282-3.808594-9.1875c-2.453124-2.457032-5.71875-3.8125-9.191406-3.8125-3.476562 0-6.738281 1.351562-9.195312 3.808594l-23.554688 23.558593-23.558594-23.558593c-2.453124-2.457032-5.71875-3.808594-9.191406-3.808594s-6.738281 1.351562-9.191406 3.808594c-2.457031 2.453124-3.808594 5.71875-3.808594 9.191406s1.351563 6.738281 3.808594 9.191406l23.558594 23.558594-23.558594 23.558594c-2.457031 2.453124-3.808594 5.71875-3.808594 9.191406s1.351563 6.738281 3.808594 9.1875c2.453125 2.460937 5.71875 3.8125 9.191406 3.8125s6.738282-1.351563 9.191406-3.808594l23.558594-23.558594 23.558594 23.558594c2.453125 2.457031 5.71875 3.808594 9.191406 3.808594s6.738282-1.351563 9.191406-3.808594c2.457032-2.453125 3.808594-5.71875 3.808594-9.191406s-1.351562-6.738282-3.808594-9.191406zm19.316407 37.703125c-2.640625 2.640625-7.253907 2.644531-9.898438-.003907l-25.679687-25.679687c-.585938-.585937-1.351563-.878906-2.121094-.878906-.765625 0-1.535156.292969-2.121094.878906l-25.679687 25.679687c-2.640625 2.644532-7.25 2.644532-9.898438 0-1.320312-1.324218-2.046875-3.082031-2.046875-4.949218 0-1.871094.726563-3.628906 2.046875-4.949219l25.683594-25.679687c.558594-.5625.875-1.328126.875-2.125 0-.792969-.316406-1.558594-.875-2.121094l-25.683594-25.679688c-1.320312-1.320312-2.046875-3.078125-2.046875-4.949218 0-1.867188.726563-3.625 2.050782-4.949219 1.320312-1.320313 3.078124-2.050781 4.949218-2.050781 1.867188 0 3.625.730468 4.945313 2.050781l25.679687 25.679687c1.171875 1.171875 3.070313 1.171875 4.242188 0l25.679687-25.679687c1.324219-1.320313 3.078125-2.050781 4.949219-2.050781s3.625.730468 4.949219 2.054687c1.324219 1.320313 2.050781 3.078125 2.050781 4.945313 0 1.871093-.726562 3.628906-2.050781 4.953124l-25.679688 25.679688c-1.171875 1.167969-1.171875 3.070312 0 4.242188l25.679688 25.679687c1.320312 1.320313 2.050781 3.078125 2.050781 4.945313.003906 1.875-.726562 3.632812-2.050781 4.957031zm0 0" fill="#3a312a"/><path d="m84.859375 286.667969c-2.78125 0-5.519531.140625-8.242187.421875 39.621093 4.140625 70.601562 37.738281 70.601562 78.4375 0 40.722656-30.980469 74.300781-70.601562 78.441406 2.722656.28125 5.460937.421875 8.242187.421875 43.5 0 78.859375-35.363281 78.859375-78.863281 0-43.476563-35.359375-78.859375-78.859375-78.859375zm0 0" fill="#68a8bc"/></svg>